<svg xmlns="http://www.w3.org/2000/svg" width="300" height="300" viewBox="0 0 300 300"><path d="M150.25.48A149.76,149.76,0,1,0,300,150.23,149.75,149.75,0,0,0,150.25.48Zm-3.88,215.37H93.19c-3,0-4.19-3.2-1.2-4.62,1.69-.81,3.47-.68,4.18-2.31,1.3-3-4.1-5.51-9.91-9.9-31.53-23.87-28.9-53.29-26.7-71.51,1.08-8.88-7.19-11.58-14.17-8.37-1.24.57-3.39-.31-2.86-3.71,3.15-20.34,17.35-30.1,30.26-30.82a35,35,0,0,1,32.52,19c21.75-2.81,40.18,11.82,42.73,22.67.45,1.91-1.25,2.9-2.5,1.6-19.9-20.8-42.82-17.05-54.47-5.67a1.74,1.74,0,0,1-2.87-.88c-4.8-18.58-22.11-18.4-29.56-11.1a8.11,8.11,0,0,1,6.64,1.66c3.09,2.53,6.39,7.63,4.56,17.5-3.17,17.08-.17,33.46,8.62,46,16,22.82,51.21,33.91,67.74,36.66C148.73,212.48,148.71,215.85,146.37,215.85Zm5.13-37.72c-.14,1.06-2.68,20.33-3.41,25.81-.5,3.82-2.09,4.11-5,2.34C104.39,182.8,87.8,155,95.79,137.54c9.64-21,37-14.83,50.4-2.51a3.49,3.49,0,0,1,1,3.55s-11,38.88-11.57,40.77.45,3,2.51,2.11l10.86-4.8C150.82,175.86,151.72,176.52,151.5,178.13Zm-1-17.84c.35-3.78,1-10.69,1.57-15.87.49-4.5.91-8.38,4.2-11,13.89-11.28,39.27-15.92,48.46,4.17,8,17.55-8.78,45.42-47.8,69-2.85,1.73-3.91.15-3.2-2.48.64-2.34,11.84-42.46,12.43-44.59s-.52-3-2.52-2.07c-1.83.83-7.19,3.2-10.3,4.57C150.78,163.13,150.29,162.21,150.47,160.29ZM255.1,119.14c-7-3.21-15.25-.51-14.17,8.37,2.21,18.22,4.83,47.64-26.7,71.51-5.81,4.39-11.21,6.91-9.91,9.9.71,1.63,2.49,1.5,4.19,2.31,3,1.42,1.77,4.62-1.21,4.62H154.12c-2.34,0-2.36-3.37.17-3.79C170.82,209.31,206,198.22,222,175.4c8.79-12.53,11.79-28.91,8.62-46-1.83-9.87,1.47-15,4.56-17.5a8.11,8.11,0,0,1,6.64-1.66c-7.45-7.3-24.76-7.48-29.56,11.1a1.74,1.74,0,0,1-2.87.88c-11.65-11.38-34.56-15.13-54.47,5.67-1.25,1.3-2.95.31-2.5-1.6,2.56-10.85,21-25.48,42.74-22.67a35,35,0,0,1,32.51-19c12.91.72,27.11,10.48,30.26,30.82C258.49,118.83,256.35,119.71,255.1,119.14Z"/></svg>