<svg xmlns="http://www.w3.org/2000/svg" width="300" height="300" viewBox="0 0 300 300"><title>client-hippo</title><path d="M39.83,268a14.66,14.66,0,1,1,0,29.32,14.66,14.66,0,1,1,0-29.32ZM203.31,88.41c-30-8.94-31.72-15.4-32.35-27a5.54,5.54,0,1,0-11.06.6C161,81.74,170,90,200.15,99c23.85,7.11,33.5,13.54,31.55,35-1.57,17.19-14.48,28-34.55,29-13.22.65-20.72-2.36-28-5.26-5.63-2.26-11.45-4.59-19-4.59s-13.34,2.33-19,4.59c-7.25,2.9-14.76,5.91-28,5.26-20.06-1-33-11.83-34.54-29-1.6-17.57,2.43-26.32,31.55-35,28-8.36,37.72-16.21,39.83-32.31a5.54,5.54,0,1,0-11-1.44c-1.12,8.55-4,14.77-32,23.14C65.71,97.76,55.4,110,57.68,135a40.88,40.88,0,0,0,13,26.89c7.13,6.56,16.76,10.61,28,11.85a74.71,74.71,0,0,0,103.07,0c11.25-1.24,20.87-5.29,28-11.85a40.83,40.83,0,0,0,13-26.89C245,110,234.69,97.76,203.31,88.41ZM117,174.93a.81.81,0,0,1,.26-1.5,77.54,77.54,0,0,0,18.12-5.37c5.29-2.12,9.47-3.8,14.85-3.8s9.57,1.68,14.86,3.8a77.69,77.69,0,0,0,18.12,5.37.8.8,0,0,1,.27,1.49,70,70,0,0,1-66.48,0Zm84.79-36.88c11.16-5.68,9.92-8.46,5.33-13.61-4-4.48-9.61-5-16.09,1.92C180.66,137.4,188.77,144.66,201.76,138.05ZM93.32,124.44c-4.59,5.15-5.84,7.93,5.33,13.61,13,6.61,21.1-.65,10.76-11.69C102.93,119.45,97.3,120,93.32,124.44ZM201.3,69c1.84-5.27-3-10.87-10.69-10.77-2.72,0-7.91.77-9.11,6.23-1.37,6.28,3.81,4.81,8.46,5.5S199.45,74.25,201.3,69Zm-90.85,1c4.65-.69,9.82.78,8.45-5.5-1.19-5.46-6.38-6.19-9.11-6.23-7.65-.1-12.53,5.5-10.68,10.77S105.79,70.64,110.45,70ZM171,235.41a5.56,5.56,0,1,0,2.15,10.92c75.91-14.91,88.13,1.29,90.47,10.45a12.79,12.79,0,0,1-1.78,10.75c-5.36,8.12-19.79,14.54-39.59,17.6-19.55,3-36.69-1.2-48.25-11.89-12.16-11.24-18-29.72-17.11-53.67,65.83-3,118.33-50.63,118.33-108.73,0-33.37-14.15-61.4-44.14-82.19a5.57,5.57,0,0,0-6.34,9.15c26.94,18.68,39.35,43.37,39.35,73,0,53.9-51.07,97.76-113.85,97.76S36.36,164.74,36.36,110.84c0-29.67,12.4-54.36,39.35-73a5.57,5.57,0,0,0-6.34-9.15c-30,20.79-44.14,48.82-44.14,82.19,0,58.73,53.65,106.72,120.48,108.79a100.62,100.62,0,0,0,1.49,22.16c-30,6.72-57.23,14.68-84.81,25.53a5.56,5.56,0,1,0,4.52,10.17c27.76-9.71,53.71-18.36,82.88-24.88,3.45,11.05,9,21.77,16.61,28.8,11.23,10.38,26.44,15.81,43.76,15.81a89.68,89.68,0,0,0,13.75-1.09c23.23-3.59,40-11.57,47.18-22.47A24,24,0,0,0,274.37,254C268.39,230.65,236.61,222.51,171,235.41ZM93.94,36c-11.16,9.94-17.37,22.61-17.37,36a5.57,5.57,0,0,0,11.13,0c0-12.73,7.78-24.91,21.36-33.4a3.84,3.84,0,0,0,.29-6.44c-3.51-2.44-6.53-1.41-11.65-4.43-4.1-2.43-5-8.34-2-11.22,4.38-4.27,6.68-3.66,15.39,4.09,5.7,5.08,12.78,11.39,21.62,8.73a86.39,86.39,0,0,1,35,0c8.83,2.66,15.91-3.65,21.62-8.73,8.7-7.75,11-8.36,15.39-4.09,2.95,2.88,2.1,8.79-2,11.22-5.11,3-8.13,2-11.65,4.43a3.84,3.84,0,0,0,.3,6.44c13.57,8.49,21.36,20.67,21.36,33.4a5.57,5.57,0,0,0,11.13,0c0-13.34-6.22-26-17.37-35.95,4.55-2.33,8.81-5.85,10.72-10.56,1.35-3.3,2.52-9.9-4.72-16.95-12.58-12.25-23.83-2.23-30.55,3.75-4.95,4.41-8.38,7.16-11.11,6.36-3.67-1.08-13.86-2.24-20.61-2.24s-16.94,1.16-20.61,2.24c-2.73.8-6.15-1.95-11.1-6.36-6.72-6-18-16-30.56-3.75-7.24,7-6.06,13.65-4.72,17C85.13,30.12,89.39,33.64,93.94,36Z"/></svg>