<svg xmlns="http://www.w3.org/2000/svg" viewBox="0 0 300 300"><ellipse cx="72.27" cy="138.6" rx="9.05" ry="9.06"/><path d="M283.25,219A22.81,22.81,0,0,0,262,204.42a24.84,24.84,0,0,0-3.14.2,137.48,137.48,0,0,1-17.44,1.12q-1.89,0-3.79-.05c-16.07-.43-28.84-3.71-43.1-9.58-6.22-2.37-10.11,1.74-11.16,4.22-1.37,3.22-9.22,15-23,23.07-18.6-1.71-28.57-9.28-30.7-22.66,7.19-2.12,42.76-12.29,15.89-34.85a137.83,137.83,0,0,1-16.74-20.27,9.06,9.06,0,1,0-6.26-10.2,134.21,134.21,0,0,1-16.8-61.55,138,138,0,0,1,.71-17.94l7.31-41a3.3,3.3,0,0,0-1.67-3.47L98.38,4a3.3,3.3,0,0,0-4,.65Q77.15,23.17,68.13,33c-.33.31-.65.63-1,1L55.52,45.59A148.83,148.83,0,0,0,265.9,256l11.65-11.63A22.72,22.72,0,0,0,283.25,219ZM150,228.38a88,88,0,0,1-14.54,4.3c-1.55-9.2-12.48-15.86-25.32-15.86a36.26,36.26,0,0,0-4.51.3c-1.53-5.83-7.39-10.18-14.41-10.18A15.6,15.6,0,0,0,80,211.48q-.88-1.13-1.73-2.31a76.11,76.11,0,0,1-10.49-20.34c21.45,12.33,39.49,16.39,55.5,13.39C125.59,215.83,134.69,224.68,150,228.38Zm-21.06,5.32a52.94,52.94,0,0,1-15.71-.36,48.92,48.92,0,0,1-16.44-6.5,25.74,25.74,0,0,1,13.35-3.44C120,223.4,127.89,228.18,128.92,233.7Zm142.91,4.75a141.84,141.84,0,0,1-97.48,38.66C96,277.13,32.08,213.21,32.11,134.85A141.76,141.76,0,0,1,65.82,42.93c.23-.21.45-.41.69-.65,6.58-6.59,14.81-6.59,14.81,3.29,4.58-4.58,16.23-4.91,17.9,4.27,0,.29,0,.58-.08.87A143.7,143.7,0,0,0,98,73a142,142,0,0,0,47.82,102.25c4.61,3.73,4.53,8.51-5.27,13.61-20.43,10.62-40.09,12.46-75.59-9.37a3.3,3.3,0,0,0-5.05,2.79c0,7.09,5.2,20,13,30.79,10.06,14,23.4,23.52,39,26.78,9,1.88,36.89,1.43,55.26-12,7.51-5.5,14.58-10.93,18.53-16.32s6.71-8.54,9.77-7.45a140.59,140.59,0,0,0,40.72,7.16,144,144,0,0,0,22.25-1.12C274.4,208,283.52,227.46,271.84,238.45Z"/></svg>