<svg xmlns="http://www.w3.org/2000/svg" viewBox="0 0 300 300"><path d="M248,59.74l-7.47,25.53L233.77,59.5a.34.34,0,0,0-.33-.25H222.35a.34.34,0,0,0-.33.25l-6.75,25.76L207.8,59.74a.68.68,0,0,0-.65-.49H195.09a.68.68,0,0,0-.65.88l14,44a.34.34,0,0,0,.32.24h11.84a.34.34,0,0,0,.33-.25l7-24.48,7,24.48a.34.34,0,0,0,.33.25H247a.34.34,0,0,0,.32-.24l14-44a.68.68,0,0,0-.65-.88H248.64A.68.68,0,0,0,248,59.74Z"/><path d="M296.84,92.85H284.12V87.24h12.72V76.4H284.12V70.79h12.72V59.25H272.08a.34.34,0,0,0-.34.34v44.47a.34.34,0,0,0,.34.34h24.76Z"/><path d="M15.54,138.52v7.09H36.29a.68.68,0,0,1,.68.68V156a.68.68,0,0,1-.68.68H15.54v14.74a.68.68,0,0,1-.68.68h-11a.68.68,0,0,1-.68-.68V127.31A.34.34,0,0,1,3.5,127H36.29a.68.68,0,0,1,.68.68v10.19a.68.68,0,0,1-.68.68Z"/><path d="M256.26,127.65v43.79a.68.68,0,0,1-.68.68h-11a.68.68,0,0,1-.68-.68v-16H227.29v16a.68.68,0,0,1-.68.68h-11a.68.68,0,0,1-.68-.68V127.65a.68.68,0,0,1,.68-.68h11a.68.68,0,0,1,.68.68v16.28h16.59V127.65a.68.68,0,0,1,.68-.68h11A.68.68,0,0,1,256.26,127.65Z"/><path d="M134.52,127a.68.68,0,0,0-.68.68v25.14c0,5.66-3.56,8.9-8,8.9s-8-3.24-8-8.9V127.65a.68.68,0,0,0-.68-.68h-11a.68.68,0,0,0-.68.68v25.14c0,12.66,9.11,20.34,20.34,20.34s20.34-7.68,20.34-20.34V127.65a.68.68,0,0,0-.68-.68Z"/><path d="M179,145.86v8.94a.68.68,0,0,0,.68.68h11.49a11.77,11.77,0,0,1-9.9,5.28c-7,0-12.52-5.85-11.58-12.71a11.27,11.27,0,0,1,10-9.63,11.15,11.15,0,0,1,9,3.15.67.67,0,0,0,.69.16l11-3.68a.68.68,0,0,0,.37-1,23.48,23.48,0,0,0-43.35,12.49c0,13,10.07,23.51,22.51,23.51a21.77,21.77,0,0,0,13.15-4.43v2a.68.68,0,0,0,.68.68h8a.68.68,0,0,0,.68-.68V145.52a.34.34,0,0,0-.34-.34h-22.3A.68.68,0,0,0,179,145.86Z"/><path d="M71.09,126.06a23.48,23.48,0,1,0,23.48,23.48A23.48,23.48,0,0,0,71.09,126.06Zm0,34.68a11.2,11.2,0,1,1,11.2-11.2A11.2,11.2,0,0,1,71.09,160.75Z"/><path d="M296.84,127H267.71a.68.68,0,0,0-.68.68v10.19a.68.68,0,0,0,.68.68h12.41v32.92a.68.68,0,0,0,.68.68h11a.68.68,0,0,0,.68-.68V138.52h4.33Z"/><path d="M236.35,223.88a11.18,11.18,0,0,1-9.56,4.58,11.2,11.2,0,0,1,.53-22.39,11.17,11.17,0,0,1,9,4.61.68.68,0,0,0,.81.24l10.25-4.25a.68.68,0,0,0,.34-1,23.48,23.48,0,1,0,0,23.14.68.68,0,0,0-.34-1l-10.25-4.24A.68.68,0,0,0,236.35,223.88Z"/><path d="M187.11,239.84h12.68a.68.68,0,0,0,.63-.93l-17.65-44a.34.34,0,0,0-.31-.21H169.53a.34.34,0,0,0-.31.21l-17.65,44a.68.68,0,0,0,.63.93h12.68a.68.68,0,0,0,.64-.46l3-8.72h15l3,8.72A.68.68,0,0,0,187.11,239.84ZM171.69,221.3l4.3-12.55,4.3,12.55Z"/><path d="M296.84,230.39l-10.18-17.63,10.18-8.93V194.7h-7.77a.34.34,0,0,0-.22.08l-19,16.48V195.37a.68.68,0,0,0-.68-.68h-11a.68.68,0,0,0-.68.68v43.79a.68.68,0,0,0,.68.68h11a.68.68,0,0,0,.68-.68V227.53l7.53-6.61,11.48,18.76a.34.34,0,0,0,.29.16h7.71Z"/><path d="M146,207.71h0a13,13,0,0,0-13-13h-27a.34.34,0,0,0-.34.34V239.5a.34.34,0,0,0,.34.34h26.6A13.26,13.26,0,0,0,146,226.49a10.29,10.29,0,0,0-5.36-9.22A10.35,10.35,0,0,0,146,207.71ZM118.11,205h11.77a3.78,3.78,0,1,1,0,7.57H118.11Zm11.77,24.5H118.11v-7.57h11.77a3.78,3.78,0,0,1,0,7.57Z"/></svg>