<svg xmlns="http://www.w3.org/2000/svg" width="300" height="300" viewBox="0 0 300 300"><path d="M82.19,81.23a33.42,33.42,0,0,1,.7,5.18v.28a.64.64,0,0,1-.42.57h-.06a.49.49,0,0,1-.36-.15,1.56,1.56,0,0,1-.42-.56,5.84,5.84,0,0,0-.42-1.12,6.24,6.24,0,0,0-.28-1.54,8.35,8.35,0,0,1-.28-3.22,5,5,0,0,1,.14-1.27c0-.14.14-.42.28-.42s.28-.14.42-.14l.14.14A13.22,13.22,0,0,0,82.19,81.23ZM77,55h.34a.52.52,0,0,0,.36-.14c.14-.14.14-.28.28-.42.14-.84.28-1.54.42-2.38a.5.5,0,0,0-.14-.42q-.21-.42-.42-.42c-.28,0-.28.14-.42.28a6.91,6.91,0,0,0-.84,2.38A1.15,1.15,0,0,0,77,55Zm-3.08-4.63a3.87,3.87,0,0,0-.42,1.83v1.4h-.14a4.48,4.48,0,0,0-.14,2,1.89,1.89,0,0,0,.7,1.4.42.42,0,0,0,.28.14c.14,0,.14,0,.28-.14a.74.74,0,0,0,.42-.56v-.84a9.3,9.3,0,0,1,.42-3.92c.28-.7.56-1.27.84-2,.14-.28.28-.7.42-1s-.14-.7-.42-1h-.28c-.28,0-.42.14-.7.28C74.76,48.84,74.34,49.54,73.92,50.38ZM78,84c.14.42.42.84.56,1.26a.14.14,0,0,0,.14.14c.14,0,.28-.14.42-.14a1.58,1.58,0,0,0,.42-1.12V82.91a29.63,29.63,0,0,1-.7-3.37c0-.14-.14-.14-.14-.28a.74.74,0,0,0-.56-.42H78a.76.76,0,0,0-.56.28,1.42,1.42,0,0,0-.28,1.27C77.56,81.51,77.56,82.91,78,84Zm131.5,54c-.84-.14-1.82-.14-2.66-.28s-2-.42-2.95-.56c-1.82-.28-3.64-.42-5.6-.56a10.92,10.92,0,0,1-3.09-.7,2.1,2.1,0,0,0-1-.28h-.42a16.62,16.62,0,0,1-3.64-.7c-1.55-.28-3.09-.7-4.63-1.12a11,11,0,0,0-3.08-.84,2.14,2.14,0,0,1-1-.28,14.39,14.39,0,0,0-3.36-.84,2.1,2.1,0,0,1-1-.28c-.42-.14-.84-.42-1.26-.57a4.58,4.58,0,0,0-1.27-.28h-.13a2,2,0,0,0-.71.14,1,1,0,0,0-.56.85,7.67,7.67,0,0,0,.56,1.54,6.33,6.33,0,0,0,1.12,1.54c.29.28.57.56.85.56a8.83,8.83,0,0,1,3.22,1.12,7.32,7.32,0,0,0,2.38,1.12,17.3,17.3,0,0,0,2.53.71l1.82.42,1.26.42c3.09.56,6.17,1.26,9.25,1.68a4,4,0,0,1,1.27.28,11.34,11.34,0,0,0,3.78.7h1.47a20.3,20.3,0,0,1,2.46.15h.2a3.82,3.82,0,0,1,1.06.15,3.75,3.75,0,0,0,1,.15h.35a1.69,1.69,0,0,0,.7-.15h1.4a1.89,1.89,0,0,0,1.26-1.68,2.82,2.82,0,0,1-.28-1A1.52,1.52,0,0,0,209.48,138Zm-97-115.51a1.34,1.34,0,0,0-.7.56.61.61,0,0,0,.14.7,3.72,3.72,0,0,0,1.4.84,14.61,14.61,0,0,0,5.33,1.54h.7c.14,0,.28-.14.42-.28s-.14-.56-.28-.7c-.42-.14-.84-.42-1.26-.56-1.54-.56-3.23-1.12-4.77-1.82A2.41,2.41,0,0,0,112.47,22.49ZM75.18,83.61c.14,0,.28,0,.28-.14a2.28,2.28,0,0,0,.7-2.38,3.08,3.08,0,0,0-.28-1.69c-.14-.14-.14-.28-.28-.42a.54.54,0,0,0-.36-.14h-.06c-.14,0-.28,0-.28.14a3.33,3.33,0,0,0-.42.7,9.94,9.94,0,0,0-.14,2.11,2.44,2.44,0,0,0,.56,1.68A.42.42,0,0,0,75.18,83.61Zm24.25-45.7a8.63,8.63,0,0,1-3.36,1,2,2,0,0,0-1,.28,3.21,3.21,0,0,0-.85.56c-.14.28-.14.56.14.7l.57.28h.28a8.14,8.14,0,0,0,3.22-.7,6.48,6.48,0,0,1,2.24-.56,1.07,1.07,0,0,0,.7-.28,22.76,22.76,0,0,0,3-4.21,6.11,6.11,0,0,0,.56-2.1,27.17,27.17,0,0,0-.14-4.77q-.42-4.26-.42-8.55a.86.86,0,0,0-.14-.56c0-.28-.42-.42-.84-.42h-.14a1.09,1.09,0,0,0-.56.56,38.18,38.18,0,0,0,.14,7,26.9,26.9,0,0,1,.28,3.23,19.3,19.3,0,0,0,.14,2.94,3.25,3.25,0,0,1-.14,1.12l-.42,1.26a2.94,2.94,0,0,1-.85,1.41l-1.12,1.12A2.76,2.76,0,0,1,99.43,37.91Zm125-23.83a45.27,45.27,0,0,1-7.57-1.41h-.56a16.78,16.78,0,0,1-4.62-1.12,5.67,5.67,0,0,0-2.11-.42,1.71,1.71,0,0,0-1.54,1.12c-.14.7-.14,1.12-.28,1.68h0v.57a1.42,1.42,0,0,0,.84,1.26c1.12.42,2.1.84,3.23,1.26l1.54.42c1.68.14,3.36.56,5,.7a13.68,13.68,0,0,1,2.39.28,17,17,0,0,0,2.66.28h.22a1.5,1.5,0,0,0,1.46-1.12c.14-.56.28-1.12.42-1.82A1.61,1.61,0,0,0,224.48,14.08Zm-96.17,171a9.23,9.23,0,0,0,1.54-1.82A15.08,15.08,0,0,0,132,180.2a12.74,12.74,0,0,1,2.38-3.22l.56-.56c.61-.88,1.27-1.72,2-2.53a14.82,14.82,0,0,0,2.53-3.36A1.09,1.09,0,0,1,140,170a38.27,38.27,0,0,0,3.22-3.51,10.56,10.56,0,0,1,2.67-2.94l2.66-2.66a23.56,23.56,0,0,1,2.8-2.39c1.12-.7,1.68-1.82,2.81-2.52a5.59,5.59,0,0,1,2.52-2.24,9.76,9.76,0,0,0,2-1.41,12.63,12.63,0,0,1,4.35-2.1c1-.28,1.82-.56,2.8-.84a2.86,2.86,0,0,0,1.82-1,.55.55,0,0,0,.15-.42c0-.14-.29-.56-.43-.56l-.7-.14a4.84,4.84,0,0,0-1.4.28c-1.26.42-2.38.84-3.5,1.26a4.43,4.43,0,0,0-1.41.7,5.25,5.25,0,0,1-2.1,1.26,3.55,3.55,0,0,0-1,.56,43.42,43.42,0,0,0-4.06,3.09L151,156.09a4.83,4.83,0,0,0-1.68,1.68,1.87,1.87,0,0,1-1,.84,9.08,9.08,0,0,0-2.81,2.81,3.73,3.73,0,0,1-.7.84,11.9,11.9,0,0,0-3.08,3.36,4.26,4.26,0,0,1-1.12,1.12,1.09,1.09,0,0,0-.56.56,65.89,65.89,0,0,1-5.05,5.89l-1.26,2.11c-.42.7-1.26,1-1.68,1.68s-.84,1.12-1.27,1.82a27,27,0,0,1-3.92,5,15,15,0,0,0-1.82,2.38,5.73,5.73,0,0,1-1.55,2.24,29.38,29.38,0,0,0-2,3.51.61.61,0,0,0,.14.7c.14.14.14.14.28.14h.06a.51.51,0,0,0,.36-.14,6.49,6.49,0,0,0,1-1,16,16,0,0,1,2.11-2.81h0a3,3,0,0,0,.56-.84A9.2,9.2,0,0,1,128.31,185.11ZM75,106.18c1,1.26,1.68,2.52,2.66,3.79a51.74,51.74,0,0,0,2.67,4.62,5.87,5.87,0,0,0,1.26,2,3,3,0,0,1,.7,1.12,1,1,0,0,0,.28.7,33.31,33.31,0,0,1,2.94,4.76,2.22,2.22,0,0,1,.42,1.27,2.13,2.13,0,0,0,.28,1,17.24,17.24,0,0,1,1,2.8l.42,1.26a.75.75,0,0,0,.68.42h.08a.51.51,0,0,0,.36-.15,6.08,6.08,0,0,1,1.54-1.12,5.73,5.73,0,0,0,2-1.26,49.5,49.5,0,0,1,4.49-2.94,3.48,3.48,0,0,1,1.26-.56,6.16,6.16,0,0,0,2.24-.85,2.82,2.82,0,0,1,1-.28h.49a20.3,20.3,0,0,0,2.46-.15c.28,0,.56-.14.84-.14a2.72,2.72,0,0,1,1.12.28A7.57,7.57,0,0,0,108,123h.17a1,1,0,0,0,.81-.42,1.81,1.81,0,0,0,.43-1.68c-.14-.56-.29-1.26-.43-1.82s-.14-1.12-.28-1.54c-.14-1-.42-2-.56-3a5.55,5.55,0,0,0-1.26-2.94,1,1,0,0,0-.81-.42h0l-5.19.14h-5a20.42,20.42,0,0,1-2.81-.28,7.93,7.93,0,0,0-1.82-.28,8.67,8.67,0,0,1-3.22-1,19.36,19.36,0,0,1-5.47-3.23A9.57,9.57,0,0,1,80,103.24c0-.14-.15-.28-.15-.56a2.91,2.91,0,0,0-.14-1.13,19.14,19.14,0,0,1-.42-5.6v-.84C79,94.4,79,93.7,78.68,93a4.54,4.54,0,0,0-1.4-2.52A12.85,12.85,0,0,1,76,89.08a10,10,0,0,0-1.54-1.82,5.44,5.44,0,0,1-1.12-1.41,6,6,0,0,0-1-1.54,5.78,5.78,0,0,1-2-4.34,9.11,9.11,0,0,1,.28-3.37,11.83,11.83,0,0,0,.56-2.1c.28-2,.7-4.07,1.12-6a5.57,5.57,0,0,0-.14-2.66A6.23,6.23,0,0,1,72,64.26a15.78,15.78,0,0,0-.56-2.8,11.84,11.84,0,0,1-1-4.91A5.33,5.33,0,0,0,70.27,55a11.79,11.79,0,0,1,.7-6.59,4.6,4.6,0,0,1,.7-1.4c.84-1.12,1.83-2.24,2.67-3.36a6.26,6.26,0,0,0,1.54-3.37,6.48,6.48,0,0,1,.7-2.8,1.14,1.14,0,0,0-.42-1.12,6.85,6.85,0,0,0-2.52-1,4,4,0,0,1-1.27-.28,25.8,25.8,0,0,0-3.5-1.4c-.28-.14-.42-.28-.7-.42a.87.87,0,0,1-.14-1,1.92,1.92,0,0,1,.56-.42h.14l3.78,1.4A23.11,23.11,0,0,0,77.7,34.4h.42a2.38,2.38,0,0,0,1.68-.84,7.8,7.8,0,0,0,1.13-1.82A10.45,10.45,0,0,1,83,28.37a4.79,4.79,0,0,0,.7-1.12,4.91,4.91,0,0,1,1.4-1.54,4.26,4.26,0,0,0,1.12-1.12,1.92,1.92,0,0,1,.84-1,7.22,7.22,0,0,0,2.25-1.82,30,30,0,0,1,2.38-2.11,8,8,0,0,1,2.81-1.54c.14,0,.14,0,.28-.14a12.89,12.89,0,0,1,4.34-1.82,19.47,19.47,0,0,1,3.09-1,25.67,25.67,0,0,1,3.5-.28h1.12a10,10,0,0,0,1.64.14H111a13.23,13.23,0,0,1,2,.15,15.69,15.69,0,0,1,2.52.7,15.23,15.23,0,0,1,3.51,1.4,2.83,2.83,0,0,0,1.48.42h.76a27.28,27.28,0,0,1,4.77-.42h.14a2.58,2.58,0,0,1,1.12.28,12.67,12.67,0,0,0,3.08.84,2.62,2.62,0,0,1,1,.28c1.68.84,3.5,1.82,5.18,2.66a2.93,2.93,0,0,1,1.12.71,17.09,17.09,0,0,0,3.23,2.24,11.08,11.08,0,0,1,2.38,2.1,10,10,0,0,0,1.54,1.82,6.09,6.09,0,0,1,1.41,1.27,4.26,4.26,0,0,0,1.12,1.12,11.09,11.09,0,0,1,3.22,4.06,2.21,2.21,0,0,1,.42,1.26A36.93,36.93,0,0,1,151.3,40a10.13,10.13,0,0,0,.28,3.51,6.1,6.1,0,0,1,.14,1.54,17.53,17.53,0,0,0,1.12,4.62,5,5,0,0,0,.57,1.27,3.42,3.42,0,0,1,0,3.64c-.14.28-.14.56-.28.7a4,4,0,0,1-1.69,2.1c-1.26.71-2.24,1.83-3.5,2.39s-2.53,1.68-3.93,2.38a4.6,4.6,0,0,0-1.26,1c-.42.56-1,1.12-1.4,1.68a5.36,5.36,0,0,0-.56,1,.61.61,0,0,0,.14.7.75.75,0,0,0,.56.28h.14c.28-.14.7-.28,1-.42a14.82,14.82,0,0,1,3.09-2.11,10.1,10.1,0,0,0,2.1-1.12c.56-.56,1.54-.42,2.24-.7l.56-.28a10.74,10.74,0,0,0,2.67-1.68,15.19,15.19,0,0,0,2.52-2.67,1.92,1.92,0,0,1,1-.84h.42a.52.52,0,0,1,.29.68v0c-.14.29-.28.71-.42,1a7.44,7.44,0,0,0-1.12,2.1,9.41,9.41,0,0,0-.56,3.36,5.12,5.12,0,0,1-.14,1.41c-.28,1-.42,2.1-.7,3.08a3.78,3.78,0,0,1-1.83,2.52,11.75,11.75,0,0,1-2.38,1.12,3.56,3.56,0,0,0-1.54,1,7.59,7.59,0,0,1-1.54,1.4,4.72,4.72,0,0,0-2,1.68c-.42.56-1,1.12-1.4,1.68-.14.28-.28.42-.28.7a5.36,5.36,0,0,1-.28,1.27,1.89,1.89,0,0,0,.14.84c.14.28.28.56.56.56h.06a.51.51,0,0,0,.36-.14,4.21,4.21,0,0,1,1.69-1.41,5.57,5.57,0,0,0,1.4-1.12c.28-.28.7-.56,1-.84.7-.42,1.26-1,2-1.4a11.53,11.53,0,0,0,2.24-1.4A4.64,4.64,0,0,1,154,74.5c.28-.14.56-.14.7-.28a2.24,2.24,0,0,0,1.12-1.4c.14-1,.42-2,.56-2.95a1,1,0,0,1,.28-.7c.7-.56,1-1.54,1.54-2.24a.51.51,0,0,1,.36-.15h.2a.93.93,0,0,1,.56.84c-.14.28-.28.7-.42,1a6.28,6.28,0,0,0-.84,2.24,8.82,8.82,0,0,1-1.12,3.23,2.26,2.26,0,0,1-1.26,1.26c-.14.14-.28.14-.42.28a40.37,40.37,0,0,0-6.31,3.64,3.56,3.56,0,0,0-.84.71c-.7.84-1.54,1.68-2.38,2.52-.43.42-.71.84-1.13,1.26a3.5,3.5,0,0,0-.7,3.08,1,1,0,0,0,.56.85h.28c.28,0,.42-.14.7-.28.43-.43.71-.85,1.13-1.27a7.89,7.89,0,0,1,1-1.26c1-1,2-1.82,2.94-2.8A12.17,12.17,0,0,1,155.37,79a5.09,5.09,0,0,0,3.78-4.48,27.59,27.59,0,0,1,1.69-4.77c0-.14.28-.28.42-.28h.14a.88.88,0,0,1,.84.7,4.65,4.65,0,0,1-.56,1.82,6.08,6.08,0,0,0-.84,2.25c-.14.56-.28,1-.42,1.54a6.35,6.35,0,0,1-2,3.36,3.88,3.88,0,0,1-2.1,1.13A4.13,4.13,0,0,0,154,81.37a12.88,12.88,0,0,0-3.65,3.08,16.4,16.4,0,0,0-3.64,3.93A8.63,8.63,0,0,0,145,92a1.55,1.55,0,0,0,0,1.12c0,.14.14.28.28.42a.72.72,0,0,0,.57.28h.06a.51.51,0,0,0,.36-.15c.14-.14.28-.28.28-.42A4.81,4.81,0,0,1,148.36,91a5.38,5.38,0,0,0,1.54-1.54,19.19,19.19,0,0,1,3.37-3.37,4.07,4.07,0,0,0,1.54-1.54c.14-.14.28-.28.42-.28,1.26-.56,2.38-1.54,3.78-2.1a3.29,3.29,0,0,0,2-2.1c.42-1.13.84-2.11,1.26-3.23a6.41,6.41,0,0,1,1-2.24,8.56,8.56,0,0,0,1-2c.28-1,.84-1.83,1.12-2.67a5.57,5.57,0,0,0,.7-2.52,5.3,5.3,0,0,1,.14-1.54,5.44,5.44,0,0,0,0-3.65,4,4,0,0,1,0-1.82,33.9,33.9,0,0,0,.42-5.33,34,34,0,0,1,0-3.78,15.91,15.91,0,0,0,.28-2.67c-.14-.84-.14-1.82-.28-2.66v-1.4c.14-.84.28-1.69.42-2.67a5.72,5.72,0,0,1-.28-2.66,14.34,14.34,0,0,0-.7-4.21,1.2,1.2,0,0,1,0-1,.93.93,0,0,0-.28-1A8.47,8.47,0,0,1,164.62,32a18.9,18.9,0,0,0-6.45-4.63c-1.26-.56-2.66-1.12-3.92-1.68a9.21,9.21,0,0,0-2.81-.84,4.19,4.19,0,0,1-1.26-.28,16.31,16.31,0,0,0-2.8-1,4.49,4.49,0,0,1-1.4-.7,27.39,27.39,0,0,0-4.35-2.53A23,23,0,0,0,139,19.26a9.14,9.14,0,0,1-3.37-1.54,4.3,4.3,0,0,0-1.68-.7,8.9,8.9,0,0,1-2.52-.84,16.71,16.71,0,0,0-2.81-1,10.82,10.82,0,0,1-2.94-1.27,5.06,5.06,0,0,0-2.53-1,11.83,11.83,0,0,1-2.1-.56,2.76,2.76,0,0,0-1-.28h-.14a6.61,6.61,0,0,1-2.38-.7,19.47,19.47,0,0,0-3.09-1c-1.54-.28-2.94-.7-4.48-1.12s-3-1-4.35-1.26a4.25,4.25,0,0,0-2-.48,4,4,0,0,0-.69.06h0a2.19,2.19,0,0,1-.56-.14,5.55,5.55,0,0,0-2.93-.85H98.17c-1.68-.56-3.36-.28-4.91-1.12-.14,0-.28-.14-.42-.14h-.56A15.41,15.41,0,0,1,89.76,5a31.8,31.8,0,0,0-5.05-.7,17.91,17.91,0,0,1-3.92-.56,11.35,11.35,0,0,0-2.25-.28h-.7a4.25,4.25,0,0,1-1.54-.29,11.8,11.8,0,0,0-2.64-.29H72.37A12.68,12.68,0,0,1,70,2.58a3.75,3.75,0,0,0-1-.15h-.63c-.7,0-1.4.14-2.1.14H66a3.81,3.81,0,0,1-1.06-.14h-.42a5.12,5.12,0,0,1-1.4.28H61a11.2,11.2,0,0,0-4.59,1c-.28.14-.7.28-1,.42a10.39,10.39,0,0,0-4.62,3.09,2.81,2.81,0,0,0-.43.7,11.19,11.19,0,0,0-.42,3.36,8.2,8.2,0,0,1-.28,2.66,24.05,24.05,0,0,0,0,4.49,6.15,6.15,0,0,1,.42,3.23c0,1.4.14,2.66.14,4.06s.57,2.66.57,3.93a20.83,20.83,0,0,1,.56,5,1.61,1.61,0,0,0,.14.84,2,2,0,0,0,.28.85c.28,1.82.7,3.64,1.12,5.32v2.67a8.11,8.11,0,0,0,.28,1.82c.14.42.28,1,.42,1.54a20.23,20.23,0,0,1,.84,3.93,22.29,22.29,0,0,0,1.26,5.88A4,4,0,0,1,56,58.8a19.36,19.36,0,0,0,1.26,5.46c.14.14.14.28.14.56a13.41,13.41,0,0,0,1.13,4.07,8.37,8.37,0,0,1,.56,2.66,5.61,5.61,0,0,0,1.12,3.23,2.57,2.57,0,0,1,.28,1c0,.42.14.7.14,1.12.14,1.54,1.12,2.8,1.26,4.35a7.6,7.6,0,0,0,.42,1,17.32,17.32,0,0,1,2,4.34,9.26,9.26,0,0,0,.7,1.69c.43.84,1,1.68,1.41,2.66.28.56.42,1.12.7,1.68,1,1.82,1.82,3.65,2.8,5.47a25.14,25.14,0,0,0,2,3.22,31.15,31.15,0,0,1,2.81,4.21C74.76,105.76,74.9,105.9,75,106.18Zm156.45,40.1a18.38,18.38,0,0,1,.14-2.67,10.45,10.45,0,0,0,.42-2.94,29.4,29.4,0,0,0-.14-5,10.53,10.53,0,0,1,0-2.1,1.61,1.61,0,0,0-.14-.84,19.06,19.06,0,0,1-1.12-3,2.81,2.81,0,0,1-.28-1.82,5.89,5.89,0,0,0-.42-2.66,7.56,7.56,0,0,1-.7-4.63,3.25,3.25,0,0,0-.14-1.12c-.28-1.12-.42-2.1-.7-3.08-.28-1.55-.42-3.23-.56-4.77a73.48,73.48,0,0,0-.28-7.71,12.47,12.47,0,0,1,0-3.23v-.84a14.15,14.15,0,0,1-.14-3.5,8.73,8.73,0,0,1,.28-3.37V91.88a11.4,11.4,0,0,0-.28-2.1c-.14-.7.42-1.4.42-2.1V87.4a24.91,24.91,0,0,1,.42-6.45V79.54a1.11,1.11,0,0,0-.14-.56l0,0c-.08,0,0,1-.24,1a1.23,1.23,0,0,0-.42.14,9.2,9.2,0,0,0-1.69,4.2,1.89,1.89,0,0,1-.28,1,16,16,0,0,0-.7,5,10.72,10.72,0,0,1-.42,4.21,8.54,8.54,0,0,0-.14,1.82V99a8.8,8.8,0,0,0,.28,2.66c.14.85.42,1.55.56,2.39a1,1,0,0,1-.42,1.12.51.51,0,0,1-.36.14h-.06a.73.73,0,0,1-.56-.28,14.71,14.71,0,0,0-.56-2.38,31.35,31.35,0,0,1-1-3.93,42.83,42.83,0,0,0-2.1-6.31,2.59,2.59,0,0,0-1.55-1.4c-.84-.42-1.82-.84-2.66-1.26a3.82,3.82,0,0,1-1.68-1.26c-.28-.28-.56-.56-.84-.56a7.86,7.86,0,0,1-2.39-1.27c-.56-.28-1.12-.7-1.68-1H209a.89.89,0,0,0-.47.14.88.88,0,0,0-.28,1c0,.14,0,.14.14.28a24,24,0,0,0,3.37,4.21,3,3,0,0,0,.84.56,8.4,8.4,0,0,1,3.64,2.67,2.89,2.89,0,0,1,.42.7,5.7,5.7,0,0,1,.56,2.1,4.19,4.19,0,0,0,.28,1.26,18.82,18.82,0,0,1,1.12,4.91,8.54,8.54,0,0,0,.71,2.52,13.22,13.22,0,0,1,1.26,3.23,1.57,1.57,0,0,1-.42,1.54.47.47,0,0,1-.28.14c-.14,0-.28,0-.28-.14L218,108c-.14-.28-.28-.42-.28-.7a7.65,7.65,0,0,0-.7-2,10.88,10.88,0,0,1-1-2.24,11,11,0,0,0-1.26-2.95.5.5,0,0,1-.14-.42,1.79,1.79,0,0,0-1.54-1.68c-.28-.14-.7-.14-1-.28a12.15,12.15,0,0,0-3.09-.7h-.7a5.07,5.07,0,0,1-2-.42,6.6,6.6,0,0,0-2.53-.7h-.14a2.82,2.82,0,0,1-1-.28,4,4,0,0,0-1.26-.42h-.84a1.76,1.76,0,0,0-.56.42c-.14.14,0,.42.14.7a3.77,3.77,0,0,0,.84.7,48,48,0,0,0,6,2.94l1.26.42a7.81,7.81,0,0,1,1,.42,2.44,2.44,0,0,1,1.68,2c.28,1,.57,1.82.85,2.8.56,1.12,1,2.38,1.54,3.36a13,13,0,0,1,1.12,3,1.91,1.91,0,0,0,.7,1.12l.56.56a2.78,2.78,0,0,1,.14,1.82.69.69,0,0,1-.56.28h-.14c-.14-.14-.28-.14-.42-.28a5.82,5.82,0,0,1-1.54-2.52c-.56-1.26-1.12-2.66-1.68-3.93a10.43,10.43,0,0,0-1.83-2.94,1.73,1.73,0,0,0-1.12-.56h-.42a4.83,4.83,0,0,0-2,.84,14.77,14.77,0,0,1-3.09,2.1,1.09,1.09,0,0,0-.56.56,3.11,3.11,0,0,1-1.82,1.13,4.58,4.58,0,0,0-1.26.56c-.28.14-.42.42-.56.56a.63.63,0,0,0,.35.82l.07,0H200l1.26-.42a6.81,6.81,0,0,0,2.95-1.12c.56-.28,1.26-.56,2-.84h.28a1.38,1.38,0,0,1,1.12.7.42.42,0,0,1,.14.28c.56,2.1,1.82,3.78,2.38,5.89.14.28.28.7.42,1a7,7,0,0,1,1,4.06v.84a9.88,9.88,0,0,1-.29,3.51,4,4,0,0,0,0,1.82c.14,1.54.29,3.08.29,4.49a17.17,17.17,0,0,0,.42,3.78,17.66,17.66,0,0,0,.84,3.93,26.21,26.21,0,0,0,1,3.08,11.52,11.52,0,0,0,2.8,4.49c.14.14.28.42.56.56a1,1,0,0,1,.14,1.26,34.54,34.54,0,0,0-2,6.45,10.4,10.4,0,0,1-.7,2.24,5.56,5.56,0,0,0-1,2.95c-.14.56-.28,1-.42,1.54-.56,1.54-1.12,3.08-1.54,4.62a35.64,35.64,0,0,1-1.69,5.05,11.83,11.83,0,0,0-.56,2.1,2.83,2.83,0,0,1-.42,1.55,25.16,25.16,0,0,0-1.54,4.2c-.28,1-.56,1.82-.84,2.81a19.69,19.69,0,0,0-1,3.08,15.93,15.93,0,0,1-1.12,2.66l-.43,1.27a21.54,21.54,0,0,1-1.4,4.34c-.14.28-.14.7-.28,1-.42,1.26-.7,2.67-1.12,3.79a23.48,23.48,0,0,0-1.54,5,4.81,4.81,0,0,1-.7,2,9.34,9.34,0,0,0-1,2.8,19.62,19.62,0,0,1-1.41,4.07,2.39,2.39,0,0,0-.28.7,11.8,11.8,0,0,1-1.26,4.34c-.28.42-.14,1.13-.42,1.55a23.31,23.31,0,0,0-1.54,5l-.42,1.26a5.06,5.06,0,0,0-.56,1.55,7.1,7.1,0,0,1-.56,1.54,6.85,6.85,0,0,0-.56,1.82,4.49,4.49,0,0,1-1,2.67,2.69,2.69,0,0,0-.42,1.54,9,9,0,0,1-.71,3.36,12,12,0,0,0-1,4.91,10.64,10.64,0,0,1-.84,4.2,4.7,4.7,0,0,0-.28,3.09,3.48,3.48,0,0,1,0,2.38,6.18,6.18,0,0,0-.14,1.54,2.81,2.81,0,0,1-.14,1.83c-.14.84-.28,1.54-.42,2.38v.84c.42,1.12,0,2.38.28,3.23v2.66a1.21,1.21,0,0,1-.84,1h-.14c-.14,0-.56-.14-.56-.42-.14-.84-.28-1.68-.42-2.66a3.88,3.88,0,0,1,.14-1.27c.14-.42.14-.84.28-1.26A5.83,5.83,0,0,0,185,258a22.89,22.89,0,0,0-.56-2.95c.14-1,.42-2,.56-2.94v-.84a2.79,2.79,0,0,1,.14-1.54,8.19,8.19,0,0,0,.28-3.23,4,4,0,0,1,.56-2.52,1.4,1.4,0,0,0,.28-1.26,5,5,0,0,1,.28-1.54,2.62,2.62,0,0,0,.28-1,28.42,28.42,0,0,1,1.26-4.9,30.22,30.22,0,0,0,1-3.37,30.1,30.1,0,0,1,1-3.36,7.65,7.65,0,0,1,.7-2,4.25,4.25,0,0,0,.28-1.27,2.45,2.45,0,0,1,.28-1c.14-.56.42-1.12.56-1.82.42-1.4.84-2.94,1.26-4.35.14-.84.56-1.68.7-2.52a4.58,4.58,0,0,1,.7-2c.28-.56.56-1.26.84-2a25.75,25.75,0,0,0,.56-3.37,6.62,6.62,0,0,0-.28-3.36,11.94,11.94,0,0,1-.56-2.11,14.39,14.39,0,0,0-.84-3.36,4.41,4.41,0,0,1-.42-1.82,8.62,8.62,0,0,0-.42-2.67,6.51,6.51,0,0,1-.7-2.8,35.68,35.68,0,0,1-1.26-5.19c-.28-.84-.42-1.54-.7-2.24a22.21,22.21,0,0,1-1.27-6,2.09,2.09,0,0,0-.56-1.54,2,2,0,0,1-.42-1.54,2.75,2.75,0,0,0-.42-1.55,11.67,11.67,0,0,1-1.12-3.36,15,15,0,0,1-.84-3.37,34.14,34.14,0,0,1-1.4-4.06,10.64,10.64,0,0,0-1.4-2.8,10.29,10.29,0,0,1-1.27-2.11,9.23,9.23,0,0,0-1.54-1.82c0-.14-.14-.14-.14-.28a2.7,2.7,0,0,0-2.1-1.54,11.61,11.61,0,0,1-2.1-.56,8.11,8.11,0,0,0-1.83-.28H174a5.26,5.26,0,0,0-1.24.15,15.16,15.16,0,0,0-3.64.84,7.37,7.37,0,0,0-3.93,2.52,48.39,48.39,0,0,0-4.62,4.77c-.14.14-.29.28-.43.28a3.9,3.9,0,0,0-1.26,1.68,5.81,5.81,0,0,1-1.54,2.24,9.29,9.29,0,0,0-1.68,2.39,13.64,13.64,0,0,1-2.1,3.36,6.29,6.29,0,0,0-1.13,2.1,7.27,7.27,0,0,1-1.12,2.39c-.42.7-.84,1.54-1.26,2.38a13.81,13.81,0,0,1-1,1.54,3.5,3.5,0,0,0-.84,2,5,5,0,0,1-.7,2,17.22,17.22,0,0,0-1.12,2.38,25.06,25.06,0,0,1-1.41,2.53c-.14.28-.14.56-.28.7-.84,2-1.68,3.78-2.38,5.74a21.19,21.19,0,0,1-1.54,3.09l-.84,1.68-1.69,4.21a2.82,2.82,0,0,1-.56,1.12,6.1,6.1,0,0,0-1.4,2.66,7.8,7.8,0,0,1-.56,1.12,8.43,8.43,0,0,0-1,2c-.28.7-.56,1.26-.84,2a35.07,35.07,0,0,0-1.54,3.36,31.56,31.56,0,0,1-2.25,4.91,4.3,4.3,0,0,0-.7,1.68,4.58,4.58,0,0,1-.7,2,1.51,1.51,0,0,0-.28.71c-.28,1.26-.42,2.52-.7,3.64v.56a2.5,2.5,0,0,0,2.35,2.66h.75a5.28,5.28,0,0,0,1.25-.15,23.26,23.26,0,0,0,5.18-2.1c1.12-.7,2.25-1.54,3.37-2.1a30.79,30.79,0,0,1,3.5-2.38c.14,0,.28-.14.42-.28a6.19,6.19,0,0,1,2.11-1.69,19.88,19.88,0,0,0,3.78-2.94,5.4,5.4,0,0,1,1.4-1.12,8.1,8.1,0,0,0,1.27-1c.84-.85,1.82-1.69,2.66-2.67a2.6,2.6,0,0,0,.56-2.94c-.28-.42-.42-.7-.7-1.12a17,17,0,0,1-2-3.51,9.31,9.31,0,0,0-1.27-2.66c-.14-.28-.14-.56-.28-.7a1.12,1.12,0,0,1,.28-.7h.23a.83.83,0,0,1,.48.15,4.83,4.83,0,0,1,1.68,2.66,4.58,4.58,0,0,0,.56,1.26,47.93,47.93,0,0,1,3.36,5.75,3.52,3.52,0,0,0,.56,1,18.31,18.31,0,0,1,1.69,3.37,7.45,7.45,0,0,1,.56,1.54,11.83,11.83,0,0,0,1.4,2.24c.56.84.56,2,1.12,2.66.14.14.14.29.28.43a28.84,28.84,0,0,1,2.24,5.74,3.94,3.94,0,0,0,1.13,2.11,3,3,0,0,1,.7,1.12,20,20,0,0,0,1.12,2.66c.42.84.7,1.4,1.12,2.1a2.83,2.83,0,0,1,.42,1.55,3.5,3.5,0,0,0,.84,2,2.67,2.67,0,0,1,.7,1.4,9.17,9.17,0,0,0,.7,1.68,19.56,19.56,0,0,1,1.12,2.67c.56,1.54,1.13,2.94,1.83,4.48a5,5,0,0,1,.56,1.54,14.57,14.57,0,0,0,2.1,4.77,5.63,5.63,0,0,1,.56,1c.28.84.42,1.69.7,2.67s1,1.54,1.12,2.38a6.36,6.36,0,0,0,.7,1.68,12.16,12.16,0,0,1,1.13,2.39,6.61,6.61,0,0,0,.56,1.54,24.48,24.48,0,0,0,1.82,5,2.83,2.83,0,0,1,.42,1.55,8,8,0,0,0,.7,2,26.66,26.66,0,0,1,1.68,4.2,16.56,16.56,0,0,0,1.55,3.65,20.85,20.85,0,0,1,1,2.52,8,8,0,0,0,1.54,3.09,8.39,8.39,0,0,1,.84,1.12,5.57,5.57,0,0,0,2.1,2c.28.14.7.28,1,.42s.71,0,1.13.14H198a5,5,0,0,0,2.79-.84c1.54-.7,2.24-2.24,3.79-2.94a1.09,1.09,0,0,0,.56-.56l1.26-1.69c.42-.56.56-1,.84-1.4a11.92,11.92,0,0,0,1.82-3.5,2.29,2.29,0,0,1,.56-1,7.24,7.24,0,0,0,2.11-3.93c.14-.28.14-.56.28-.7a9.17,9.17,0,0,0,.7-1.68c.28-.7.56-1.54.84-2.25.7-1.4,1.26-2.8,1.82-4.2a1.54,1.54,0,0,0,.14-.7,11.94,11.94,0,0,1,.56-2.11,20.1,20.1,0,0,1,1.4-4.06,1.63,1.63,0,0,0,.14-.84,23.63,23.63,0,0,1,1.69-5.33,4.67,4.67,0,0,0,.42-1.26,25,25,0,0,1,1.12-5.47c.14-.56.28-1,.42-1.54.42-1.68.7-3.51,1.26-5.19a30,30,0,0,0,1-6,5.1,5.1,0,0,1,.28-1.54,13.57,13.57,0,0,0,.84-4.76,4.17,4.17,0,0,1,.14-1.27,5.13,5.13,0,0,0,.14-2.1v-1.12a26.32,26.32,0,0,0,.56-4.77,15.76,15.76,0,0,0,.14-2.66v-.56a12,12,0,0,0,.57-3.09,1.55,1.55,0,0,0,0-1.12,5.58,5.58,0,0,1,.14-2.66,16.13,16.13,0,0,0,.56-2.66,5.12,5.12,0,0,0,.14-1.41,14.15,14.15,0,0,1,.14-3.5,15.27,15.27,0,0,0,.14-3.51,2.83,2.83,0,0,1,.14-1.12,8.67,8.67,0,0,0,.28-4.2v-1.12a18.38,18.38,0,0,0,.14-2.67A3.6,3.6,0,0,1,228,193a11.79,11.79,0,0,0,.28-3.79,5.73,5.73,0,0,1,.28-2.66,4.5,4.5,0,0,0,.28-2.38V182a14.64,14.64,0,0,0,0-3.5,18.18,18.18,0,0,1,.28-4.77,3.67,3.67,0,0,0-.14-2.1,1.94,1.94,0,0,1,0-1.26,6.62,6.62,0,0,0,.28-2.38c0-1.27.14-2.53.14-3.79a16.88,16.88,0,0,0,.14-2.66,3,3,0,0,1,.14-1.12c.42-1.55.56-3.23.84-4.77a23.34,23.34,0,0,0,.28-3.23,7,7,0,0,1,.28-2.94A11.72,11.72,0,0,0,231.49,146.28Zm-59.44-19.77a1.73,1.73,0,0,0,.56,1.12,14.88,14.88,0,0,0,4.49,2.24c1.4.42,2.94.84,4.34,1.12a2.31,2.31,0,0,1,1.27.43c1.26.7,2.8.7,4.06,1.54a4.19,4.19,0,0,0,1.26.28l3.93.42a3.3,3.3,0,0,1,1.12.28,13.84,13.84,0,0,0,4.63,1c.28,0,.56.14.84.14a7.93,7.93,0,0,0,1.82.28h.46a11.24,11.24,0,0,1,3.89.7,5.65,5.65,0,0,0,1.82.3l.42,0h.7a2.86,2.86,0,0,0,1.54-.56,1,1,0,0,0,.56-.84,8.31,8.31,0,0,0-.14-3.22,17.24,17.24,0,0,1-.42-3.65,5.3,5.3,0,0,1,.14-1.54,6.48,6.48,0,0,0,.14-3.65,5.3,5.3,0,0,1,0-2.1,2.83,2.83,0,0,0-.42-2.1,24.11,24.11,0,0,1-2.24-4.63,5,5,0,0,0-1.12-1.82,1,1,0,0,0-.7-.28h-.28a10.8,10.8,0,0,1-2.67,1.12,26.66,26.66,0,0,0-2.66.7,1.71,1.71,0,0,1-.71.15h-.13a3,3,0,0,1-2.25-1.12,2,2,0,0,1,0-2.66,2.67,2.67,0,0,1,.85-.56,19.41,19.41,0,0,0,3.92-1.69,3.75,3.75,0,0,0,1.68-1.26,4.57,4.57,0,0,1,2.11-1.54,5.27,5.27,0,0,0,1.26-.56,6.08,6.08,0,0,0,1.54-1.12.88.88,0,0,0,.16-1.24l0,0-.14-.14c-.28-.14-.56-.43-.84-.57-.56-.28-1-.28-1.54-.56a4.79,4.79,0,0,0-2.39-.7h-.14a2.21,2.21,0,0,1-1.26-.42c-.14-.14-.28-.14-.42-.28-1.12-1-2.1-2-3.22-2.8a3,3,0,0,1-.42-.7,4,4,0,0,1,0-1.83,1.09,1.09,0,0,1,.56-.56,1.3,1.3,0,0,1,.58-.14h.26a29.43,29.43,0,0,1,3.36.56,23,23,0,0,0,5.19,1c.42,0,.7.14,1.12.14l3.93,1h.7c.14,0,.42-.42.42-.56a2.37,2.37,0,0,0-.28-.7,4.93,4.93,0,0,0-1.54-1.41,7,7,0,0,1-2.25-1.82c-.14-.14-.28-.28-.42-.28a4.91,4.91,0,0,1-1.4-1.54A13.69,13.69,0,0,1,206.54,88c-.14-.28-.28-.42-.28-.7a9,9,0,0,0-.56-1.83,1.4,1.4,0,0,1,.7-1.82,1,1,0,0,1,.54-.15h.3a2,2,0,0,1,1,.28,10.09,10.09,0,0,1,1.68,1,13.48,13.48,0,0,0,2.67,1.68c.84.42,1.68,1,2.52,1.41a10.4,10.4,0,0,1,2.66,1.68c.28.14.42.28.7.42a4.49,4.49,0,0,1,3.09,3.22c0,.14.14.14.14.28a.49.49,0,0,0,.36.15h.34a1.23,1.23,0,0,0,.7-1.4,11,11,0,0,1,.14-6c.28-.84.28-1.68.56-2.66.08-.33.17-.66.28-1a13.83,13.83,0,0,0,.7-2.24c.14-.28.28-.71.56-.85.85-.7,1.55-1.4,2.39-2.1a3.14,3.14,0,0,0,1.12-1.82c0-.14.14-.28.14-.56a15.12,15.12,0,0,1,.84-3.37,2.57,2.57,0,0,0,.28-1,32.69,32.69,0,0,1,1.68-7.29,5.57,5.57,0,0,0,.14-2.66.88.88,0,0,0-.7-.84c-.42-.14-.7-.14-1.12-.28H230a42.68,42.68,0,0,0-4.49.56,2.52,2.52,0,0,1-.82.14h-.72c-.7,0-1.26-.14-2-.14h-.7a12.82,12.82,0,0,1-2.24-.28h-.21a4.23,4.23,0,0,1-1.06-.14,5.65,5.65,0,0,0-1.82-.3l-.42,0h-.84c-.28,0-.7.14-1.12.14H213c-1.26-.28-2.53-.42-3.65-.7a5.86,5.86,0,0,0-1.54-.42c-2.24-.28-4.35-1-6.59-1.41a6.7,6.7,0,0,1-2.94-1.12,8,8,0,0,0-2-.7,13.58,13.58,0,0,1-4.48-1.68c-.28-.14-.7-.28-1-.42-.56-.28-1.12-.42-1.69-.7-.84-.42-1.54-.84-2.38-1.26-.28-.14-.56-.14-.7-.28h-.14c0-.24-.08-.34-.21-.34a.56.56,0,0,0-.35.2c-.14.42-.42,1-.56,1.4a3.83,3.83,0,0,0-.42,1.82c0,2.1-.7,4.07-.7,6.17-.7,2.38-.56,5-1.26,7.43a9.47,9.47,0,0,1-.85,3.92,16,16,0,0,0-.56,2.67,6.9,6.9,0,0,1-.42,2.38,1.86,1.86,0,0,0-.14.84,25.37,25.37,0,0,1-.56,3.23,39.34,39.34,0,0,0-.56,3.92,6.9,6.9,0,0,1-.42,2.38,11.71,11.71,0,0,1-.56,2.11,3,3,0,0,0-.14,1.54,5.72,5.72,0,0,1-.28,2.66,14.24,14.24,0,0,0-.56,2.67,17.13,17.13,0,0,1-.7,2.52,11,11,0,0,0-.7,4.21,10.5,10.5,0,0,1-.56,3.64,13.82,13.82,0,0,0-.57,3.37,8.58,8.58,0,0,1-.56,3.36,8.12,8.12,0,0,0-.56,3.08,4.64,4.64,0,0,1-.28,2.39c-.14.56-.28,1-.42,1.54a3.47,3.47,0,0,1-.42,2.38,12,12,0,0,0-.56,3.09Zm24-80.33a20.42,20.42,0,0,1-5.88,1.68H190a2,2,0,0,0-.71.14c-.28.14-.56.42-.84.56a.68.68,0,0,0,0,.95l0,0c.14.14.28.28.42.28A12.43,12.43,0,0,1,191.26,51a5.73,5.73,0,0,1,2,1.26c.7.56,1.68.28,2.52.84A13,13,0,0,0,199,54.31a1,1,0,0,1,.56-.16,1,1,0,0,1,.56.16,13.68,13.68,0,0,0,4.07,1.12,20.63,20.63,0,0,1,3.08.84c1,.28,2.1.14,3.22.42a25.77,25.77,0,0,0,4.77.84h.58a15.06,15.06,0,0,1,2.92.29c1.27,0,2.67.29,3.93.29h.28a7.3,7.3,0,0,0,1.4-.14h.7c1,0,2.25.14,3.51.14h.35a4.15,4.15,0,0,0,1-.14,1,1,0,0,0,.7-1,1.27,1.27,0,0,0-.42-1c-1.4-1-2.52-2.38-4.21-2.94-.28-.14-.42-.28-.7-.42-1.68-1.26-3.36-2.39-4.9-3.79a2.7,2.7,0,0,0-1.4-.7c-1.83-.14-3.51-.42-5.33-.56a8.66,8.66,0,0,1-2.67-.42,10.51,10.51,0,0,0-3.38-.56h-.26a6,6,0,0,1-2.24-.56,24.48,24.48,0,0,0-3.51-1.26c-.14,0-.28-.14-.42-.14h-.09a.8.8,0,0,0-.47.15,11.35,11.35,0,0,1-3.08.84A6.53,6.53,0,0,0,196,46.18Zm19.77-23.69h.77a5.74,5.74,0,0,1,2.17.42,2.82,2.82,0,0,0,1,.28c.28,0,.7.14.84.14a4.62,4.62,0,0,0,2-.56,1.09,1.09,0,0,0,.56-.56.68.68,0,0,0,0-1l0,0a2.54,2.54,0,0,0-1.26-.84,9,9,0,0,1-2.8-.7c-.14,0-.29-.14-.57-.14l-3.5-.42-2.1-.42a31.35,31.35,0,0,0-3.93-1h-.14a1,1,0,0,0-1,.7,1.4,1.4,0,0,0,.56,1.68c.28.14.42.28.7.42a16.76,16.76,0,0,0,4.49,1.41A6,6,0,0,0,215.79,22.49ZM204,37.63a8.83,8.83,0,0,0-.7,2.52c-.14.28-.14.7-.28,1.12a2.18,2.18,0,0,0,1.13,2.25,10.65,10.65,0,0,0,2.24,1,8.6,8.6,0,0,1,2.52.84,10,10,0,0,0,2.87.42h.08l1.26.28a8.52,8.52,0,0,0,1.82.28h.56c.56,0,1.26-.14,1.82-.14a1.41,1.41,0,0,0,1.12-1,15.11,15.11,0,0,0,.57-2.67,8.6,8.6,0,0,1,.42-2.66,19,19,0,0,1,.84-3.93c.14-.56.14-1.26.28-1.82a8,8,0,0,1,.28-1.82,10.88,10.88,0,0,0,.42-2.94,5.11,5.11,0,0,1,.28-1.55c0-.28.14-.7.14-1.12a1.61,1.61,0,0,0-.84-1.54,4.36,4.36,0,0,0-1.68-.7,32.11,32.11,0,0,0-3.65-.42h-.59a1.08,1.08,0,0,1-.53-.14h-.14a2.62,2.62,0,0,0-1-.28,15.73,15.73,0,0,1-3.65-.84.8.8,0,0,0-.47-.15h-.51a1.59,1.59,0,0,0-1.26.84,18.79,18.79,0,0,0-1.54,6.17,2.29,2.29,0,0,1-.42,1.26c-.42,1.4-.84,2.94-1.12,4.34A13.81,13.81,0,0,0,204,37.63Zm-85.09-8.55a8,8,0,0,1-3.09-1,18.07,18.07,0,0,0-2.52-.7h-.15a.79.79,0,0,0-.69.42.63.63,0,0,0,.35.82l.07,0c.84.43,1.82.85,2.66,1.27a4.7,4.7,0,0,0,2,.56c.42,0,.84.14,1.82.14h.84c.14,0,.28-.14.28-.42s-.14-.42-.28-.7A4.07,4.07,0,0,0,118.92,29.08Zm-4.07,9.39a3.85,3.85,0,0,1,1.26.28,17.66,17.66,0,0,0,3.93.84h.28c.28,0,.42-.28.56-.42s0-.56-.28-.7-.14-.14-.28-.14a13.46,13.46,0,0,0-3.22-1,16.74,16.74,0,0,1-2.81-.7c-.14,0-.42-.14-.56-.14h-.28c-.14,0-.28.28-.28.28A2.11,2.11,0,0,0,114.85,38.47ZM123,57.26h-.44a2.82,2.82,0,0,0-1,.28A1.07,1.07,0,0,0,121,58.8c.14.14.28.42.42.42a.89.89,0,0,0,.56.28c1.12,0,1.54-.42,1.68-1.12A.92.92,0,0,0,123,57.26Zm-43.14,126h.37a9.5,9.5,0,0,0,2.94-1.41c.84,0,1.54-.28,2.24-.28a4.57,4.57,0,0,0,2.67-1.12c2.38-1.26,4.76-2.8,7.15-4.34a5.28,5.28,0,0,1,1-.56,10.89,10.89,0,0,0,1.68-1c1.59-1,3.22-2,4.91-2.8a11.7,11.7,0,0,0,3.08-2.24,1.93,1.93,0,0,1,1.4-.7,1.93,1.93,0,0,0,1.4-.7,59.12,59.12,0,0,1,4.77-3.51,33.59,33.59,0,0,0,4.63-3.22,2.87,2.87,0,0,1,1.12-.7c2.38-1.27,4.63-2.81,7-3.93,1.54-.7,2.66-1.68,4.2-2.38a9.33,9.33,0,0,1,3.23-1.83A18.5,18.5,0,0,0,137,150.9a24.83,24.83,0,0,1,6.73-3.22c.28-.14.7-.28,1-.42a30.4,30.4,0,0,1,4.91-2.11,4.1,4.1,0,0,0,1.4-.7,5.71,5.71,0,0,1,2.95-1.26,4,4,0,0,0,2.38-1,1.73,1.73,0,0,1,1.12-.56,39.77,39.77,0,0,1,4.07-.7h.28c.84,0,.84-.84.56-1.4a7.54,7.54,0,0,0-1-1.27c-.63-.54-1.29-1.06-2-1.54s-1-1.54-1.68-2.1a18.6,18.6,0,0,1-3.22-4.21,22.64,22.64,0,0,0-1.4-2.24,7.8,7.8,0,0,1-1.13-1.82,22.51,22.51,0,0,1-1.4-3.23,4.38,4.38,0,0,0-.7-1.4,3.32,3.32,0,0,1-.7-2.52,5.06,5.06,0,0,0-.84-2.8l-.28-.43a3.17,3.17,0,0,1-.56-2,10.82,10.82,0,0,0-.42-2.94c-.14-.84-.56-1.54-.7-2.25s-.28-1.54-.42-2.38c-.14-.56-.28-1.26-.43-1.82a8.6,8.6,0,0,1-.42-2.66,2.78,2.78,0,0,0-.28-1.55,6.55,6.55,0,0,1-.7-3.64V95.67a8.71,8.71,0,0,1-.28-1.83,10.53,10.53,0,0,0,0-2.1,22.33,22.33,0,0,1-.28-2.94,5.06,5.06,0,0,0-1-3.09c0-.14-.14-.14-.28-.14s-.14,0-.28.14a1.87,1.87,0,0,0-.84,1,18.68,18.68,0,0,1-1.54,2.81c-1.41,1.82-2.67,3.78-4.07,5.75a3.94,3.94,0,0,1-1.26,1.4l-1.68,1.68a7.57,7.57,0,0,1-1.54,1.4,13.09,13.09,0,0,0-2,1.82,6.12,6.12,0,0,1-1.54,1.13c-.42.14-.84.42-1.26.56-1.54,1.26-3.37,2-5,3.08a6.34,6.34,0,0,1-2.66,1.12,7.45,7.45,0,0,0-1.54.56,5,5,0,0,1-1.55.56,9,9,0,0,0-2.52.85c-.28.14-.7.14-1,.28h-1.4a2.45,2.45,0,0,0-1.26.56,2.81,2.81,0,0,0-.43.7,2.88,2.88,0,0,0,0,1.54c.14.28.29.7.43,1a5.5,5.5,0,0,1,.56,3.65,2.74,2.74,0,0,0,.28,1.82l.42,1.26a3.13,3.13,0,0,1,.28,1.54,4.52,4.52,0,0,0,.14,2.39,21.05,21.05,0,0,1,0,4.2,4.48,4.48,0,0,0,.14,2.38,1.22,1.22,0,0,1,0,1,5.39,5.39,0,0,0-.42,2.1,20.2,20.2,0,0,1-.7,3.08.14.14,0,0,1-.14.14.51.51,0,0,1-.36.15h-.06c-.14,0-.43-.14-.43-.28-.14-.56-.28-1-.42-1.54-.14-.28-.28-.42-.56-.42s-.14,0-.28.14c-.84.84-1.68,1.54-2.52,2.38a33.07,33.07,0,0,0-2.8,3.23,7.36,7.36,0,0,1-1.55,1.4,3.11,3.11,0,0,0-1.26,1.4,5.45,5.45,0,0,1-2,2.39,3.52,3.52,0,0,0-.84.7c-1.12,1.26-2.24,2.52-3.37,3.92-1.4,1.82-2.94,3.37-4.2,5.19a9.11,9.11,0,0,1-1.12,1.12c-.28.28-.56.7-.84,1-.57.84-1,1.68-1.55,2.53s-.84,1.4-1.26,2a4.33,4.33,0,0,0-1.54,2.8.77.77,0,0,1-.42.7,3.83,3.83,0,0,0-1.12,2.67,1.12,1.12,0,0,1-.28.7,14.39,14.39,0,0,0-.84,3.36,4.51,4.51,0,0,1-.28,1.26,6.59,6.59,0,0,0-.57,2.39A17.23,17.23,0,0,1,79,178.8a5.28,5.28,0,0,0-.28,2.52v.84a1.16,1.16,0,0,0,1.15,1.13ZM108,108.42h-.84a7.73,7.73,0,0,1-3.78-1,10.73,10.73,0,0,0-2.25-1,7.14,7.14,0,0,1-3.64-3.08,15.13,15.13,0,0,0-1.4-1.69,11.15,11.15,0,0,1-1.26-1.4,33.52,33.52,0,0,1-2-2.94,15.82,15.82,0,0,0-2.24-3.09,5.38,5.38,0,0,1-1-1.54,19.38,19.38,0,0,1-1.68-3.92c0-.14-.14-.28-.28-.42a17.06,17.06,0,0,1-2-4.35,2.83,2.83,0,0,1-.28-1.54A17.33,17.33,0,0,0,85,78.7a26.56,26.56,0,0,1-.28-3.22,5.39,5.39,0,0,0-.42-2.1,16.63,16.63,0,0,1-1.12-2.81c-.14-.28-.28-.7-.42-1l-.14-.28c-.14-.14-.14-.28-.28-.42a9.26,9.26,0,0,0-1.54-3.36,2,2,0,0,1,0-1.27,5.71,5.71,0,0,1,2.38-2.8,3.12,3.12,0,0,0,1.12-.7A5.4,5.4,0,0,1,87,59.08,19,19,0,0,1,90,58a5.79,5.79,0,0,1,2.17-.43h.07a6.35,6.35,0,0,1,1.68.28,10.13,10.13,0,0,0,1.13.29,5.58,5.58,0,0,1,2.52,1.4,11.66,11.66,0,0,0,1.82,2,3.16,3.16,0,0,1,.84,1.68,7.45,7.45,0,0,0,.56,1.54,9.39,9.39,0,0,1,.84,5.19v2.24a9.94,9.94,0,0,1-.14,2.11c-.28,1.54-.56,3.22-.7,4.76v.84c0,.29.14.57.14.85a3.79,3.79,0,0,0,2.53,1.82,1.31,1.31,0,0,0,.59.14h.16a2.42,2.42,0,0,0,1.35-.42l.14-.14a.64.64,0,0,0,0-.7A2.77,2.77,0,0,0,105,81c-.28-.14-.7,0-1.12-.14a1.4,1.4,0,0,1-1.12-1.41V78.28c0-.84.14-1.82.14-2.66a5.72,5.72,0,0,1,.28-2.66,1.57,1.57,0,0,0,0-1.13,3.48,3.48,0,0,1,0-2.38,2.88,2.88,0,0,0,0-1.54,4.26,4.26,0,0,1-.42-1.82,4.27,4.27,0,0,0-.84-2.53c-.15-.28-.29-.42-.29-.7a8.25,8.25,0,0,0-2.38-3.78c-.42-.42-1-.84-1.4-1.27a4,4,0,0,0-2.1-1.12l-1.55-.42A5.49,5.49,0,0,0,92.49,56h-.67a10.77,10.77,0,0,0-4.16.84l-3.37,1.69a4.28,4.28,0,0,0-1.26,1,4.26,4.26,0,0,1-1.12,1.12c-.14.14-.28.14-.56.14s-.56-.28-.7-.7a1.64,1.64,0,0,1-.14-.84c.14-1.83.28-3.79.42-5.61.56-1.54.14-3.23.84-4.77a37,37,0,0,1,.56-3.92c.14-.84.42-1.69.56-2.53a1.65,1.65,0,0,1,1.54-1.12h.28a17.14,17.14,0,0,1,2.81.84l1.4.7a3.91,3.91,0,0,0,2,.57h1.33c.56,0,1.12.28,1.82.28h.28l5.33-.85c.28-.14.7-.14,1-.42,1.12-.7,2.39-1.4,3.51-2.1A12.85,12.85,0,0,0,105.6,39a7.89,7.89,0,0,0,1-1.26,1.73,1.73,0,0,1,1.12-.56h0a1.25,1.25,0,0,1,.94.42c.28.28.57.42.85.7l1.54,1.54a7.47,7.47,0,0,0,1.26,1,17.92,17.92,0,0,0,5.19,2h.09a.89.89,0,0,1,.47.14,8.08,8.08,0,0,0,3.61.85h0c.7,0,1.4.14,2.11.14h.27a7.33,7.33,0,0,0,1.41-.14h.28c.28,0,.7.14,1,.14a1.21,1.21,0,0,1,.84,1.26.9.9,0,0,1-.84.84h-.14a21.66,21.66,0,0,1-2.66-.56,2.39,2.39,0,0,0-.83-.15h-.24a.83.83,0,0,0-.48.15h-.53a1.35,1.35,0,0,1-.59-.14,4.77,4.77,0,0,0-1.4-.28h-.21a3.75,3.75,0,0,0-1,.15,17.25,17.25,0,0,1-2.67.42,5.1,5.1,0,0,0-1.54.28,1,1,0,0,0-.7.28c-1,.84-2.38,1-3.36,1.68A17.7,17.7,0,0,0,108,50a2.38,2.38,0,0,0-.56,1c-.14.28,0,.7.14.7h.06a.51.51,0,0,0,.36-.14L111.77,49a8.78,8.78,0,0,1,3.08-1.4,2,2,0,0,0,1-.28,4,4,0,0,1,2-.56h.28a3.77,3.77,0,0,1,1.06.15h.7a3.75,3.75,0,0,1,1-.15h.21c.56,0,1.12.14,1.68.14.14,0,.42-.14.56-.14a3.81,3.81,0,0,1,1.69.42l2,.7h.42c.28,0,.42,0,.56-.14h.46a1.25,1.25,0,0,1,.94.42,55.75,55.75,0,0,1,4.07,4.21,5.92,5.92,0,0,1,1,1.54,2.25,2.25,0,0,1,.28,2.1,7.55,7.55,0,0,1-1,2.67c-.56.84-.42,2-1,2.8a10.66,10.66,0,0,0,0,4.21,4.32,4.32,0,0,1,.28,1.82,2.09,2.09,0,0,0,.56,1.54c.14.14.14.28.28.42a15.09,15.09,0,0,0,1.12,2.1l1.68,1.69,1.68,1.68a6.37,6.37,0,0,1,1.41,2c.14.28.28.42.42.7,1.4,1.54,1,3.09.28,4.77-.14.28-.28.7-.42,1a7.92,7.92,0,0,1-1.4,3.08,30.11,30.11,0,0,1-2.53,3.79,15.38,15.38,0,0,0-2.1,3.08,7.36,7.36,0,0,1-1.4,1.55,17.82,17.82,0,0,0-4.07,3.92c-.28.28-.7.56-1,.84-1,.7-2.1,1.4-3.08,2.25a3.16,3.16,0,0,1-1.13.7c-1.68.7-3.08,1.68-4.76,2.38-.28.14-.7.28-1,.42a9.07,9.07,0,0,0-2.53.84,25.34,25.34,0,0,1-4.34,1.26,2.79,2.79,0,0,1-.9.15h-.22C109.53,108.42,108.68,108.42,108,108.42ZM98.45,66.93c0-.56,0-1.26-.28-1.54-.56-1-1.12-1.83-1.68-2.67a1.75,1.75,0,0,0-.7-.7,7.6,7.6,0,0,0-3.37-1.26H91.16a6.16,6.16,0,0,0-2.94,1c-.28.14-.7.28-1,.42a4,4,0,0,0-.84.7,3.12,3.12,0,0,0-.7,1.12,5.34,5.34,0,0,0-.84,4.07c.14.84.14,1.54.28,2.38A3.2,3.2,0,0,0,85.55,72a1,1,0,0,0,.82.43h0a1,1,0,0,0,.56-.28A7.18,7.18,0,0,0,87.8,71a8.63,8.63,0,0,1,.84-1.26,2.53,2.53,0,0,1,1.26-.56H90a1.2,1.2,0,0,1,.59.14,3.12,3.12,0,0,1,1.12.7,5.06,5.06,0,0,0,2.8.84h.29a2.64,2.64,0,0,0,2.24-1.26A15.69,15.69,0,0,0,98.45,66.93Zm12.34-7.85c.14.56.28,1.26.42,1.82,0,.14.14.28.28.42a.52.52,0,0,0,.36.14h.06a3.41,3.41,0,0,0,1-.56,15.62,15.62,0,0,1,3.93-2.24,1.69,1.69,0,0,1,.7-.15H118a1.27,1.27,0,0,1,1,.42c.28.28.42.56.7.84a1.88,1.88,0,0,0,1,.84c.28.14.56.14.7.28a3.42,3.42,0,0,0,1.12.28h.06a2.42,2.42,0,0,0,1.35-.42,4.8,4.8,0,0,0,2.66-2.8,1,1,0,0,1,.84-.57l1.82-.14a1.09,1.09,0,0,0,.56-.56,1.22,1.22,0,0,1,.14-.56,5.43,5.43,0,0,0-.42-2.1c-.28-.42-.42-1-.7-1.4a5,5,0,0,0-2.24-2.53,10.62,10.62,0,0,0-4.07-1.26h-.14c-.56,0-1-.14-1.54-.14h-.14c-.28,0-.42,0-.56.14A22.71,22.71,0,0,0,116.82,50c-.85.28-1.69.71-2.53,1a2.87,2.87,0,0,0-1.12.7,5.92,5.92,0,0,0-2.1,4.48c0,.42-.14.7-.14,1.12C110.37,57.81,110.51,58.38,110.79,59.08ZM108.54,79.4a5.25,5.25,0,0,0,1.55.57h.28a2,2,0,0,0,1-.29,1.14,1.14,0,0,0,.42-.7c0-.28-.14-.42-.28-.42a6.3,6.3,0,0,0-1.4-.56c-.56.14-1,.14-1.41.28-.14.14-.28.14-.42.42S108.4,79.26,108.54,79.4Zm-.42,17.25a10.37,10.37,0,0,1,1.76-.15h.35v.14h1.4a1.12,1.12,0,0,0,.7-.28,14.1,14.1,0,0,1,2.1-1.12,25.33,25.33,0,0,0,4.77-3.93c1-1.26,2-2.66,2.94-3.78a2,2,0,0,0,.42-1.55,1.19,1.19,0,0,0-1-1.12h-.44a2.52,2.52,0,0,0-.82.14,8.41,8.41,0,0,1-1,.28h-.28c-1.4-.42-3.09-.28-4.49-.7-.42-.14-1-.14-1.4-.28a5.12,5.12,0,0,0-1.4.28,15.24,15.24,0,0,1-3.65.84,6.36,6.36,0,0,0-1.68.7c-.28.28-.7.56-1,.84a3.88,3.88,0,0,0-1.54,1.83,20,20,0,0,0-1.12,2.66,4,4,0,0,0-.28,1.82,1.58,1.58,0,0,0,.42,1.12c.28.29.7.57,1,.85.56.28,1.12.42,1.68.7a3,3,0,0,0,1.82.7ZM94.38,66.93h-.84a1,1,0,0,0-.84.56,1.44,1.44,0,0,0,.14,1.26,1.73,1.73,0,0,0,1.12.56h.19a1.08,1.08,0,0,0,1.08-1A1.26,1.26,0,0,0,94.38,66.93Zm12.2,25.65H107c1.12-.28,2.25-.42,3.37-.7.42-.14.84-.14,1.26-.28a6.83,6.83,0,0,0,1-.42,9.34,9.34,0,0,1,2.94-1.26,2.33,2.33,0,0,0,1.41-1.4,1.13,1.13,0,0,0-.14-.7c0-.42-.14-.56-.43-.56-.7.14-1.26.56-1.82.7a5.57,5.57,0,0,0-2.52,1.4,13.3,13.3,0,0,1-1.4.84,6.52,6.52,0,0,1-2.81.7h-.06a2.88,2.88,0,0,0-1.48.42,1.52,1.52,0,0,0-.28.7c.14.14.14.28.28.42A.42.42,0,0,1,106.58,92.58Zm1.4,36h-.14l-.46,0a4.61,4.61,0,0,0-3,1.14,2.87,2.87,0,0,1-1.12.7,23.76,23.76,0,0,0-3.09,2c-.7.42-1.26,1.26-2.1,1.68a27.47,27.47,0,0,0-4.21,3.78A11.4,11.4,0,0,1,91.44,140a7.66,7.66,0,0,0-2.38,2.8,4.71,4.71,0,0,1-2,2.1,1.81,1.81,0,0,0-.7.7,15,15,0,0,1-2.1,2.11,7.47,7.47,0,0,0-1,1.26c-.14.28-.14.42-.28.7a.51.51,0,0,0,.28.7.42.42,0,0,0,.28.14h.06a.55.55,0,0,0,.36-.15,1.84,1.84,0,0,0,1-.84,29.73,29.73,0,0,1,2.81-3.22A12.08,12.08,0,0,1,90.18,144a3.27,3.27,0,0,0,1-1,13,13,0,0,1,1.26-1.4,6.49,6.49,0,0,0,1-1,46.46,46.46,0,0,1,6.87-5.89c.56-.42,1-1,1.54-1.4a15.79,15.79,0,0,1,2.11-1.12l1.26-.84a7.8,7.8,0,0,1,1.82-1.13,4.1,4.1,0,0,0,1.4-.7c.28-.14.42-.28.42-.56S108.54,128.61,108,128.61Zm4.77-95.33a6,6,0,0,0,2.1,1.12c1.4.42,2.81.7,4.07,1h.42c.42-.14.7-.28.84-.7a.84.84,0,0,0-.42-.84,8.5,8.5,0,0,0-1-.42,11.76,11.76,0,0,1-4.35-1.12,2.57,2.57,0,0,0-1-.28h-.14l-.28-.14a.6.6,0,0,0-.56.56,1,1,0,0,0,.14.56C112.61,33.14,112.75,33.14,112.75,33.28Zm17.73-3.93h-.07a1,1,0,0,0-.7.28.64.64,0,0,0,0,.7,2.19,2.19,0,0,0,1.12,1.12l1.69.84a4.79,4.79,0,0,1,2,2.1,4.79,4.79,0,0,0,.7,1.12,1,1,0,0,0,.56.28c.42,0,.84-.42.7-.7v-.28a22.93,22.93,0,0,0-2-3.08,3.11,3.11,0,0,0-1.26-1,8.06,8.06,0,0,1-2.39-1.26A.47.47,0,0,0,130.48,29.35Zm-1-3.92h-.18a2,2,0,0,0-1.22.42c-.14.14-.28.28-.28.42a1.86,1.86,0,0,0,.42.7l2.38.42a6.15,6.15,0,0,1,2.25.7c.42.42.84,1,1.26,1.41a9.58,9.58,0,0,1,1.54,1.82,3.16,3.16,0,0,0,.84.56h.14c.14,0,.56-.14.56-.42v-.84a9.77,9.77,0,0,0-2.52-2.95,11.4,11.4,0,0,0-2.8-1.54c-.56-.14-1-.42-1.55-.56C130,25.57,129.71,25.43,129.43,25.43Zm8.27,1.4a2.63,2.63,0,0,0-1-1.54l-3.36-2.52c-.14-.14-.28-.14-.56-.28a32.36,32.36,0,0,0-3.79-.56h-.42c-.42,0-.84.14-1.26.14s-.42.28-.7.42a.5.5,0,0,0-.14.42c0,.14.14.28.28.42a22.33,22.33,0,0,0,2.94.28,8.11,8.11,0,0,1,1.83.28,15.35,15.35,0,0,1,2.24,1,4.27,4.27,0,0,1,2,1.82,12.72,12.72,0,0,0,1.12,1.4.7.7,0,0,0,.56.28h.14a.68.68,0,0,0,.42-.84A1,1,0,0,0,137.7,26.83Zm-18.92-6.45c-1-.28-2-.56-3.09-.84a6.23,6.23,0,0,1-2.52-1c-.28-.14-.7-.28-1-.42h-.14c-.14.14-.42.28-.56.42s-.14.56.14.7a15.42,15.42,0,0,1,1.54,1,7.89,7.89,0,0,0,4.52,1.42h.53c.28,0,.56-.14.84-.14s.28-.15.28-.43a.52.52,0,0,0-.14-.42C119.06,20.52,118.92,20.38,118.78,20.38Zm19.63,40.1c0,.14.14.14.14.28h.08a.9.9,0,0,0,.48-.14,7.61,7.61,0,0,0,2-3.79c.14-.84.28-1.82.42-2.66a4,4,0,0,0,0-1.82,2.36,2.36,0,0,1-.14-1,37.69,37.69,0,0,0,.42-6.87,13.79,13.79,0,0,1,.28-2.39,24.66,24.66,0,0,1,1.68-4.48,1.9,1.9,0,0,0,.14-1.26,1.69,1.69,0,0,0-.42-.57h-.28a1.08,1.08,0,0,0-.7.29,4.58,4.58,0,0,0-.84,1.68,11.83,11.83,0,0,1-.56,2.1c-.56,1.54-.42,3.36-1.12,4.91v.84a8.54,8.54,0,0,1-.14,1.82A3.57,3.57,0,0,0,140,48.7a5.56,5.56,0,0,1,.14,2.11,16.09,16.09,0,0,1-.7,3.5,1.89,1.89,0,0,0-.14,1.26,8.38,8.38,0,0,1-.84,3.65A1.94,1.94,0,0,0,138.41,60.48Zm-7.72-25.1a24.26,24.26,0,0,1,3.79,3.79c0,.14.14.14.28.14h.06a.54.54,0,0,0,.36-.14c.28-.14.28-.42.28-.7s-.14-.28-.14-.42c-.7-.84-1.26-1.68-2-2.53a3.73,3.73,0,0,0-2.24-1.26c-.29,0-.71.42-.57.7A1,1,0,0,1,130.69,35.38ZM299.85,172.87a10.16,10.16,0,0,1-.87,3.31l-.09.22a22.46,22.46,0,0,1-1.05,2.23,10.35,10.35,0,0,1-1.25,1.79c-.17.21-.34.41-.5.62a5.58,5.58,0,0,1-.39.46,2.28,2.28,0,0,0-.29.33,3.35,3.35,0,0,1-.76.82,10.27,10.27,0,0,0-1.53,1.3,2.25,2.25,0,0,1-.93.61,7.5,7.5,0,0,0-1.34.7,11.5,11.5,0,0,1-1.3.72,1.37,1.37,0,0,1-.47.23,2,2,0,0,0-1.09.59,1.8,1.8,0,0,1-.75.49,7.73,7.73,0,0,0-1.78,1,2.28,2.28,0,0,1-.75.37,4.51,4.51,0,0,0-1.46.77,3.94,3.94,0,0,1-.92.52,2.63,2.63,0,0,0-.89.51,2.38,2.38,0,0,1-.7.44,10,10,0,0,0-1.32.7c-.31.18-.62.37-.94.53l-.16.09a3.21,3.21,0,0,1-.74.33,4.73,4.73,0,0,0-1.56.88l-.12.1a3.16,3.16,0,0,1-.74.48c-.42.18-.82.4-1.23.61a12.48,12.48,0,0,1-1.95.91l-.09,0a3.67,3.67,0,0,1-1.07.67c-.13.07-.27.13-.4.21-.61.38-1.25.73-1.89,1.08a23.39,23.39,0,0,0-2.4,1.43,4.65,4.65,0,0,1-1.06.51l-.45.19a6.2,6.2,0,0,0-1.75.94,2,2,0,0,1-1.1.54,1.61,1.61,0,0,0-.61.33,4.39,4.39,0,0,1-.75.47,5.05,5.05,0,0,1-1.07.63l-.12.05a3.45,3.45,0,0,0-.41.25,6.61,6.61,0,0,1-.68.39,10.25,10.25,0,0,0-2.48,1.4,2,2,0,0,1-.64.35l-.11,0-.59.34a11.44,11.44,0,0,1-1.44.74,12.92,12.92,0,0,0-1.39.7L251,207l-.61-.8.47.88a5.28,5.28,0,0,0-.55.37l-.57.39a5.44,5.44,0,0,1-1,.44c-.14.06-.29.11-.43.18a5.41,5.41,0,0,0-.61.36,6.5,6.5,0,0,1-1.09.59,1.92,1.92,0,0,0-.25.12,3.75,3.75,0,0,1-.69.3,1.34,1.34,0,0,0-.62.39,4.3,4.3,0,0,1-2,1,.91.91,0,0,0-.53.29,1.54,1.54,0,0,1-.28.29,1.77,1.77,0,0,1-.8.45,1.85,1.85,0,0,0-.64.36,3.56,3.56,0,0,1-1.49.69,5.22,5.22,0,0,1-1.73,1,4.55,4.55,0,0,0-1.37.72,3,3,0,0,1-1.06.53,1.59,1.59,0,0,0-.47.22,3.71,3.71,0,0,1-1.48.94l-.44.2-.58.29c-.3.15-.61.3-.9.48-.7.43-1.28.76-1.83,1a14.28,14.28,0,0,0-1.5.86c0-.35.1-.7.13-1.06a3.57,3.57,0,0,0,.09-1.38l.29-.16c.57-.3,1.12-.61,1.78-1a10.72,10.72,0,0,1,1.06-.56c.17-.09.35-.17.52-.27s.41-.19.62-.27a2.29,2.29,0,0,0,.74-.42,3,3,0,0,1,1.32-.79,1.63,1.63,0,0,0,.45-.19,6.55,6.55,0,0,1,1.94-1.05,2.69,2.69,0,0,0,1-.54,2,2,0,0,1,1.11-.52,2,2,0,0,0,.66-.36,3.84,3.84,0,0,1,1.23-.64l.1-.09a2.93,2.93,0,0,1,1.56-1,2.31,2.31,0,0,0,1.08-.52,3.33,3.33,0,0,1,1.49-.9,1.06,1.06,0,0,0,.27-.13,3.12,3.12,0,0,1,.49-.23,3.84,3.84,0,0,0,.72-.41,7.53,7.53,0,0,1,.86-.49l.55-.22a4.85,4.85,0,0,0,.64-.29,4.15,4.15,0,0,0,.43-.3,5.92,5.92,0,0,1,.79-.51l.59-.32a13.26,13.26,0,0,1,1.6-.8,9,9,0,0,0,1.18-.62l.66-.37a1.94,1.94,0,0,1,.36-.15l.1,0a11,11,0,0,1,2.79-1.62,4.3,4.3,0,0,0,.52-.3,5.64,5.64,0,0,1,.64-.37l.12-.05a2.73,2.73,0,0,0,.69-.41l.15-.14.19-.07a2.66,2.66,0,0,0,.48-.29,3.25,3.25,0,0,1,1.47-.68l.09-.08a8,8,0,0,1,2.29-1.28l.5-.2a3.81,3.81,0,0,0,.63-.29,26.72,26.72,0,0,1,2.59-1.54c.6-.33,1.21-.66,1.79-1,.2-.12.4-.22.61-.32a2,2,0,0,0,.56-.32,2.09,2.09,0,0,1,.79-.46,11.88,11.88,0,0,0,1.67-.78c.45-.24.91-.48,1.38-.69a1.51,1.51,0,0,0,.27-.2l.15-.12a6.59,6.59,0,0,1,2.26-1.23l.29-.14.22-.13c.29-.14.56-.31.84-.47A11.48,11.48,0,0,1,280,189a.24.24,0,0,0,.09-.05,4.64,4.64,0,0,1,1.54-.92,2.34,2.34,0,0,0,.44-.25,6.34,6.34,0,0,1,2.13-1.1l.08,0a9.71,9.71,0,0,1,2.15-1.16l.11-.05a4,4,0,0,1,1.89-1.09,1.74,1.74,0,0,1,.28-.16,9.27,9.27,0,0,0,1.09-.6,8.13,8.13,0,0,1,1.74-.89.48.48,0,0,0,.11-.08,13.07,13.07,0,0,1,1.8-1.55,1.22,1.22,0,0,0,.3-.33,5.57,5.57,0,0,1,.5-.59c.08-.09.17-.18.25-.28s.35-.46.54-.68a9.45,9.45,0,0,0,1-1.45c.38-.75.7-1.37,1-2l.09-.23a8.42,8.42,0,0,0,.74-2.75l0-.22a12.29,12.29,0,0,0,.15-3.8l0-.27a7.3,7.3,0,0,0-.14-.86,8,8,0,0,1-.19-1.28,13.53,13.53,0,0,1-.55-1.49,7.32,7.32,0,0,0-.84-1.95,2.37,2.37,0,0,1-.36-.73,4.21,4.21,0,0,0-.91-1.47l-.13-.16c-.18-.22-.38-.42-.58-.62a7,7,0,0,1-1-1.16l-.05,0-.67-.46a10.23,10.23,0,0,0-1.38-.88,7.78,7.78,0,0,1-1.37-.92,7.09,7.09,0,0,0-.76-.56l-.13-.07c-.68-.28-1.33-.62-1.95-.94s-1.15-.59-1.74-.84a7.54,7.54,0,0,1-1.57-.88,11.85,11.85,0,0,0-2-1.19c-.62-.28-1.19-.6-1.75-.91l-.8-.47a13.12,13.12,0,0,0-1.19-.67,7.24,7.24,0,0,1-.93-.54,4.45,4.45,0,0,0-1.11-.56,2.07,2.07,0,0,1-.75-.39,5.39,5.39,0,0,0-1.17-.6,5.88,5.88,0,0,1-.85-.4c-1-.6-2-1.19-3-1.81a8.23,8.23,0,0,0-2-1,2.84,2.84,0,0,1-.67-.28L267,144c-.7-.41-1.39-.82-2.07-1.26a4.22,4.22,0,0,0-.9-.48,4.39,4.39,0,0,1-1.89-1.08s0,0-.05,0l-.57-.26a10.26,10.26,0,0,1-1.1-.55,4.46,4.46,0,0,0-.5-.22,3.7,3.7,0,0,1-1.38-.85,1.85,1.85,0,0,0-.89-.39l-.19,0a1.57,1.57,0,0,1-.53-.28,7.7,7.7,0,0,0-2-1.06,2.64,2.64,0,0,1-.87-.48l-.1-.07c-.16-.12-.32-.24-.47-.37s-.33-.26-.51-.38a3.21,3.21,0,0,0-.71-.42,7.39,7.39,0,0,1-2.21-1.25,1.65,1.65,0,0,0-.59-.34A2.87,2.87,0,0,1,249,134l-.15-.07c-.43-.19-.85-.41-1.27-.63a9.7,9.7,0,0,0-1.62-.74,1.89,1.89,0,0,1-.62-.33,5.29,5.29,0,0,0-1-.6,6.27,6.27,0,0,1-1.31-.78c-.41-.2-.81-.43-1.2-.65a16,16,0,0,0-1.69-.87A7.43,7.43,0,0,1,238,128a.38.38,0,0,0-.17-.1,8.78,8.78,0,0,1-3.53-2h0l-.1,0-.72-.31c-.49-.2-1-.42-1.5-.68h0c-.05-.14-.08-.27-.14-.41l0-.07,0-.07a5.58,5.58,0,0,1-.58-2.28l.45.29c.44.28.85.55,1.27.77s.86.41,1.33.61l.76.32a2.42,2.42,0,0,1,.69.45A6.6,6.6,0,0,0,238.4,126a2.71,2.71,0,0,1,.9.52,5.59,5.59,0,0,0,1.6.92,19,19,0,0,1,1.91,1c.4.22.8.45,1.21.65l.22.14a4.25,4.25,0,0,0,1,.59,6.88,6.88,0,0,1,1.33.81,11.53,11.53,0,0,1,2,.89c.37.19.74.39,1.12.55l.24.11a.93.93,0,0,0,.2.1,3.59,3.59,0,0,1,1.33.71,5.44,5.44,0,0,0,1.59.91,4.55,4.55,0,0,1,1.14.62c.27.18.47.35.68.51l.4.31.11.09a2.73,2.73,0,0,0,.26.17,9.44,9.44,0,0,1,2.47,1.29l.1.07h0a3.54,3.54,0,0,1,1.82,1,2.4,2.4,0,0,0,.69.37,6.07,6.07,0,0,1,.73.34c.3.17.62.31.93.45l.57.27a2.07,2.07,0,0,1,.69.46,2.65,2.65,0,0,0,1.05.54,6.9,6.9,0,0,1,1.38.7c.65.43,1.32.83,2,1.22l.52.31a.72.72,0,0,0,.21.08,9.91,9.91,0,0,1,2.48,1.24c1,.61,2,1.19,2.93,1.78a2.94,2.94,0,0,0,.57.26,7.2,7.2,0,0,1,1.61.85l.13.09a5.87,5.87,0,0,1,1.61.78,6.58,6.58,0,0,0,.73.42c.48.23.93.51,1.37.77l.73.43c.52.29,1.06.59,1.6.83a13.19,13.19,0,0,1,2.32,1.41,5.76,5.76,0,0,0,1.17.65c.65.27,1.28.6,1.88.91s1.19.61,1.79.86a4.23,4.23,0,0,1,.42.22,8.94,8.94,0,0,1,.95.69,6.13,6.13,0,0,0,1,.7,11.8,11.8,0,0,1,1.65,1l.57.4a1.92,1.92,0,0,1,.66.6,4.6,4.6,0,0,0,.76.87,9.11,9.11,0,0,1,.73.79l.13.16a6,6,0,0,1,1.28,2.19.41.41,0,0,0,.06.11,8.93,8.93,0,0,1,1.11,2.48,13.08,13.08,0,0,0,.48,1.3,1.6,1.6,0,0,1,.17.7,6.33,6.33,0,0,0,.15,1,9.56,9.56,0,0,1,.18,1.15v.26A14,14,0,0,1,299.85,172.87Zm-58.74,37.39h0ZM167.74,87.54a4,4,0,0,0-1.08-.62l-.31-.13a8.08,8.08,0,0,1-1.25-.6l-.41-.28a4.86,4.86,0,0,0-1.63-.87l-.15-.13a8.14,8.14,0,0,0-1-.66l-.61-.37-.28-.13a2.33,2.33,0,0,1-.33-.14,5,5,0,0,1-.89.46,7.54,7.54,0,0,0-1.25.66,1.51,1.51,0,0,1,.17.1,8.13,8.13,0,0,0,1.59.79c.2.13.4.24.6.36a6.67,6.67,0,0,1,.84.54,1.45,1.45,0,0,0,.76.44,2.88,2.88,0,0,1,1.05.57l.5.35a11.18,11.18,0,0,0,1.56.76l.3.12a2.16,2.16,0,0,1,.55.29,6,6,0,0,0,1.62,1,7.78,7.78,0,0,1,1.82,1,2.44,2.44,0,0,0,.93.51,2.53,2.53,0,0,1,1,.55,2.88,2.88,0,0,0,1.07.52,4.57,4.57,0,0,1,1.28.58c.5.32,1,.59,1.53.87q.17-.75.39-1.5v-.07a3.2,3.2,0,0,0,.1-.42c-.33-.18-.65-.36-1-.56a6.29,6.29,0,0,0-1.86-.83,1.28,1.28,0,0,1-.33-.15,4.19,4.19,0,0,0-1.69-.92.87.87,0,0,1-.2-.15,9.94,9.94,0,0,0-2.29-1.29A4,4,0,0,1,167.74,87.54Zm4.8,162.29c-.21-.61-.46-1.21-.73-1.8a3.58,3.58,0,0,1-.31.23,1.43,1.43,0,0,1-.36.15,2.74,2.74,0,0,0-1.15.64,2,2,0,0,1-.82.41,5.69,5.69,0,0,0-2.13,1.22.61.61,0,0,1-.32.18,1.52,1.52,0,0,0-.76.31,5.33,5.33,0,0,1-1,.56,9.75,9.75,0,0,0-1,.5,4.73,4.73,0,0,1-.55.28l-.22.09a5.14,5.14,0,0,0-1.83,1.05l-.22.12-.55.28a11.27,11.27,0,0,0-1.34.75c-.23.15-.47.28-.72.41s-.61.33-.91.53a5.53,5.53,0,0,1-.88.45c-.29.13-.59.27-.87.43a5.5,5.5,0,0,1-1,.42l-.56.2a2.54,2.54,0,0,1-1,.16,3.56,3.56,0,0,0-1.57.29l-.05,0a3.71,3.71,0,0,0-1.24.19,5.74,5.74,0,0,1-.63.12,1,1,0,0,1-.53-.07,4.29,4.29,0,0,0-1.94-.49,6.79,6.79,0,0,1-1.87-.42l-.5-.17-.86-.29a3.1,3.1,0,0,1-.87-.38c-.21-.14-.43-.25-.65-.37l-.64-.34a5,5,0,0,1-.75-.43,6.1,6.1,0,0,0-1.49-.75,8.43,8.43,0,0,1-1.62-.84c-1-.63-2.12-1.25-3.48-2q-.31-.16-.63-.36l-.13-.1a2.36,2.36,0,0,0-1.06-.47,1.46,1.46,0,0,1-.23-.06,6.25,6.25,0,0,1-.61-.44l-.52-.38-.23,0a2.31,2.31,0,0,1-.88-.47l-.09-.07a8.06,8.06,0,0,0-1-.57l-.46-.26-.11-.07a3.74,3.74,0,0,0-1.27-.55,4.8,4.8,0,0,0-1-.67,2.33,2.33,0,0,1-.34-.2,10.55,10.55,0,0,0-1.37-.71l-.58-.28a5.29,5.29,0,0,1-1.34-.8,3,3,0,0,0-1.82-.82,5,5,0,0,0-1.23-.68,6.61,6.61,0,0,0-2.51-1.48,6.61,6.61,0,0,0-1.44-.85,7.44,7.44,0,0,1-.79-.42,17.37,17.37,0,0,0-1.63-.89l-.53-.26-.51-.24-.36-.16-.23-.11a2.13,2.13,0,0,1-.38-.2,5.37,5.37,0,0,0-2-1.11.65.65,0,0,1-.15-.1l-.17-.11-.09-.07a1.74,1.74,0,0,0-.76-.39,3.38,3.38,0,0,1-1.16-.64l-.55-.38a8.48,8.48,0,0,0-1.71-.9,9.64,9.64,0,0,1-2.62-1.42,2.76,2.76,0,0,0-1.26-.64,1.91,1.91,0,0,1-.82-.41,5.71,5.71,0,0,0-1.3-.77,1.59,1.59,0,0,1-.3-.19l-.38-.26-.09,0a3.08,3.08,0,0,0-.89-.4,3.25,3.25,0,0,1-1-.5,7,7,0,0,0-2.2-1.07l-.14-.09-.16-.1-.18-.12a2.65,2.65,0,0,0-.61-.36,6.54,6.54,0,0,1-.86-.5,6.82,6.82,0,0,0-1.2-.67c-.45-.19-.88-.42-1.34-.67L89,226.7a6.59,6.59,0,0,1-.86-.49,28.84,28.84,0,0,0-4-2.21l-.28-.12a3.09,3.09,0,0,1-.52-.27,16.57,16.57,0,0,0-1.9-1.15q-.51-.27-1-.57a11.61,11.61,0,0,0-1.63-.79l-.36-.15a2.16,2.16,0,0,1-.53-.27,9,9,0,0,0-2.57-1.53,14.4,14.4,0,0,1-2-1l-.53-.31c-.63-.36-1.27-.71-1.91-1.06l-1.26-.7-.24-.11a14.34,14.34,0,0,0-2.11-1.24c-.4-.2-.8-.41-1.23-.66a3.28,3.28,0,0,0-.75-.36,2.76,2.76,0,0,1-1.13-.55,2.06,2.06,0,0,0-.67-.38l-.25-.11a.71.71,0,0,1-.18-.08,19.55,19.55,0,0,0-1.85-1.07c-.45-.24-.89-.47-1.32-.74l-.21-.12A10.72,10.72,0,0,0,57,209.26l-2-1.1-.47-.27c-.31-.18-.61-.37-.93-.53-.49-.24-1-.53-1.46-.84s-.8-.5-1.23-.73a5.67,5.67,0,0,0-1.38-.59,1.22,1.22,0,0,1-.39-.17l-.22-.16a6.32,6.32,0,0,0-1.92-1,11.12,11.12,0,0,0-1.76-1.1c-.34-.18-.68-.36-1-.57s-.63-.38-1-.57l-.54-.32a15.22,15.22,0,0,0-1.91-.93l-.2-.08a7.05,7.05,0,0,1-.73-.36c-.61-.36-1.23-.7-1.85-1l-1.16-.66c-1-.57-2-1.14-3-1.73a3.35,3.35,0,0,1-.44-.36,2.28,2.28,0,0,0-1.19-.64,2,2,0,0,1-1-.45,2.9,2.9,0,0,0-1.49-.64,2.15,2.15,0,0,1-.72-.34c-.6-.38-1.21-.74-1.82-1.09l-1-.61c-.86-.51-1.75-1-2.61-1.42-.57-.3-1.14-.59-1.7-.9l-.53-.31-.4-.24-.51-.32a7,7,0,0,0-1.66-.85c-.36-.21-.73-.4-1.1-.59a13.62,13.62,0,0,1-1.6-.91,3.16,3.16,0,0,0-1.49-.58s-.09,0-.23-.14l-.35-.34a2.68,2.68,0,0,0-1.55-.74s-.08,0-.17-.11a2.76,2.76,0,0,0-1.5-.84,1.39,1.39,0,0,1-.58-.28,5.21,5.21,0,0,0-.55-.36l-.16-.11a14.08,14.08,0,0,1-3.52-2.79c-.12-.12-.22-.25-.33-.38a33.15,33.15,0,0,1-2.33-3.39,5.71,5.71,0,0,1-.35-.7,7.27,7.27,0,0,0-.48-1,.66.66,0,0,1,0-.17A8.14,8.14,0,0,0,2,172.69a1.9,1.9,0,0,1-.1-.81c0-.31,0-.63,0-.95L2,168.44a3,3,0,0,1,.13-.95,2.61,2.61,0,0,0,.19-1,7.62,7.62,0,0,1,.85-2.78l.06-.12a2.58,2.58,0,0,1,.19-.37c.11-.22.22-.43.31-.65A4.72,4.72,0,0,1,4.78,161c.48-.48.9-1,1.31-1.49l.39-.48a1.62,1.62,0,0,1,.49-.45A5.85,5.85,0,0,0,8.88,157a1.48,1.48,0,0,1,.78-.52,4.74,4.74,0,0,0,1.45-.65l.17-.12a8.91,8.91,0,0,1,.93-.57,5.79,5.79,0,0,1,.68-.29l.4-.15.19-.09a.84.84,0,0,1,.14-.06,3.46,3.46,0,0,0,1.15-.63,2,2,0,0,1,.38-.26,4.52,4.52,0,0,1,.5-.23,7.55,7.55,0,0,0,.81-.39,5.75,5.75,0,0,0,.56-.41,2.54,2.54,0,0,1,.37-.27,5.38,5.38,0,0,0,.66-.38,2.22,2.22,0,0,1,.49-.27,6,6,0,0,0,1.07-.56l.33-.2,1.21-.7a4.37,4.37,0,0,0,1.72-.89l.28-.2a3,3,0,0,1,.44-.22l.26-.12.43-.19.89-.43.42-.22a5.66,5.66,0,0,0,1.46-.93l.69-.42c.62-.38,1.24-.76,1.87-1.11a4.39,4.39,0,0,1,.63-.26,6.06,6.06,0,0,0,1-.42c.18-.11.35-.23.52-.35a2,2,0,0,1,.59-.34,2.24,2.24,0,0,0,.64-.31l.12-.08.3-.17a4.51,4.51,0,0,1,.54-.27,6.81,6.81,0,0,0,1.62-.88,7.07,7.07,0,0,1,.94-.56c.46-.23.91-.48,1.36-.72a24.39,24.39,0,0,1,2.62-1.29,1.45,1.45,0,0,0,.35-.18,17.21,17.21,0,0,1,2.43-1.37,21.84,21.84,0,0,0,2.56-1.44c.78-.39,1.53-.83,2.26-1.26a30.34,30.34,0,0,1,2.73-1.47l.17-.09a7.74,7.74,0,0,1,.87-.47A7.24,7.24,0,0,0,53,133l.15-.06.27-.11.17-.07a4.83,4.83,0,0,0,.64-.33l1.31-.8,1.23-.76c.33-.2.67-.39,1-.58l.33-.18a1.38,1.38,0,0,1,.6-.22,2.13,2.13,0,0,0,1.61-.82,5,5,0,0,0,1.05-.58,3.1,3.1,0,0,1,.69-.39,6.61,6.61,0,0,0,1.48-.74,6.31,6.31,0,0,1,1.22-.61,3.41,3.41,0,0,0,1.14-.64,9.73,9.73,0,0,1,2.38-1.39l.41-.19a2.93,2.93,0,0,0,1.24-.92.34.34,0,0,1,.36-.19,1.63,1.63,0,0,0,1.12-.39,4.38,4.38,0,0,1,.75-.46,5.48,5.48,0,0,0,1.27-.86,3.24,3.24,0,0,1,1.27-.64,6.39,6.39,0,0,0,1.48-.75l.24-.15a6.18,6.18,0,0,1,1.7-.89l.24-.1c.42-.24.86-.47,1.3-.7l.64-.34a1,1,0,0,0-.12-.16,7.45,7.45,0,0,1-1.1-1.46l-.34.19c-.43.22-.86.44-1.28.68a8.54,8.54,0,0,0-2.13,1.1l-.23.15a5,5,0,0,1-1,.53,4.9,4.9,0,0,0-2,1.11,3.73,3.73,0,0,1-.82.52,6.48,6.48,0,0,0-1,.62,2.32,2.32,0,0,0-1.92,1,1.47,1.47,0,0,1-.51.3l-.35.16a11.42,11.42,0,0,0-2.86,1.7,1.89,1.89,0,0,1-.52.26,9.31,9.31,0,0,0-1.58.79,4.88,4.88,0,0,1-1,.54,4.59,4.59,0,0,0-1.19.63,3.05,3.05,0,0,1-.7.4,1.41,1.41,0,0,0-.76.56.19.19,0,0,1-.19.1,3.31,3.31,0,0,0-1.47.47l-.32.18c-.36.2-.72.4-1.07.62l-1.26.77c-.42.27-.85.53-1.29.79-.13.08-.27.14-.41.21l-.19.08-.13.05a2.09,2.09,0,0,0-.6.3,6.86,6.86,0,0,1-.9.49,10.16,10.16,0,0,0-1.07.57,28.7,28.7,0,0,0-2.85,1.54c-.75.44-1.46.85-2.2,1.22l-.13.08a20.72,20.72,0,0,1-2.38,1.33,19.8,19.8,0,0,0-2.63,1.49,26.35,26.35,0,0,0-2.82,1.38c-.43.24-.87.47-1.31.69a9,9,0,0,0-1.21.73,5.12,5.12,0,0,1-1.13.62,5.75,5.75,0,0,0-.86.42l-.25.14-.25.16-.08.06a3.7,3.7,0,0,0-1.24.65l-.35.23a4,4,0,0,1-.65.28,5.79,5.79,0,0,0-.91.39c-.67.36-1.31.76-2,1.15l-.78.48-.19.15a3.57,3.57,0,0,1-1,.64l-.48.25c-.25.13-.5.25-.76.36l-.47.22-.21.09a4.84,4.84,0,0,0-.77.41l-.32.23a2.32,2.32,0,0,1-1,.55l-.19,0-1.53.89-.38.23a4,4,0,0,1-.69.37,4.27,4.27,0,0,0-.91.48,2.36,2.36,0,0,1-.4.24,3.58,3.58,0,0,0-.8.54,2.26,2.26,0,0,1-.31.23,6.36,6.36,0,0,1-.59.28l-.66.3a6.27,6.27,0,0,0-.63.42,1.77,1.77,0,0,1-.5.32,2.26,2.26,0,0,0-.43.17l-.46.18c-.3.12-.61.23-.9.38a11,11,0,0,0-1.11.69l-.17.11a2.5,2.5,0,0,1-.82.38,3.5,3.5,0,0,0-1.82,1.16,3.72,3.72,0,0,1-1.25,1,3.31,3.31,0,0,0-1.16,1l-.41.49c-.4.48-.77.94-1.18,1.35a6.68,6.68,0,0,0-1.49,2.29,3.88,3.88,0,0,1-.22.46c-.09.16-.17.32-.25.49l0,.12a8.89,8.89,0,0,0-1,3.55,1,1,0,0,1-.06.26A4.75,4.75,0,0,0,0,168.37l1,0-1,.06,0,.68H-.09v1.46a10.28,10.28,0,0,1,0,1.11,3.79,3.79,0,0,0,.22,1.66,6,6,0,0,1,.43,1.7,2.25,2.25,0,0,0,.32,1.06,6.21,6.21,0,0,1,.36.73,9.28,9.28,0,0,0,.47,1,37.47,37.47,0,0,0,2.47,3.58,5.39,5.39,0,0,0,.5.56A15.65,15.65,0,0,0,8.51,185l.19.12a3.62,3.62,0,0,1,.41.27,3.48,3.48,0,0,0,1.41.64.62.62,0,0,1,.38.22,2.19,2.19,0,0,0,1.45.75.67.67,0,0,1,.39.22l.32.31a2.38,2.38,0,0,0,1.43.69,1.19,1.19,0,0,1,.53.23,14.9,14.9,0,0,0,1.84,1.05c.37.19.74.39,1.1.6l.25.1a4.64,4.64,0,0,1,1.24.65l.59.36.36.22.6.35c.58.32,1.16.62,1.75.93.83.43,1.7.87,2.51,1.36l1.07.62c.58.34,1.17.67,1.74,1a3.63,3.63,0,0,0,1.56.64,1,1,0,0,1,.5.23,4,4,0,0,0,1.83.85s.07,0,.22.17a4.78,4.78,0,0,0,.75.59c1,.59,2,1.16,3,1.74l1.18.66,1.82,1a8.31,8.31,0,0,0,1,.46l.2.09a12.8,12.8,0,0,1,1.66.8l.58.34c.3.17.59.34.88.53s.75.44,1.14.65a8.77,8.77,0,0,1,1.46.9,1.61,1.61,0,0,0,.67.35,4.29,4.29,0,0,1,1.36.72l.23.17a3.45,3.45,0,0,0,1,.46,3.62,3.62,0,0,1,.9.4c.38.21.76.44,1.13.67s1,.64,1.6.93c.28.14.55.3.82.46l.51.29,2.06,1.16.22.09a9.22,9.22,0,0,1,2.33,1.16l.2.13c.47.29,1,.55,1.44.81a18.54,18.54,0,0,1,1.66.95,3.41,3.41,0,0,0,.57.29l.31.11a4.59,4.59,0,0,0,1.92,1,2.44,2.44,0,0,1,.33.18c.42.25.86.48,1.3.7a12.44,12.44,0,0,1,1.87,1.1,1.53,1.53,0,0,0,.41.22l1.29.71,1.86,1,.52.31A17,17,0,0,0,74.56,221a7.15,7.15,0,0,1,2,1.17,3.68,3.68,0,0,0,1.1.63L78,223a10.89,10.89,0,0,1,1.37.65l1.1.62a14.9,14.9,0,0,1,1.66,1,4.19,4.19,0,0,0,.93.49l.23.1a28.18,28.18,0,0,1,3.7,2.07,11.56,11.56,0,0,0,1,.6l.52.27c.48.26,1,.52,1.52.75a4.93,4.93,0,0,1,.87.5,7.86,7.86,0,0,0,1.16.66,1.48,1.48,0,0,1,.25.15l.29.2.11.07a2.16,2.16,0,0,0,.73.34,5.56,5.56,0,0,1,1.64.84,5,5,0,0,0,1.58.75,1.7,1.7,0,0,1,.32.17l.11.06a1.88,1.88,0,0,1,.23.16,3.7,3.7,0,0,0,.67.4,3.71,3.71,0,0,1,.86.5,3.69,3.69,0,0,0,1.7.81,1.3,1.3,0,0,1,.38.24,11.28,11.28,0,0,0,3.16,1.72,7,7,0,0,1,1.32.72c.16.1.31.21.46.32a5.42,5.42,0,0,0,1.81.94l0,0a2.22,2.22,0,0,0,.27.19l.1.08a2.67,2.67,0,0,0,.68.35,3.5,3.5,0,0,1,1.27.71,3.74,3.74,0,0,0,.85.51l.18.08.45.2.4.19.55.28a13.85,13.85,0,0,1,1.44.77,9.08,9.08,0,0,0,1,.54,4.49,4.49,0,0,1,1.06.62,1.85,1.85,0,0,0,.61.33,4.26,4.26,0,0,1,1.75,1,1.69,1.69,0,0,0,.65.41,2.87,2.87,0,0,1,.81.45,1.74,1.74,0,0,0,1,.37,1,1,0,0,1,.64.29,6.89,6.89,0,0,0,1.82,1.13l.61.29a9.78,9.78,0,0,1,1.12.58l.44.27a2.53,2.53,0,0,1,.58.38,1.76,1.76,0,0,0,1,.5,2,2,0,0,1,.64.31l.12.07.53.29c.26.15.52.28.76.45l.08.06a4.33,4.33,0,0,0,1.45.77l.13.09a8.93,8.93,0,0,0,.8.57,2.75,2.75,0,0,0,.81.29.88.88,0,0,1,.26.09,3.69,3.69,0,0,0,.34.25l.73.42c1.32.68,2.38,1.28,3.35,1.88a10.77,10.77,0,0,0,2,1,4.12,4.12,0,0,1,1,.51,8.26,8.26,0,0,0,1,.56l.35.19.31.16c.15.08.3.16.44.25a5.34,5.34,0,0,0,1.42.64c.25.07.51.16.76.25l.54.19a8.43,8.43,0,0,0,2.43.52,2.26,2.26,0,0,1,1.07.26,2.83,2.83,0,0,0,1.33.3H150a5.27,5.27,0,0,0,1-.17,3.09,3.09,0,0,1,.77-.12,2,2,0,0,0,.89-.22,1.59,1.59,0,0,1,.65-.1,4.42,4.42,0,0,0,1.77-.29l.49-.17a7.12,7.12,0,0,0,1.4-.59c.22-.12.46-.23.69-.33a7.61,7.61,0,0,0,1.19-.63c.23-.15.47-.28.72-.41a8.29,8.29,0,0,0,.91-.53,10.44,10.44,0,0,1,1.11-.61l.67-.35a2.22,2.22,0,0,0,.56-.37,3.44,3.44,0,0,1,1.22-.67l.23-.09a6.61,6.61,0,0,0,.84-.43,7.79,7.79,0,0,1,.76-.39,7.44,7.44,0,0,0,1.27-.71,2.59,2.59,0,0,0,1.3-.65,3.63,3.63,0,0,1,1.38-.8,3.74,3.74,0,0,0,1.65-.92,2.11,2.11,0,0,1,.37-.15,3.71,3.71,0,0,0,.81-.37A.49.49,0,0,0,172.54,249.83Z"/></svg>