<svg xmlns="http://www.w3.org/2000/svg" viewBox="0 0 262.8 265.4"><path d="M70.5,74.9c-0.8,0.5-1.6,1-2.3,1.6c-16,11.1-28.7,25.9-37,43.2h21.6C53.8,102.8,60.3,87.3,70.5,74.9z"/><path d="M105.3,140.6H116v-10.2h10.1v10.2h10.6v-10.2h10.1v10.2h10.6v-10.2h22.2c0.2-1.7,0.3-3.5,0.3-5.3c0-1.8-0.1-3.6-0.3-5.3
h-22.2v-10.2h-10.6v10.2h-10.1v-10.2h-10.6v10.2H116v-10.2h-10.6v10.2H83.2c-0.2,1.7-0.3,3.5-0.3,5.3c0,1.8,0.1,3.6,0.3,5.3h22.2
V140.6z"/><path d="M262.7,118.1V44.9l-2.3-1.6C257.8,41.6,195.6,0,131.4,0C67.1,0,5,41.6,2.3,43.3L0,44.9v73.2c0,29.1,0,48.4,14.3,73.2
c19.1,33.2,111.2,71.7,115.1,73.3l2,0.8l2-0.8c3.9-1.6,96-40.1,115.1-73.3C262.8,166.5,262.8,147.3,262.7,118.1z M239.3,186
c-7,12.2-28.1,27.9-61,45.4c-21,11.2-40.7,19.8-46.9,22.5c-6.2-2.7-25.9-11.3-46.8-22.4c-32.9-17.5-54-33.3-61.1-45.5
c-12.9-22.3-12.8-38.5-12.8-67.9V50.6c11.8-7.5,66.5-40,120.8-40c54.2,0,108.9,32.5,120.8,40v67.5
C252.1,147.5,252.2,163.7,239.3,186z"/><path d="M31.1,130.4c8.4,17.3,21,32.2,37,43.3c0.8,0.5,1.6,1.1,2.4,1.6c-10.2-12.4-16.7-27.9-17.9-44.8H31.1z"/><path d="M131.4,76.6c24.9,0,45.5,18.9,48.2,43.2h19.8c-2.7-35.2-32.2-62.9-68-62.9s-65.3,27.8-68,62.9h19.8
C85.8,95.5,106.4,76.6,131.4,76.6z"/><path d="M231.6,119.7c-8.4-17.3-21-32.2-37-43.2c-0.8-0.5-1.6-1.1-2.4-1.6c10.2,12.4,16.7,27.9,17.9,44.8H231.6z"/>
<path d="M192.2,175.2c0.8-0.5,1.6-1,2.4-1.6c16-11.1,28.7-25.9,37-43.3H210C208.9,147.3,202.4,162.8,192.2,175.2z"/><path d="M179.6,130.4c-2.7,24.2-23.3,43.2-48.2,43.2s-45.5-18.9-48.2-43.2H63.4c2.7,35.2,32.2,62.9,68,62.9s65.3-27.8,68-62.9
H179.6z"/></svg>