<svg xmlns="http://www.w3.org/2000/svg" viewBox="0 0 300 300"><path d="M105.6,116.9,68.3,86.1V69.6l3.2,2.7,39.4,32,1.2.4H120ZM121,229.7l-1.2-1-3.6-7.1-7.1-1.9-1.3-1-3.5-7-7.2-1.9-1.2-1.1-.3-.5v6.9l37.5,31.5V235.8l-5-4.2Zm-17.3-22.3V196.1l-5-10-.2-.5-4.4-23-3.5,26.6,4.9,9.9,3.5,7.1ZM137,122.2l11,9.3V83.6l-11-9.3Zm29.2-53.6,13.7,11.5,4.4-3.9L163.7,59.5h-8.3Zm-21.6-9.1h-8.4L115.7,76.2l4.4,3.9,13.7-11.5Zm-29,158V204.2l-7.5,6.3,2.8,5.7ZM102.5,32.9,91.6,24H71.7L92.5,41.1ZM163,74.3l-11,9.3v47.9l11-9.3ZM150,19.5l6.7-5.7,2.9-2.3H140.3l2.9,2.3Zm9.6,52.6,2.3-2L150,60.1l-.3.3-9.3,7.8-2.3,1.9,2.3,2,9.6,8Zm72.1,14V69.6l-9.9,8.1-32.7,26.6-1.2.4H180l14.4,12.2ZM202.8,209.8l-7.1,1.9-3.6,7.1-1.2,1-7.1,1.9-3.6,7.1-1.2,1-7.6,2-4.5,3.8v11l37.5-31.4v-7l-.3.6Zm-1.3-24.2-.2.5-5,10.1v11.3l4.7-1.3,3.5-7.1,4.9-9.9-3.5-26.5ZM208.4,24l-10.9,8.9,10,8.2L228.3,24ZM174.2,199.5l-9-7.5v14.4l-9.3-7.8v11.8l-6-5-5.8,4.7V198.2l-9.8,8.2V192.3l-8.4,7v9l-5.7-4.7V193.2l9.6-8.9v-21l-4.3,8.8-21.7-16.3,3.7-35.3L133,98.8v24.7l17,14.8,17-14.6V99l25.5,21.7,3.7,35.3-21.7,16.3-4.3-8.8v21.8l9.6,8.1v10.4l-5.6,4.7Zm-30.7-49.1L115.3,126l-5.2,24.4Zm11.6,15-5.1-9.3-5.1,9.3,5.1,28.8Zm34.9-15L184.8,126l-28.2,24.4Zm-17.6,77.1,4.7-1.3,2.8-5.6-7.5-6.4Zm-12.5-12.9-3.2,1.5-4.7-3.9v30.9h-4V212l-4.7,3.8-3.2-1.6v-7.5l-3.1,2.6v68.2l13,10.9,13-11V209.7l-3.1-2.6Zm-32.3,12.9V214.2l-7.6,6.3,2.9,5.7ZM189,216.2l2.9-5.7-7.6-6.3v13.3ZM34.5,158.5h4.2v-17H34.5Zm-20.3-12h4.2v-5H14.2Zm0,12h4.2v-5.6H14.2Zm226.7-10.8h4.2v-6.2h-4.2Zm40.6,0h4.2v-6.2h-4.2Zm-20.3,10.8h4.2v-17h-4.2Zm38.3-22.2v16.6l-2.2,2.2-4.2,4.2-2.2,2.2h-2v10.8H218.8l2.1,15.9.2,1.1-.2,1.1-.2,1.1-.2,1.1-.5,1-4.2,8.4.1,13.8v1.7l-.7,1.5-.7,1.5-.7,1.5-1.3,1.1-18.6,15.7v.1l-1.3,1.1-18,15.2v24.7l-.7,1.5-.7,1.5-.7,1.5-1.3,1.1-15,12.6-2.1,1.8H146l-2.1-1.8-15-12.6-1.3-1.1-.7-1.5-.7-1.5-.7-1.5V255.2l-8.8-7.4-9.2-7.6-1.3-1.1-.1-.1L87.4,223.3l-1.3-1.1-.7-1.5-.7-1.5-.7-1.5V216l.1-13.8-4.2-8.4-.5-1-.2-1.1-.2-1.1-.2-1.1.2-1.1,2.2-16.1H69.9l-2.2-2.2-.7-.7-.7.7-2.2,2.2H49.4l-2.2-2.2-.7-.7-.7.7-2.2,2.2H28.9l-2.2-2.2-.7-.7-.7.7-2.2,2.2H.5V127.8H23.7l2.2,2.2.7.7.7-.7,2.2-2.2H44l2.2,2.2.7.7.7-.7,2.2-2.2H64.5l2.2,2.2.7.7.7-.7,2.2-2.2H84.6l2.2,2.2,4.2,4.2,2.2,2.2v6.3h.5l2-19L59.5,93.9l-2.8-2.3V62l2.7-2.3L77.8,43.9,56,25.9,39.7,12.4H95L97,14l14.4,11.3,3,2.3V62.8l16.3-13.1,1.7-1.4V19.9l-7.7-6.5L108.8,0h82.3L175.2,13.4l-7.7,6.5V48.3l1.7,1.4,16.4,13-.1-6.4-.7-23.1-.1-3.7,2.8-2.4,15.3-12.9,2.1-1.8h55.4L243.9,25.8l-21.8,18,18.3,15.9L243,62V91l-2.7,2.3-36.1,30.1.5,4.3h45.7l2.2,2.2.7.7.7-.7,2.2-2.2h35l2.2,2.2,4.2,4.2ZM24.9,139.4l-4.2-4.2H7.9v29.7H20.6l4.2-4.2V153l-2.1-3.3,2.1-3.2v-7.1Zm20.2,0-4.2-4.2H32.4l-4.2,4.2v21.2l4.2,4.2h8.5l4.2-4.2Zm20.3,0-4.2-4.2H52.7l-4.2,4.2v6.3l10.6,10.5v2.3H54.9v-3.2H48.5v5.3l4.2,4.2h8.5l4.2-4.2v-6.9L54.8,143.2v-1.7H59v3.2h6.4ZM73,164.9h8.5l4.2-4.2v-6.9L75.1,143.3v-1.7h4.2v3.2h6.4v-5.3l-4.2-4.2H73l-4.2,4.2v6.3l10.6,10.5v2.3H75.2v-3.2H68.8v5.3Zm140.4,24.3-5.2-39.1-3.9-.1-4,8-4-37.7,39.3-32.7V65.4L210.5,43.7,239.2,20H207.7L192.4,32.9l.7,23.1,24.6,20.3L187.4,101H175.6l-8.4-7.2V74.4l12.9,11,10.4-9.2L164.6,55.6H160V16.4l10.4-8.8H129.7l10.4,8.8V55.6h-4.6L109.8,76.3l10.3,8.9L133,74.3V93.6l-8.4,7.2H112.8L82.5,76.1,106.9,56V31.3L92.3,20.1H60.8L89.5,43.8,64.3,65.5V88l39.4,32.2-3.9,37.7-4-7.9-3.9.1-5.3,39.1.2,1.1,5,10-.1,15.6.7,1.5,20,16.8v.1l9.2,7.6,11.5,9.7v26.6l.7,1.5,15,12.6h2.5l15-12.6.7-1.5V251.7l20.7-17.4v-.1l19.9-16.8.7-1.5-.1-15.6,5-10Zm17.8-49.8-4.2-4.2H214.3v29.7H227l4.2-4.2Zm20.3,0-4.2-4.2H234.6v29.7H241V154h1.2l2.8,10.8h6.6l-3.3-10.9,3.3-4.2V139.4Zm20.3,0-4.2-4.2h-8.5l-4.2,4.2v21.2l4.2,4.2h8.5l4.2-4.2Zm20.3,0-4.2-4.2H275.2v29.7h6.4V154H288l4.2-4.2V139.4Zm-71.5,19.1h4.2v-17h-4.2Z"/></svg>