<svg viewBox="0 0 321 321" xmlns="http://www.w3.org/2000/svg">
<path d="M318.9135,158.278672 L320,161.014853 L318.9135,163.751034 C306.49136,195.033044 285.2479,221.721154 257.4812,240.932775 C229.05094,260.602724 195.6885,271 161,271 C126.31256,271 92.95012,260.602724 64.5188,240.932775 C36.75316,221.721154 15.5097,195.033044 3.08756,163.751034 L2,161.014853 L3.08756,158.278672 C15.51076,126.995602 36.75316,100.302187 64.5188,81.0831396 C92.95224,61.402581 126.31574,51 161,51 C195.68532,51 229.04882,61.402581 257.4812,81.0831396 C285.2479,100.302187 306.48924,126.995602 318.9135,158.278672 Z M161,256.183881 C210.94402,256.183881 251.99146,217.441296 255.78414,168.40859 L228.1616,168.40859 C228.42766,165.973717 228.575,163.503834 228.575,161 C228.575,158.496166 228.42766,156.026283 228.1616,153.59141 L255.78414,153.59141 C251.99146,104.559765 210.94402,65.8161187 161,65.8161187 C111.05704,65.8161187 70.0096,104.559765 66.21586,153.59141 L93.83946,153.59141 C93.5734,156.026283 93.42606,158.496166 93.42606,161 C93.42606,163.503834 93.5734,165.973717 93.83946,168.40859 L66.21586,168.40859 C70.0096,217.441296 111.05704,256.183881 161,256.183881 Z M249.06374,228.744621 C271.36296,213.316336 289.03104,192.599232 300.6868,168.40859 L270.63686,168.40859 C269.0564,192.064515 259.98492,213.699337 245.7629,230.937597 C246.86742,230.214032 247.97512,229.497893 249.06374,228.744621 Z M72.93732,228.744621 C74.03548,229.505319 75.15484,230.227824 76.2689,230.958816 C62.0331,213.715252 52.94254,192.077247 51.36102,168.40859 L21.31426,168.40859 C32.97002,192.599232 50.6381,213.316336 72.93732,228.744621 Z M72.93838,93.2691718 C50.6487,108.698518 32.98592,129.411377 21.32804,153.59141 L51.36314,153.59141 C52.94254,129.953521 61.99918,108.33143 76.20424,91.0995361 C75.1135,91.815675 74.01534,92.5233264 72.93838,93.2691718 Z M249.06268,93.2691718 C247.9677,92.5116559 246.8547,91.7923342 245.74594,91.0645248 C259.9722,108.304906 269.05534,129.931241 270.6358,153.59141 L300.67302,153.59141 C289.01514,129.411377 271.35236,108.698518 249.06268,93.2691718 Z M124.716624,139.31839 L124.716624,153.591304 L93.839884,153.591304 C97.539284,119.771511 126.241964,93.3656118 161.000424,93.3656118 C195.758884,93.3656118 224.461564,119.771511 228.160964,153.591304 L197.284224,153.591304 L197.284224,139.31839 L182.481324,139.31839 L182.481324,153.591304 L168.401344,153.591304 L168.401344,139.31839 L153.599504,139.31839 L153.599504,153.591304 L139.519524,153.591304 L139.519524,139.31839 L124.716624,139.31839 Z M161.000424,228.633752 C126.241964,228.633752 97.539284,202.227853 93.839884,168.408059 L124.716624,168.408059 L124.716624,182.680973 L139.519524,182.680973 L139.519524,168.408059 L153.599504,168.408059 L153.599504,182.680973 L168.401344,182.680973 L168.401344,168.408059 L182.481324,168.408059 L182.481324,182.680973 L197.284224,182.680973 L197.284224,168.408059 L228.160964,168.408059 C224.461564,202.227853 195.758884,228.633752 161.000424,228.633752 Z"></path>
</svg>