<svg xmlns="http://www.w3.org/2000/svg" viewBox="0 0 300 300"><polygon points="144.64 166.25 150 196.59 155.36 166.25 150 156.44 144.64 166.25"/><polygon points="107.97 150.38 143.05 150.38 113.4 124.69 107.97 150.38"/><polygon points="186.6 124.69 156.95 150.38 192.03 150.38 186.6 124.69"/><path d="M243.92,13.15l-33.19,0L194.63,26.74l.75,24.3,25.7,21.21-31.93,26H176.7l-8.88-7.53V70.33l13.63,11.61,11-9.67L165.21,50.59h-4.81V9.27l11-9.27H128.57l11,9.27V50.59h-4.81L107.67,72.41l10.88,9.38,13.63-11.46V90.68l-8.88,7.53H110.86l-31.93-26L104.62,51V25L89.27,13.17l-33.19,0,30.25,25L59.79,61V84.73l41.35,34L97,158.46l-4.18-8.35-4.07.12L83.22,191.4l.2,1.2,5.26,10.54-.14,16.4.74,1.6,21.05,17.66.05.11,9.64,8,12.15,10.2v28l.74,1.58L148.67,300h2.66l15.76-13.24.74-1.58v-27.9l21.8-18.37.05-.11,21-17.66.74-1.6-.14-16.4,5.26-10.54.2-1.2-5.49-41.18-4.07-.12L203,158.5l-4.19-39.74,41.35-34.39V61L213.68,38.11ZM67.6,17.3H88.53L100,26.66,89.45,35.34Zm96.87,37.42,21.68,17.61-4.67,4.09-14.4-12.1h0l-11.42-9.59ZM150,81.84l13.69-11.51v50.42L150,132.26l-13.69-11.51V70.33ZM137.45,65.9l2.46-2.07,9.76-8.2.33-.28L162.55,65.9,160.09,68,150,76.44,139.91,68ZM160.09,4.13l-3,2.49-7.13,6-7.13-6h0l-3-2.49ZM118.51,76.42l-4.67-4.09,21.68-17.61h8.8l-11.42,9.59h0ZM63.92,82.69V65.38l3.4,2.76,41.5,33.74,1.3.46h8.3l-15.14,12.84Zm28.68,119-5.2-10.41,3.73-28,4.67,24.2.18.53,5.27,10.54v11.91l-4.93-1.33-3.72-7.44Zm39.58,50L92.68,218.6l.06-7.33.29.59,1.31,1.07,7.53,2,3.72,7.44,1.31,1.07,7.53,2,3.72,7.44,1.31,1.07,7.52,2,5.2,4.41Zm-26.3-38,7.92-6.65v14l-4.93-1.33Zm12.56,10.55,7.92-6.65v14l-4.93-1.33Zm45.25,36.46v23.45L150,295.72l-13.69-11.51V212.49l3.3-2.77v7.93l3.36,1.61,6.89-5.55,7.16,5.93,3.38-1.59v-7.91l3.3,2.77ZM166,194.24l0,15.23-9.76-8.2v12.39l-6.37-5.27-6.16,5,0-12.5-10.28,8.64V194.7l-8.88,7.41v9.43l-6-5v-11l10.09-9.34V164.07l-4.55,9.24-22.81-17.18,3.92-37.21,26.9-22.83v26L150,137.66l17.82-15.59v-26l26.9,22.83,3.92,37.21-22.81,17.18-4.55-9.24v12.67l0,10.32,10.06,8.55v11l-5.9,5v-9.42Zm28.07,19.5-3,6-4.93,1.33v-14Zm-12.56,10.55-3,6-4.93,1.33v-14Zm-13.74,27.44V240.17l4.74-4,8-2.16,1.31-1.07,3.72-7.44,7.53-2,1.31-1.07,3.72-7.44,7.53-2,1.31-1.07.29-.59.06,7.33ZM204,188.06l.18-.53,4.67-24.2,3.73,28-5.2,10.41h0l-3.72,7.44-4.93,1.33V198.6ZM236.08,65.38V82.69l-39.37,32.49-15.14-12.84h8.3l1.3-.46,34.46-28ZM200,26.66l11.51-9.35H232.4l-21.85,18Z"/></svg>