<svg xmlns="http://www.w3.org/2000/svg" viewBox="0 0 300 300"><path d="M247.84,36A77.52,77.52,0,0,0,212.35,11,195,195,0,0,0,150,1.16,195,195,0,0,0,87.65,11,77.51,77.51,0,0,0,52.16,36a80.35,80.35,0,0,0-17,40.36C33.24,91.33,31,116.27,31,150s2.24,58.68,4.12,73.66a80.36,80.36,0,0,0,17,40.35A77.52,77.52,0,0,0,87.65,289,195,195,0,0,0,150,298.84,195,195,0,0,0,212.35,289,77.5,77.5,0,0,0,247.84,264a80.37,80.37,0,0,0,17-40.36c1.88-15,4.12-39.92,4.12-73.66s-2.24-58.68-4.12-73.66A80.34,80.34,0,0,0,247.84,36ZM172.47,89.62V210.38a1.31,1.31,0,0,0,1.31,1.31h28a1.31,1.31,0,0,0,1.31-1.31V166.65a1.31,1.31,0,0,1,1.31-1.31h43.46a546.47,546.47,0,0,1-3.79,55.72,59.47,59.47,0,0,1-12.59,29.87,56.62,56.62,0,0,1-25.92,18.24A173.84,173.84,0,0,1,150,277.93a173.85,173.85,0,0,1-55.61-8.77,56.64,56.64,0,0,1-25.93-18.24,59.46,59.46,0,0,1-12.59-29.86,546.18,546.18,0,0,1-3.79-55.72H95.54a1.31,1.31,0,0,1,1.31,1.31v43.73a1.31,1.31,0,0,0,1.31,1.31h28a1.31,1.31,0,0,0,1.31-1.31V89.62a1.31,1.31,0,0,0-1.31-1.31h-28a1.31,1.31,0,0,0-1.31,1.31v43.73a1.31,1.31,0,0,1-1.31,1.31H52.08a546.5,546.5,0,0,1,3.79-55.72A59.45,59.45,0,0,1,68.46,49.08,56.64,56.64,0,0,1,94.38,30.84,173.84,173.84,0,0,1,150,22.07a173.87,173.87,0,0,1,55.62,8.77,56.64,56.64,0,0,1,25.92,18.24,59.44,59.44,0,0,1,12.59,29.86,546.37,546.37,0,0,1,3.79,55.72H204.46a1.31,1.31,0,0,1-1.31-1.31V89.62a1.31,1.31,0,0,0-1.31-1.31h-28A1.31,1.31,0,0,0,172.47,89.62Z"/></svg>