<svg xmlns="http://www.w3.org/2000/svg" viewBox="0 0 100 100"><defs><style>.a{fill-rule:evenodd;}</style></defs><title>job-truman</title><path class="a" d="M38.71,50.52c.35.48.38.89-.21,1.27-1.93,1.23-3.84,2.49-5.75,3.75-.56.37-.91.15-1.1-.37-1.25-3.43.74-6.13,3.94-6.32A3.67,3.67,0,0,1,38.71,50.52Zm28.43-4.23c4.92.37,9.84.7,14.77,1a.94.94,0,0,1,.88.89q0,.89,0,1.8A32.83,32.83,0,0,1,51,82.82H49a32.83,32.83,0,0,1-28.6-18.6.61.61,0,0,1,.46-.87,25.29,25.29,0,0,0,8.29-2.66,1.82,1.82,0,0,1,2.41.27,9.07,9.07,0,0,0,9.7,1.66c3.37-1.26,4.93-4,5.44-7.34.23-1.5.11-3.05.28-4.57a2.63,2.63,0,0,1,.73-1.7c1.87-1.41,3.85-2.69,5.8-4l.28.37c1.06,1.32,2.12,1.23,3.09-.11a2.44,2.44,0,0,1,1.45-.76c.9-.17,1.95-.19,2.43.76s-.36,1.55-.93,2.14c-1.63,1.67-3.41,3.2-4.9,5A27.59,27.59,0,0,0,51.09,58c-1.18,2.47.12,4.45,2.79,5a5.64,5.64,0,0,0,4.26-1A24.34,24.34,0,0,0,65.84,54a3.35,3.35,0,0,0,.56-1.63,2.16,2.16,0,0,0-.55-1.57c-.6-.47-1.26,0-1.66.54a13.7,13.7,0,0,0-1.06,1.78,14.85,14.85,0,0,1-4.8,5.58,5,5,0,0,1-1.88.81c-1.17.24-1.68-.43-1.18-1.51a11.26,11.26,0,0,1,1.26-1.91,49.14,49.14,0,0,1,7.56-8.6A4.14,4.14,0,0,1,67.13,46.28ZM49.56,38.93A2.61,2.61,0,0,1,52,37.51a1.38,1.38,0,0,1,1.41,1.83,4.7,4.7,0,0,1-.93,1.94c-1.44,1.56-3,3-4.51,4.5l-.4-.27A15.63,15.63,0,0,1,49.56,38.93ZM34.21,59c-.62-.28-.59-.75,0-1.14,1.79-1.18,3.57-2.38,5.37-3.54a1.34,1.34,0,0,1,.92-.13c1.35.29,1.88-.08,2.25-1.41a8.21,8.21,0,0,1,.9-1.66l.34.18c1,4.8-2.28,9-6.85,8.69A9.17,9.17,0,0,1,34.21,59Zm-11.6,1a16.88,16.88,0,0,1-3.34.24.61.61,0,0,1-.58-.42A32.83,32.83,0,1,1,82.12,43.24a.92.92,0,0,1-.92,1.11h0c-3.71-.08-7.43-.14-11.14-.29a17,17,0,0,1-2.82-.63c.53-.59.87-.91,1.14-1.28,1-1.38,2-2.76,2.89-4.2a1.4,1.4,0,0,0-.19-1.35,1.62,1.62,0,0,0-1.39,0,8,8,0,0,0-3.46,3.08,14.21,14.21,0,0,1-1.71,2.26,2.25,2.25,0,0,1-1.6.72c-2.06-.36-4.08-.9-6.12-1.37.5-2.14.49-4.1-1.24-5.55s-3.85-1.37-5.87-.46a7,7,0,0,0-3.84,4.42c-.68,2.21-1,4.53-1.47,6.8a2.65,2.65,0,0,1-.46,1.29,29.23,29.23,0,0,1-2.36,1.93L41,49a6.74,6.74,0,0,0-8.87-1.92,7.34,7.34,0,0,0-3.36,9.21c.35,1,.18,1.52-.75,1.86A38.37,38.37,0,0,1,22.61,60Z"/></svg>