<svg xmlns="http://www.w3.org/2000/svg" viewBox="0 0 300 300"><path d="M185,131.77l16.6,13.37a2.92,2.92,0,0,1-1.83,5.19h-88.7a2.92,2.92,0,0,1-1.84-5.18l33.22-26.86a2.92,2.92,0,0,1,4.76,2.27v2.83a1,1,0,0,0,1.59.75L161,114a2.92,2.92,0,0,1,4.78,2.25v3.64a1,1,0,0,0,1.59.75l12.1-10a2.92,2.92,0,0,1,4.78,2.25v17.33A1.94,1.94,0,0,0,185,131.77Zm-67.5,31.82a2.92,2.92,0,0,1-2.92-2.92v-.79a2.92,2.92,0,0,1,2.92-2.92h76a2.92,2.92,0,0,1,2.92,2.92v.79a2.92,2.92,0,0,1-2.92,2.92Zm15.79,13.17a2.92,2.92,0,0,1-2.92-2.92V173a2.92,2.92,0,0,1,2.92-2.92h44.4a2.92,2.92,0,0,1,2.92,2.92v.79a2.92,2.92,0,0,1-2.92,2.92Zm15.92,13.17a2.92,2.92,0,0,1-2.92-2.92v-.79a2.92,2.92,0,0,1,2.92-2.92h12.57a2.92,2.92,0,0,1,2.92,2.92V187a2.92,2.92,0,0,1-2.92,2.92ZM32,89.26a138.87,138.87,0,0,1,249.5,0A4.87,4.87,0,0,1,279,95.88l-54.77,22.74a4.89,4.89,0,0,1-6.15-2.2,70,70,0,0,0-122.62,0,4.89,4.89,0,0,1-6.15,2.2L34.53,95.88A4.86,4.86,0,0,1,32,89.26Zm242,.21a132.11,132.11,0,0,0-234.59,0,1,1,0,0,0,.5,1.35l49.6,20.59a1,1,0,0,0,1.2-.4,76.72,76.72,0,0,1,132,0,1,1,0,0,0,1.2.4l49.6-20.59A1,1,0,0,0,274.05,89.47Zm7.46,121.27a138.87,138.87,0,0,1-249.5,0,4.86,4.86,0,0,1,2.52-6.62l54.77-22.74a4.89,4.89,0,0,1,6.15,2.2,70,70,0,0,0,122.62,0,4.89,4.89,0,0,1,6.15-2.2L279,204.12A4.87,4.87,0,0,1,281.51,210.74Zm-242-.21a132.11,132.11,0,0,0,234.59,0,1,1,0,0,0-.5-1.35L224,188.58a1,1,0,0,0-1.2.4,76.72,76.72,0,0,1-132,0,1,1,0,0,0-1.2-.4L40,209.18A1,1,0,0,0,39.47,210.53Zm50.2-80.26a70.15,70.15,0,0,0,0,39.46,4.88,4.88,0,0,1-2.78,5.91L32.13,198.38a4.88,4.88,0,0,1-6.48-2.9,139,139,0,0,1,0-91,4.88,4.88,0,0,1,6.48-2.9l54.76,22.74A4.88,4.88,0,0,1,89.67,130.27ZM49.39,158.68h2.68c4.79,0,7.07-3.1,7.07-8.6s-2.46-8.75-7.32-8.75H49.39a.89.89,0,0,0-.89.89v15.57A.89.89,0,0,0,49.39,158.68Zm23.09,0H74a.89.89,0,0,0,.82-1.25l-2.4-5.4a.21.21,0,0,1,.08-.26,5.44,5.44,0,0,0,2.38-4.69c0-3.5-2.38-5.75-5.34-5.75H66a.89.89,0,0,0-.89.89v15.57a.89.89,0,0,0,.89.89h1.37a.89.89,0,0,0,.89-.89v-4.92a.21.21,0,0,1,.22-.21h1a.22.22,0,0,1,.2.14l2,5.31A.89.89,0,0,0,72.48,158.68Zm-38.92,0H37c3.57,0,5.66-1.79,5.66-5.18a4.1,4.1,0,0,0-3.25-4.36,3.14,3.14,0,0,0,2.48-3.35c0-2.75-2-4.46-5-4.46h-3.3a.89.89,0,0,0-.89.89v15.57A.89.89,0,0,0,33.56,158.68Zm34.87-14.36h1.07c1.29,0,2.23,1.09,2.23,2.75s-.92,2.75-2.23,2.75H68.43a.22.22,0,0,1-.22-.22v-5.07A.22.22,0,0,1,68.43,144.32ZM37,148.19H36a.22.22,0,0,1-.22-.22v-3.71A.22.22,0,0,1,36,144H37a1.86,1.86,0,0,1,2,2.08A1.84,1.84,0,0,1,37,148.19Zm14.85-3.84h.55c2.36,0,3.53,1.69,3.53,5.73,0,3.64-.72,5.55-3.28,5.55h-.8a.21.21,0,0,1-.22-.21V144.56A.22.22,0,0,1,51.86,144.35ZM36,150.77h1.07a2.33,2.33,0,0,1,2.33,2.58c0,1.64-.89,2.6-2.33,2.6H36a.22.22,0,0,1-.22-.22V151A.22.22,0,0,1,36,150.77Zm97.8-101.42a.49.49,0,0,0,0,.29l2.29,9a1,1,0,0,1-.7,1.18l-3.56.9a1,1,0,0,1-1.18-.7l-2.29-9a.49.49,0,0,0-.15-.25l-10.47-9.16a1,1,0,0,1,.4-1.67L122,39a1,1,0,0,1,.88.21l5.31,4.69,1.12,1a.48.48,0,0,0,.43.09.49.49,0,0,0,.32-.28c.13-.35.31-.83.51-1.4L133,36.62a1,1,0,0,1,.67-.61l3.84-1a1,1,0,0,1,1.15,1.28Zm20.94-15.22c4.21-.13,7.22,2.57,7.32,6a5.05,5.05,0,0,1-2.79,4.69,6.22,6.22,0,0,1,4.31,5.44c.12,3.93-2.37,7.19-8.19,7.37l-9.19.28a1,1,0,0,1-1-.94l-.66-21.55a1,1,0,0,1,.94-1Zm-.06,18.78c1.88-.06,3-1.2,3-2.75s-1.36-2.61-3.14-2.56l-3.45.11a.49.49,0,0,0-.47.5l.13,4.33a.49.49,0,0,0,.5.47Zm-.83-9.58a2.25,2.25,0,1,0-.14-4.43l-2.91.09a.49.49,0,0,0-.47.5l.11,3.46a.49.49,0,0,0,.5.47ZM173,55.21a.49.49,0,0,0-.52.22l-1.55,2.46a1,1,0,0,1-1,.43L166,57.48a1,1,0,0,1-.6-1.49l13-19.26a1,1,0,0,1,1-.41l3.94.85a1,1,0,0,1,.75.79L188,60.87A1,1,0,0,1,186.82,62l-3.88-.84a1,1,0,0,1-.76-.82l-.4-2.88a.49.49,0,0,0-.38-.41Zm7.36-3.46a.49.49,0,0,0,.59-.54l-.58-4.13c-.1-.65-.18-1.47-.24-2.17a.48.48,0,0,0-.35-.43.55.55,0,0,0-.56.23c-.35.61-.76,1.32-1.12,1.88l-2.24,3.52a.49.49,0,0,0,.31.74Zm59,18.49-9.05.84a.5.5,0,0,0-.36.2,14.25,14.25,0,0,0-1.44,13.19,1,1,0,0,1-.45,1.27l-3,1.49a1,1,0,0,1-1.32-.46,20.07,20.07,0,0,1-.31-14.34.48.48,0,0,0-.49-.65l-2.49.23a.49.49,0,0,0-.32.16l-4.52,5.14a1,1,0,0,1-1.37.09L211.5,75a1,1,0,0,1-.09-1.37L225.68,57.4a1,1,0,0,1,1.37-.09l2.69,2.36a1,1,0,0,1,.09,1.37L228,63.17c-1.07,1.21-1.86,2.08-2.4,2.67a.48.48,0,0,0,.43.8c.68-.09,1.66-.21,3-.34l7.08-.68a1,1,0,0,1,.74.24l3.05,2.68A1,1,0,0,1,239.3,70.24ZM89.06,76.9a.47.47,0,0,0-.63,0l-1.83,1.7a.48.48,0,0,0,0,.68l4,4.34a1,1,0,0,1,0,1.37l-2.71,2.52a1,1,0,0,1-1.37,0L71.78,71.71a1,1,0,0,1,0-1.37l5.87-5.45c4.24-3.94,8.86-4.11,12.3-.42a7.31,7.31,0,0,1,1.9,7.5.47.47,0,0,0,.07.45c1.22,1.43,4.22,1.86,6.88.49a1,1,0,0,1,1.23.33L101.92,76a1,1,0,0,1-.3,1.37A12.73,12.73,0,0,1,95.44,79,10.12,10.12,0,0,1,89.06,76.9ZM83,74.76l2-1.87c1.6-1.49,1.85-3.14.66-4.42s-2.86-1.15-4.46.34l-2,1.87a.48.48,0,0,0,0,.69l3.14,3.37A.49.49,0,0,0,83,74.76Zm114.79-14a6.84,6.84,0,0,0,8.86,2.23,1,1,0,0,1,1.24.32l2.11,2.8a1,1,0,0,1-.25,1.4,12.29,12.29,0,0,1-14.44-19.76,12.46,12.46,0,0,1,17.36,1,12.23,12.23,0,0,1,3.12,8.44,1,1,0,0,1-1.1,1l-3.52-.45a1,1,0,0,1-.84-.91,6.76,6.76,0,0,0-1.84-4.56,6.86,6.86,0,0,0-10.69,8.52Zm-88.71,5.56a.49.49,0,0,0-.26.49l.34,2.89a1,1,0,0,1-.53,1l-3.54,1.79a1,1,0,0,1-1.41-.78l-2-23.14a1,1,0,0,1,.53-1l3.6-1.81a1,1,0,0,1,1.08.14l17.46,15.35a1,1,0,0,1-.2,1.6l-3.54,1.79a1,1,0,0,1-1.11-.16l-2.13-2a.49.49,0,0,0-.55-.08ZM112.63,59a.49.49,0,0,0,.11-.79l-3.06-2.84c-.49-.45-1.07-1-1.55-1.53a.48.48,0,0,0-.54-.11.55.55,0,0,0-.29.53c.11.69.24,1.5.31,2.16l.48,4.14a.49.49,0,0,0,.7.38Zm-29,158a1,1,0,0,1-.36-1.09,3.37,3.37,0,0,0-.55-3.56c-1.67-2-4.4-1.56-8,1.42s-4.46,5.68-2.83,7.66a3.46,3.46,0,0,0,4,1.2,1,1,0,0,1,1.12.53l1.4,3a1,1,0,0,1-.6,1.34,8.67,8.67,0,0,1-10-2.85c-3.75-4.54-2.66-10.11,3.43-15.14s11.78-5,15.53-.5a8.43,8.43,0,0,1,1.19,9.53,1,1,0,0,1-1.46.41Zm17.24,21.27c-4.86,6.23-10.42,7.46-15.08,3.84s-4.8-9.3.06-15.53,10.4-7.48,15.05-3.86S105.76,232,100.9,238.22Zm-4.33-3.37c2.95-3.78,3.3-6.42,1.17-8.08s-4.57-.65-7.52,3.13S86.92,236.33,89,238,93.62,238.63,96.57,234.85Zm16.91,21.9a1,1,0,0,1-1.3.44l-11-5.41a1,1,0,0,1-.44-1.3L110.36,231a1,1,0,0,1,1.3-.44l3.06,1.51a1,1,0,0,1,.44,1.3l-7.53,15.25a.49.49,0,0,0,.22.65l6.61,3.26a1,1,0,0,1,.44,1.3Zm20.41,6.19a1,1,0,0,1-1.2.68l-11.79-3.26a1,1,0,0,1-.68-1.2l5.8-20.9a1,1,0,0,1,1.2-.68l3.29.91a1,1,0,0,1,.68,1.2l-4.55,16.39a.49.49,0,0,0,.34.6l7.1,2a1,1,0,0,1,.68,1.2Zm21.36,2.26a1,1,0,0,1-1,.89L142,265.14a1,1,0,0,1-.9-1l1.68-21.63a1,1,0,0,1,1-.89l12,.93a1,1,0,0,1,.89,1l-.25,3.21a1,1,0,0,1-1,.89l-7.18-.55a.49.49,0,0,0-.52.45l-.24,3a.48.48,0,0,0,.45.52l5,.39a1,1,0,0,1,.89,1l-.23,2.94a1,1,0,0,1-1,.89l-5-.39a.48.48,0,0,0-.52.45l-.27,3.41a.49.49,0,0,0,.45.52l7.38.57a1,1,0,0,1,.89,1ZM173.53,248a1,1,0,0,1-1.12-.28,3.37,3.37,0,0,0-3.29-1.45c-2.61.32-3.69,2.86-3.12,7.52s2.39,6.81,4.93,6.5a3.47,3.47,0,0,0,3.16-2.72,1,1,0,0,1,1.05-.66l3.31.46a1,1,0,0,1,.81,1.23,8.67,8.67,0,0,1-7.8,6.89c-5.85.71-10-3.2-10.92-11s2.09-12.63,7.95-13.35a8.44,8.44,0,0,1,8.68,4.13,1,1,0,0,1-.44,1.45Zm21.91-9.17a1,1,0,0,1-.61,1.23l-4,1.34a.48.48,0,0,0-.31.62L196,258.15a1,1,0,0,1-.61,1.23l-3.27,1.1a1,1,0,0,1-1.23-.61l-5.45-16.11a.49.49,0,0,0-.62-.31l-3.92,1.32a1,1,0,0,1-1.23-.61l-1-3.05a1,1,0,0,1,.61-1.23l13.93-4.7a1,1,0,0,1,1.23.61Zm1.61-4.65a1,1,0,0,1,.42-1.31l3-1.57a1,1,0,0,1,1.31.41l10,19.26a1,1,0,0,1-.42,1.31l-3,1.57a1,1,0,0,1-1.31-.42Zm31.29,6.13a1,1,0,0,1-.33,1.12l-4.09,3.06a1,1,0,0,1-1.17,0l-18.07-13.57a1,1,0,0,1,0-1.56l3-2.22a1,1,0,0,1,1.19,0l9.88,8c.85.69,1.6,1.35,2.22,1.91a.5.5,0,0,0,.62,0,.49.49,0,0,0,.13-.57c-.37-.76-.79-1.66-1.22-2.67l-4.89-11.71a1,1,0,0,1,.31-1.15l2.94-2.2a1,1,0,0,1,1.49.43Zm19.22-19.59a1,1,0,0,1,.09,1.37l-8.12,9.19a1,1,0,0,1-1.37.09L221.87,217a1,1,0,0,1-.09-1.37l8-9a1,1,0,0,1,1.37-.09l2.42,2.13a1,1,0,0,1,.09,1.37l-4.76,5.39a.49.49,0,0,0,0,.69l2.29,2a.49.49,0,0,0,.69,0l3.32-3.75a1,1,0,0,1,1.37-.09l2.22,2a1,1,0,0,1,.09,1.37l-3.31,3.75a.49.49,0,0,0,0,.69l2.56,2.26a.49.49,0,0,0,.69,0l4.9-5.54a1,1,0,0,1,1.37-.09Z"/></svg>