<svg xmlns="http://www.w3.org/2000/svg" viewBox="0 0 1761.82 755.09"><path d="M457.4,350.22c-11.57,3.44-20.08,24.1-15.17,35.19,6.8,15.36,28.37,25.37,43.78,16.5a1.7,1.7,0,0,1,.47-.18c14.15-3.19,16.22-13.74,16.63-25.12.32-9-4.35-16.77-13-23.38C478.5,344.36,467.39,347.25,457.4,350.22Zm19.9,42.47a1.9,1.9,0,0,1-.68.09c-5.48-.27-10.37.27-14.27-1.49-7-3.15-6.52-11.33,1.74-13.77,5.19-1.53,14.76-1.48,18.17,1.5C488.35,384.35,485.43,390,477.3,392.69Zm100.14-24.55c-10.43-1.81-9.18-7-8.92-13.13.81-19.24.65-38.65,1.67-57.85.46-8.75-5.38-13.7-13.31-17.12-8.85-3.82-45.69,5.88-50.35,12.44a2.88,2.88,0,0,0-.48.82c-2,6.87-7.88,7.05-15.21,5.12-36.68-9.67-63.16,1.84-84.19,21.68-22.79,21.5-25,51.11-21.68,81.81.87,7.9-2,10.08-9.31,11.14-10.73,1.55-21.28,3.6-31.9,5.45-2.63.46-5.26,1-7.88,1.44a1.85,1.85,0,0,1-2.06-1.15,42.33,42.33,0,0,1-2.33-6.94,35.86,35.86,0,0,1-.28-8.22c1.19-31,2.71-61.89,3.52-92.93.3-11.53-5.22-17-18.81-17.51-9.36-.35-18.11,2.86-27.33,3.88-14,1.55-21.25,8.1-21.82,20.66-1.65,35.91-3.49,71.79-4.49,109.63a1.81,1.81,0,0,1-.18.72c-1.61,3.43-2.24,8.7-5.24,9.53-18.58,5.11-37.63,9.36-56.77,13.36-4.59,1-7.45-.25-7-6.54,1.61-21.18,1.69-42.69,2.46-64,1-28.28,2.41-56.5,3-84.84.3-13.49-9.32-20.54-23.76-17.94-9,1.61-17.49,4.24-26.34,6.12Q108.28,292.29,68,300.63c-14.13,3-28.7,5.11-42.24,9.13-6.22,1.85-14.1,6.34-14.88,11.32C8,339.2,6,357.84,7.31,376.65c.82,12.07,9.61,15.89,23.53,13.37,16.77-3,33.47-6.28,49.94-10,12.74-2.88,24.93-6.92,37.64-9.89,6.09-1.42,8.65,1.5,8.31,7.21-1.64,27.86-2.59,55.86-4.89,83.57-.34,4.12-5.9,7.81-10.29,10.19-3.64,2-9.19,1.55-13.76,2.49C83.64,476.53,73,482.26,72.8,497c-.15,13.9-1.22,27.65-1.18,41.57,0,11.54,6.6,17.25,19.66,17.35,5.3,0,10.3-1.5,15.45-2.29,10.63-1.64,11.6-.83,11.08,8.62Q114.07,630.62,110.4,699c-.78,14.36,8.82,22,24.65,19.46,7.17-1.13,14.65-1.68,21.43-3.54,9.78-2.68,21-4.42,22.12-15.91.38-3.86.81-7.72,1.06-11.61,1.48-23.34,3.09-46.66,4.32-70.06,1.27-24.29,1.74-48.75,3.59-72.92.33-4.27,4.6-9.59,9-10.8,15-4.15,30.85-6.92,46.55-9.78,13.92-2.54,14.56-1.41,13.68,11.49-1.69,24.82-2.79,49.75-3.62,74.73-.32,9.76,7,16.23,18.45,15.51,12.25-.77,24.58-2.45,35.6-5.93,6-1.91,12.22-7.51,13.43-13,2.8-12.58,3.45-26,3.47-39.25.05-36.55,17.47-61.49,55.07-73.48,10.76-3.43,17.34-9.64,17.68-20.61.31-9.93,1.24-19.76,2-29.61a20.45,20.45,0,0,1,.4-2.62,1.85,1.85,0,0,1,2.79-1.22,11.35,11.35,0,0,1,3,2.4c18.21,23.47,47.16,32.88,70.74,31.91,22-.91,41.83-6.62,56-20.72,1.6-1.59,5.66-1.34,8.67-1.67,13.56-1.51,27.41-2.32,40.64-4.62,7.07-1.23,12.39-5.22,13-12.8,1.19-14.93,3.6-29.61,4.39-44.6C599.15,376.27,593.74,371,577.44,368.14Zm-191,63.57a235.59,235.59,0,0,1-1.36,25.18c-.9,8.22-10.21,8.7-16.58,11.37-22.54,9.44-38.59,23.53-48.2,44.31-9,19.46-9.4,40.46-9.26,62,.08,12.35-4.09,16.21-18,18.76-4.34.79-8.12,2.86-12.38,3.9-9.47,2.3-14.25-1.21-13.85-10.16,1.19-26.13,2.51-52.23,3.75-78.35a59.6,59.6,0,0,0-.09-6.38c-.43-7.07-5.84-11.42-13.57-9.85-23.41,4.75-46.93,9.37-69.6,15.56-5.4,1.47-10.46,8.25-10.91,13.61-2.29,27.41-2.83,55.19-4.36,82.77-1.28,23.08-3.56,46-4.37,69.14-.27,7.6-3,11.24-11.27,12.46-6.89,1-13.24,3.42-19.91,5.05-8.38,2.06-12.68-.3-12.2-8.86,1.14-20.08,2-40.22,2.88-60.34,1.32-29.44,2.38-58.92,4-88.29.46-8.08-5.12-9.37-11.17-9-8.45.57-16.62,2.23-24.77,3.77-8,1.51-10.36-2.62-10.65-8.27-.24-4.55.89-8.93.8-13.47-.29-13.91,5.66-22.17,22.85-22.44,6.6-.1,13-2.48,18.66-5,3.61-1.64,7.76-5,8-8.4,1.54-20.91,2-42,3.23-63.65,1.16-18.3,2.1-36,2.72-53.74.28-8-6.73-13.43-15.6-11.5C95.58,348.33,66,355,36.69,362.14c-13.19,3.23-17.35,1-17.38-11.65,0-6.34,1-12.52,1.63-18.77.54-5.67,2.85-9.4,10-10.78,26.67-5.17,53.1-10.9,79.54-16.59,21.54-4.64,43-9.54,64.44-14.32,8.38-1.87,12-.15,11.49,8.78-1.66,28.46-2.38,57.1-3.6,85.65-1,22.54-2.37,45-3.08,67.57-.32,10.29,5.14,14.44,16,12.23,23.05-4.69,46.12-9.42,68.56-15.34,4.67-1.23,9.19-7.16,9.47-11.77,2.3-37.42,3.49-75.07,5.24-112.6.41-8.87,3.77-15.64,15.77-16,4.39-.15,8.16-2.67,12.38-3.8,9.52-2.56,15,.63,14.82,9.48-.33,19.92-1.29,39.74-2.24,59.55-.76,15.91-2.33,31.68-2.67,47.65-.2,9.15,5.29,12.76,15.45,10.85q20.85-3.92,41.35-8.62C381.77,421.83,386.45,424.4,386.44,431.71Zm197.67-44.77c.45,8.79,1.4,18.38-1.83,25.83-4.16,9.62-17.14,12.76-28.26,10.7-16-3-26,.35-36.32,8.55C497,448.44,470.64,450.46,439.91,439l-.29-.13c-37.86-21.31-48.47-50.94-39-82.37,8.64-28.72,30.52-46.69,66.13-49.41,10.53-.8,22.52,2.32,33.68,5,7,1.66,10.57.6,12.68-4.38,6.18-14.59,23.28-14,38-16.1,5.08-.73,6.31,3.07,6.06,8.1-1.09,22.2-1.26,44.58-1.34,67,0,12.16,3.82,15.28,16.4,13.07C579.61,378.37,583.81,381,584.11,386.94Zm153.44,93.61c-.47,10.15-2.89,19.94-4.57,29.86a1.85,1.85,0,0,1-.82,1.25c-8,5.07-16.08,5.37-22.71-.07-6.87-5.65-11.93-13.92-5.22-20.7,6.47-6.54,13.28-13.1,21.45-17.92C732.29,469.09,737.81,474.82,737.55,480.55ZM868.92,278.61c-9.57,9.18-19.29,18.25-29.33,27-4.8,4.2-15.52.85-17.51-6.08-3.25-11.32-.05-21.77,7.85-29,7.27-6.69,17.3-10.93,30.49-6.19C870.56,268.31,873.72,274,868.92,278.61Zm614-196.13c-21.8-12.27-43.93-13.25-62.71-3.35-12.34,6.51-22.75,15.59-33,24.43-4.72,4.07-7.95,4.22-14.32.58-19-10.88-40.76-2.86-42.2,15.31-.54,6.86.36,14.06-.76,20.74-1.2,7.12-1.94,15.33-6.5,20.4-12.85,14.28-27.51,27.22-41.6,40.57-.76.72-2.12.93-3.45,1.17a1.85,1.85,0,0,1-2-1,7.07,7.07,0,0,1-.93-3c.54-15,1.63-30,1.77-45.1.09-9.32,2.36-19.1-8.75-27.77-1.23-1-.91-6,.66-7,16.49-10.24,14-28.24,15.7-44.11.81-7.64-3.79-15.95-10.21-23.75-16-19.42-49-18.81-62.44-.82-8.1,10.85-7,23.72-6.63,37,.52,20,9.29,30.54,32.36,35.47a6,6,0,0,1,1.36.5,1.83,1.83,0,0,1,.22,3.22,1.74,1.74,0,0,1-.31.13,24.82,24.82,0,0,1-6.42,1.06c-18,.57-24.64,9.75-24.87,24.75-.38,24.15-1.94,48.11-2,72.31,0,6.26-3.77,5.88-8.4,6.48-7.07.92-13.92,2.44-21,3.4-5.77.78-11.66,1.19-17.52,1.73a1.84,1.84,0,0,1-2-1.46c-.85-4.06-1.75-8.12-2.47-12.18-.43-2.47-1-5.08-.58-7.37,1.31-7.16-.31-15.25,11.93-16.91s17.67-10.28,17.81-21.58c.17-13.6.78-27.12.78-40.75,0-10.91-7.5-17.75-19.84-18.5-5.56-.34-8-2.06-7.72-7.31.5-8.69.37-17.51.19-26.32-.3-14.18-8.16-20.27-23-18-8.62,1.32-17.43,2.26-25.76,4.18-10.55,2.43-19.5,6.44-18.42,18.51.46,5.16-.32,10.23-.62,15.32-.89,15.24-2.5,29.66-21.19,35.56-4.94,1.56-9,7.81-9.73,12.87a278.08,278.08,0,0,0-3,43.92c.19,14.53,5,18.07,21.64,21,3.45.6,9.81,1,8.13,8.35-1.88,8.21-.73,17.39-.71,26.17,0,6.89-2.65,10.1-11.66,6.93-2.58-.91-5.84-.46-8.46.09-9.21,1.94-18.24,4.29-27.42,6.3-6.21,1.36-9.25-1-9-6.84.3-6.91.61-13.82.68-20.77.32-32.05.94-64.07.63-96.21-.14-14.63-17.1-31.33-34.52-36.78-21.86-6.85-39.13.14-57.36,4.73-9.39,2.37-10.78,8.76-10.9,16.59-.18,12.07-.81,24.08-1.72,36-1.49,19.49,5.85,25.94,27.95,25,2.46-.11,8.65,4.35,8.62,5.94q-.89,43.89-3.27,87.52c-.13,2.55-3.22,5.87-6,6.34-7.89,1.37-16.46,1.06-24.46,2.21-5.5.8-7.09-.76-6.42-5.09,1.18-7.66,3.66-15.12,3.46-22.95a30.91,30.91,0,0,0-6.19-17.14c-21.72-27.92-71.15-40.41-101.7-26.91-43,19-56,53.38-51.22,96.63,1.1,9.86,6.19,20,9.17,30a10.31,10.31,0,0,1,.15,4,1.85,1.85,0,0,1-2.41,1.58,19.61,19.61,0,0,1-3.42-1.36c-12.41-6.79-24.73-13.42-38.94-11.19-1.4.22-3.26-.72-5.08-1.57a1.85,1.85,0,0,1-.85-2.55c.79-1.5,1.56-3,2.94-3.4,8.3-2.24,10.65-7.61,11-15,.91-17.7,2.74-35.22,3.51-52.95.49-11.17-12.39-20.82-24.53-18.36-22.36,4.53-44.43,9.69-68.77,14.92-15.2,3.1-30.67,5.69-45.52,9.48-8.84,2.26-16.08,6.73-16.26,16.52-.27,14.79-1.38,29.44-1.4,44.26,0,15.08,9.64,22.14,25.61,19.17,3.63-.67,6.64-2.78,10.26-3.46a11.48,11.48,0,0,1,4.64.55,1.85,1.85,0,0,1,1,2.9c-.5.68-1,1.35-1.56,2-3.91,4.6-10.78,8.51-11.29,13.85-1.73,18.11-1.58,36.66-1.45,55.14.1,14.35,13.17,22.68,28.29,18.39s30.36-9,45.59-13.37a11.33,11.33,0,0,1,3.51-.2,1.85,1.85,0,0,1,1.77,1.8c0,1.31.07,2.62-.66,3.27A157.15,157.15,0,0,1,674,441c-28.88,19.11-40.61,74.08-18.88,107.63,12.12,18.72,30.44,31.24,52.9,35.12,40.38,7,72.7-13.82,80.07-44.47,4.59-19.08,4.91-39.58,6.5-59.58,1.64-20.71-4.25-44.08,18.16-57,3.2-1.85,5.5-4.75,8.26-7.12,15.15-13,27.48-28.78,51.06-33.1,25.36-4.64,50.44-10,75.07-16.24,6.22-1.57,13-6.45,14.66-11.64,2.62-8.14,1.08-17.85,1.42-26.88a14.59,14.59,0,0,1,.35-2.52,1.85,1.85,0,0,1,2.87-1.12,13.35,13.35,0,0,1,3.17,2.78c7,9.57,15.81,15.77,28.32,19.44,25.39,7.46,43.62-4.58,65.3-7.06,4.12-.47,8.47-1.45,11.58-3.43,4.25-2.71,9.28-5.89,10.63-10.13,2.28-7.16,1.92-15.31,2.69-23q.31-3.08.63-6.16a1.85,1.85,0,0,1,3.29-.94c1.59,2,3.19,4.07,4.85,6.07.66.79,2,1.21,2.67,2,12.44,14.58,29,18.38,45.55,16.77,15.72-1.53,30.54-5.88,45.77-9,15.47-3.12,23.49-11.5,22.93-26.27-.29-7.61,0-15.13.13-22.69,0-.65,0-1.29.08-1.93a1.85,1.85,0,0,1,2.75-1.5,13.53,13.53,0,0,1,3.55,2.55c3,3.42,4.84,7.78,8.3,10.71,28.85,24.46,69.13,20.68,90.81.91,2.73-2.49,9.56-2.28,14.61-1.83,5.89.53,12.38,4.26,17.77,3.82,8.8-.72,16.78-4,25.36-5.64,10.38-2,17.08-7,17.92-16.45.95-10.71.29-21.77,1.28-32.46.82-8.78-.7-18.1,7.38-25,13.27-11.26,25-23.92,37.45-35.87a6,6,0,0,1,3-1.09,1.85,1.85,0,0,1,2.15,1.4,13.77,13.77,0,0,1,.46,3.11c-.17,23.29-.79,46.52-.48,69.88.14,10.58,11,16.67,21.88,15.43,11.67-1.33,22.66-4.65,33.88-7.24,1.18-.27,1.72-1.8,2.9-2.17,11.47-3.61,6.45-13.34,6.8-21.15,1.27-28.54,3.43-56.92,3.84-85.6C1515.88,112.08,1504.29,94.5,1482.94,82.48ZM952.08,310.1c-.35,5.69.81,11.89-.88,17-1.42,4.31-4.89,9.57-9.34,10.69-29.89,7.53-61.06,12.72-90.16,21.59-12.09,3.69-20.44,14.27-29.86,22.27-10.44,8.86-20.52,18.08-30,27.71-3.71,3.75-7.42,8.65-7.77,13.7-1.66,24.51-2.31,49.23-3.08,73.92-1.08,34.5-18.18,52.77-51.76,58-26.07,4.06-48.5-6.36-62.45-29.16-17-27.76-8.83-49.81,9.89-68.31,17.57-17.38,36.43-33.73,54.63-50.61,2-1.89,4.12-4,5-6.53,1-2.68,2-7.15.36-8.64-2.74-2.49-8.28-4.93-11.46-4.42-15.81,2.54-31.28,6-46.78,9.28-3.25.7-6,2.56-9.18,3.37-9.4,2.35-19,4.29-28.39,6.68-9.53,2.43-15.58-.83-15.53-9.16.06-9.67-.66-19.78,1.95-28.62,2.08-7,7.95-13,13.34-18.52,9.48-9.66,20.11-18.42,29.73-28,1.93-1.91,2.38-5,3.17-7.83a1.84,1.84,0,0,0-1-2.19c-4.41-2-9.24-5-12.72-4.5-16.61,2.44-32.72,6.17-49,9.46-7.76,1.57-13.11,1.09-11.64-8.43,1-6.72.62-13.81,1.15-20.67.43-5.67,2.93-9.35,10-10.72,26.67-5.15,53.07-10.93,79.53-16.58,9.55-2,18.91-4.51,28.48-6.5,6.25-1.3,9.87.25,9.42,7.14-.73,11.14-.76,22.42-1.4,34.19a1.86,1.86,0,0,1-.55,1.22c-13.89,13.66-26.72,27.42-41.42,39.48-6.08,5-1.75,9.23.21,13.59.58,1.28,7.35,2.23,10.76,1.83,11.38-1.35,22.48-3.5,33.77-5.13s21.61,2.27,31.3,9.34c13,9.52,15.77,9.48,26.65.28,3-2.55,6.44-4.81,8.87-7.76,3.09-3.75,4.43-7.16-.45-13.21-21.54-26.69-21.74-53.39-8.6-77.07,8.73-15.74,23.15-27.93,45-32.71,20.89-4.57,41-3.28,60.72,9.23,25,15.83,22.36,24.63,9.94,38.44-6.65,7.39-14.55,13.87-20.86,21.48-1.85,2.23-1.81,8.09.28,10.16,2.35,2.32,8.53,3.55,12.12,3,15.08-2.5,29.72-6.06,44.69-8.83C949.36,297.1,952.69,300.13,952.08,310.1Zm124.51-30.82c-.27,7.22.39,14.69-.92,21.6-.66,3.5-3.86,7.82-7.43,8.68-17.39,4.17-35.18,7.58-53.06,10.69-12.6,2.19-29.95-8.09-37.6-18.78-9.92-13.85-4.55-26.12-4.72-38.68-.43-30.92,1.35-61.51,1.84-92.3.2-12.39-5.25-16.15-18.55-14.35a86.58,86.58,0,0,1-15.12.19,1.86,1.86,0,0,1-1.76-1.65c-.86-8.06-1.58-15.89-1-23.43.6-7.29,2.91-13.59,13.57-14.27,11.14-.71,21.62-5.22,32.72-4.25,18,1.56,34.82,19.78,33.76,40.6-1.88,36.89-2.74,74-3.93,111-.33,10.25,6.68,15.62,18,13.51,11.07-2.06,22-4.52,32.74-7.25C1074.36,268.25,1076.87,272,1076.59,279.28Zm125.53-25.84c-.27,6,.48,12.33-1,17.93-1,4-3.9,9.08-7.76,10-18.75,4.52-37.76,8.79-57.36,11.22-17.53,2.18-36.89-17-37.23-35.76-.33-18.51,0-36.93-.23-55.43-.16-12.84-2-14.22-15.83-12.93-8,.74-13-3-13.13-10.23-.12-5.76.3-11.44.41-17.17.14-7.17,3.22-11.24,10.94-14.58,16.71-7.23,22-21.82,21.51-38.92a142.23,142.23,0,0,1,.31-14.47c.48-6.75,3.15-11.51,12-12.29,5.86-.52,10.94-3.39,16.7-4.41,8.73-1.54,12.47,1.49,12.72,9.66.31,10.35.47,20.67.77,31,.26,9,6.33,14,15.92,13.08,10.25-.94,12.26.87,11.57,10a123.77,123.77,0,0,0-.4,16.26c.52,9.4-4.55,13.67-14.86,14.21-2.45.13-4.48,1.83-7.62,3.06a1.92,1.92,0,0,0-.72.48c-11.21,12.31-4.86,28.89-7.56,43-1.1,5.75-.2,12.05-.51,18-.58,11.14,5.69,16.55,17.54,14.37,10.36-1.91,20.29-4.81,30.64-6.75C1198.84,241,1202.53,244.21,1202.12,253.44Zm16.22-176.9c-1.74-10.33,1.7-19.73,10.78-24.67,8.43-4.59,19-7.1,31.29.29a2.21,2.21,0,0,1,.3.22c20.15,17.44,10.36,38-7.42,44.2C1241.42,100.73,1220.93,92,1218.34,76.54Zm284.77,54.21c.06,25.14-.17,50.24-1,75.22-.12,3.47-3.4,8-6.86,9-9.51,2.58-19.8,3.81-30,4.71-1.23.11-5.86-5.35-5.93-7.84-.33-10.62.56-21.08.83-31.62.37-14.77.86-29.53.62-44.39,0-2.73-3.73-8.41-5-8.44-5-.12-11.08.17-14.21,2.68-12.84,10.29-24.74,21.45-37,32.28-2.72,2.41-5.19,5.08-8.23,7.16-18.43,12.59-11.33,33.83-12.72,51.81-1.21,15.6,1.07,19-21.25,23.36-3.88.77-7.89,1.24-11.82,1.89-6.31,1-9.9-.19-9.74-7.13.06-2.54-2.32-7-4.66-8s-6.67.47-8.85,2.11c-8,6.06-15.49,12.68-23.25,19-16.61,13.57-46.64,13.45-67.23-4.84-14.17-12.59-18-27.53-17.33-43.06.73-17.43.38-35.06,1.47-52.42.27-4.26,3.07-9.48,6.92-11.25,7.09-3.27,15.9-4.15,23.84-6.32,7.23-2,11.35.42,12.57,7.8a2,2,0,0,1,0,.37c-.5,22.29-.92,44-.55,65.76.06,3.53,3,9.72,5.86,10.82,3.54,1.35,9.77-.14,12.47-2.48,18.8-16.32,37.74-32.6,54.91-50.24,5-5.13,5-14.47,6.14-22.18.94-6.42-.11-13.33.22-19.93.39-7.65,4.19-12.48,13.85-12.92,8.36-.38,11,3.78,13.82,9.87,2.41,5.23,11.43,4.87,17.1-.24,9.67-8.71,18.95-17.79,29.24-25.92,15.2-12,34.43-13.71,56.31-5.91C1488.19,94.58,1503.07,115.35,1503.11,130.75Zm127.3-31.31a1.83,1.83,0,0,1,1,2.26c-1.17,3.44-2.09,7-4.05,10-2.24,3.38-5.86,5.94-8.9,8.85l-.18.14c-6.67,4.73-10.87,9.46-15.95,13.36-2.37,1.82-8.18,3.66-9.44,2.63-3.65-3-7.69-7.52-8.22-11.29-3-21.86,9.54-30.51,31.56-31.25C1620.49,94,1625.58,97.27,1630.41,99.45Zm101.36,11.73c-13.21,2.37-26.08,5.55-39.23,8.09-2.53.49-5.63-.09-8.43-.69-.43-.09-1-3.06-.87-4.52,1.06-8.58,2.74-17,3.33-25.69.26-3.87.1-9.48-2.67-12-10.13-9.28-20.29-20.27-32.52-25.8-39.47-17.86-73.09-10.17-98.12,10.4-16.93,13.91-28.58,32.14-26.62,56,1.22,14.76,1,29.55,4.29,44.29,2.23,10.1,8.08,19.44-4.17,25.58-3.16,1.58-4.09,6.76-4.74,10.64-1.07,6.4-.88,13.14-1.57,19.65-1.14,10.87,7.77,18.47,19.83,16.09,28-5.53,55.82-11.51,85.86-17.64,16.07-3.93,32-8.17,48.26-11.71,17.9-3.91,36.3-6.73,54.08-10.88,13.16-3.07,26.56-6.31,25.95-22.35-.55-14.27.65-28.32.46-42.56C1754.7,114,1747,108.44,1731.77,111.18Zm11.68,22.28c-.28,4.18-.65,8.46.14,12.71,2.66,14.3-8.61,17.84-20.11,20.41-19.6,4.37-39.74,7.6-59.47,11.7-22.63,4.71-45.12,9.73-67.57,14.82-17.59,4-35,8.45-52.62,12.27-2.35.51-5.4-.47-8.31-1.18a1.85,1.85,0,0,1-1.35-2.33c.68-2.27,1.24-4.62,2.74-6.29,5.22-5.81,11.14-11.09,16.7-16.66,5.27-5.28,6.33-9.81,0-18.32-17.24-23-18.92-46-8.28-67.9,7.46-15.38,19.13-27.06,36.2-34.43,23.84-10.3,58.81-6.57,81,11.57,13.68,11.21,15.9,22.28,5.32,32.49-7.35,7.1-15.68,13.4-23,20.52-5.12,5-5.18,10.33,4.55,15a1.89,1.89,0,0,0,1.16.15c27-5.13,53.17-10.83,79.55-16.11C1741,119.7,1744.17,122.74,1743.45,133.45Z"/></svg>