<svg xmlns="http://www.w3.org/2000/svg" viewBox="0 0 1761.82 755.09"><path d="M597.26,395.42v-.05a13.59,13.59,0,0,0-.68-4.11,15.17,15.17,0,0,0-17.67-9.74l-11.66,2.66h-.12a.89.89,0,0,1-.43-.12l-.24-75.52a13.64,13.64,0,0,0-.68-4.15,15.17,15.17,0,0,0-17.67-9.74l-32.91,7.61a13.66,13.66,0,0,0-10.8,13.35l0,2.29a92.72,92.72,0,0,0-34.37-6.61c-23.75,0-46.06,9.3-61.18,25.51A70.93,70.93,0,0,0,389.7,391q.21,2.85.65,5.68A71.93,71.93,0,0,0,389.7,413a73.83,73.83,0,0,0,2.84,15.44,15.48,15.48,0,0,0-6.67-1.82h-.64a15.09,15.09,0,0,0-3.36.38l-50,11.56h-.1a.87.87,0,0,1-.43-.12l-.09-114.91c0-7.65-6.28-13.93-14.27-14.31l-.72,0a15.09,15.09,0,0,0-3.38.38L280,317.18a13.66,13.66,0,0,0-10.8,13.32v21.65c0,.12,0,.24,0,.37l.06,100.65-73.33,17h-.1a.87.87,0,0,1-.43-.12l-.16-160.49v-.05c-.06-7.64-6.37-13.88-14.35-14.21h-.64a15.11,15.11,0,0,0-3.36.38L23.34,331.12a13.66,13.66,0,0,0-10.8,13.31v31.4s0,.05,0,.08v21.94c.06,7.64,6.37,13.88,14.35,14.21h.64a15.11,15.11,0,0,0,3.36-.38l101.74-23.53h.1a.87.87,0,0,1,.43.12l.1,96.33-36.49,8.44A13.66,13.66,0,0,0,86,506.37V528c0,.13,0,.25,0,.38l0,31.42v.06c.06,7.64,6.37,13.88,14.35,14.21H101a15.09,15.09,0,0,0,3.36-.38l28.44-6.58h.1a.87.87,0,0,1,.43.12l.1,150v.06c.06,7.64,6.37,13.88,14.35,14.21h.64a15.08,15.08,0,0,0,3.36-.38l33-7.62a13.66,13.66,0,0,0,10.8-13.32l0-21.54c0-.16,0-.32,0-.48l-.11-135.71,73.32-17h.1a.87.87,0,0,1,.43.12l.11,90.29V626c.06,7.64,6.37,13.88,14.35,14.21h.64a15.08,15.08,0,0,0,3.36-.38l32.91-7.61a13.66,13.66,0,0,0,10.8-13.35l0-21c0-.35,0-.71,0-1.07l0-22.34a66.65,66.65,0,0,1,15.9-41.71c10.54-12.52,25.12-21.22,42.16-25.16a13.66,13.66,0,0,0,10.8-13.32V472.7c0-.13,0-.26,0-.39l0-26.23a85.33,85.33,0,0,0,20.51,23.49,92.86,92.86,0,0,0,57.57,20c23.67,0,45.9-9.23,61-25.34h0a.68.68,0,0,1,.21,0,53.14,53.14,0,0,0,16.38,2.59,51.42,51.42,0,0,0,11.68-1.34l18.89-4.37a13.66,13.66,0,0,0,10.8-13.32l0-21.49c0-.18,0-.35,0-.53ZM387.8,478.54C349.9,487.3,324,518,324.06,554.28l.08,42.64a6.38,6.38,0,0,1-5.16,6.19l-32.89,7.61a7.78,7.78,0,0,1-1.73.19H284c-4-.17-7.35-3.3-7.38-7l-.11-90.67a6.32,6.32,0,0,0-.32-1.91,7.9,7.9,0,0,0-9.13-4.91l-73.82,17.07a6.38,6.38,0,0,0-5.16,6.19l.13,158.55a6.38,6.38,0,0,1-5.16,6.19L150.14,702a7.79,7.79,0,0,1-1.73.19h-.34c-4-.17-7.35-3.3-7.38-7l-.1-150.38a6.32,6.32,0,0,0-.32-1.91,7.9,7.9,0,0,0-9.13-4.91l-28.42,6.57a7.79,7.79,0,0,1-1.74.19h-.34c-4-.17-7.35-3.3-7.38-7l0-31.45a6.38,6.38,0,0,1,5.16-6.19l37-8.56a6.38,6.38,0,0,0,5.16-6.19l-.13-119.52a6.31,6.31,0,0,0-.32-1.91,7.9,7.9,0,0,0-9.13-4.91L29.26,382.58a7.79,7.79,0,0,1-1.74.19h-.34c-4-.17-7.35-3.3-7.38-7V344.4A6.38,6.38,0,0,1,25,338.21l153.53-35.5a7.79,7.79,0,0,1,1.74-.19h.33c4,.17,7.35,3.3,7.38,7l.16,160.87a6.32,6.32,0,0,0,.32,1.91,7.9,7.9,0,0,0,9.13,4.91l73.83-17.07a6.38,6.38,0,0,0,5.16-6.19l-.08-123.48a6.38,6.38,0,0,1,5.16-6.19l32.89-7.61a7.79,7.79,0,0,1,1.75-.2h.38c4,.19,7.33,3.34,7.33,7l.09,115.3a6.31,6.31,0,0,0,.32,1.91,7.9,7.9,0,0,0,9.13,4.91l50-11.55a7.79,7.79,0,0,1,1.74-.19h.33c4,.17,7.35,3.3,7.38,7l0,31.45A6.38,6.38,0,0,1,387.8,478.54Zm197-46.49-18.91,4.37a44.1,44.1,0,0,1-10,1.14,46,46,0,0,1-14.16-2.24,8,8,0,0,0-2.43-.38,7.05,7.05,0,0,0-5.17,2.14c-14.35,15.38-34.84,23.2-55.86,23.2a85.45,85.45,0,0,1-53-18.42c-33.13-26.32-38.08-71.13-11.06-100.09,14.1-15.11,34.54-23.2,55.86-23.2a85.87,85.87,0,0,1,31.72,6.11,8.11,8.11,0,0,0,3,.59,6.88,6.88,0,0,0,6.45-4,6,6,0,0,0,.49-2.35l0-3.4a6.38,6.38,0,0,1,5.16-6.19l32.89-7.61a7.9,7.9,0,0,1,9.13,4.91,6.31,6.31,0,0,1,.32,1.91l.24,75.89c0,3.7,3.33,6.83,7.38,7h.34a7.78,7.78,0,0,0,1.74-.19l11.66-2.66a7.9,7.9,0,0,1,9.13,4.91,6.31,6.31,0,0,1,.32,1.91l0,30.42A6.38,6.38,0,0,1,584.85,432ZM502.27,383h0c-4-12.19-16.43-20.34-29.55-20.34a31.22,31.22,0,0,0-7,.8c-15.46,3.58-24.16,18.12-19.42,32.49,4,12.19,16.43,20.34,29.54,20.34a31.22,31.22,0,0,0,7-.8C498.3,411.9,507,397.36,502.28,383Zm-21.07,25.4a24,24,0,0,1-5.4.61,24.83,24.83,0,0,1-19.66-9.7,20,20,0,0,1,11.17-6.74,24,24,0,0,1,5.4-.61,24.83,24.83,0,0,1,19.67,9.71A20,20,0,0,1,481.2,408.37Zm1030.41-266.9a56.53,56.53,0,0,0-11-33.13A65.5,65.5,0,0,0,1472,86.11a68,68,0,0,0-26-5.16c-16.28,0-31.39,5.77-42.54,16.26l-27.77,25.9-1.78-5.38a15.17,15.17,0,0,0-17.7-9.7l-14,3.24a13.66,13.66,0,0,0-10.8,13.32l0,21.47c0,.18,0,.36,0,.54l0,17.8-58.8,54.83h-.09a.84.84,0,0,1-.43-.12l-.12-73.38a14.51,14.51,0,0,0-11.4-13.86A33.54,33.54,0,0,0,1273.7,119a31.77,31.77,0,0,0,2.4-25.82c-.09-.26-.18-.52-.27-.78a31.91,31.91,0,0,0,.27-21.24c-5-15.07-20.11-25.59-36.82-25.59a39,39,0,0,0-8.76,1A34.63,34.63,0,0,0,1208,63a31.77,31.77,0,0,0-2.4,25.82c.09.26.18.52.27.78a31.91,31.91,0,0,0-.27,21.24c4.32,13.09,16.31,22.74,30.34,25.05l-15.82,3.66a13.66,13.66,0,0,0-10.81,13.35l0,20.94c0,.36,0,.72,0,1.08l.12,64.21a55,55,0,0,0,.39,6.37,15.14,15.14,0,0,0-12-6.56h-.64a15.09,15.09,0,0,0-3.36.38l-42.8,9.9h-.1a.87.87,0,0,1-.43-.12l0-36.81,18.37-4.25a13.66,13.66,0,0,0,10.8-13.35l0-20.83q0-.59,0-1.19l-.06-31.37a14.66,14.66,0,0,0-14.35-14.26h-.64a15.11,15.11,0,0,0-3.36.38l-10.33,2.39h-.1a.87.87,0,0,1-.43-.12V88.6C1150.33,81,1144,74.72,1136,74.39h-.64a15.1,15.1,0,0,0-3.36.38l-32.91,7.61a13.66,13.66,0,0,0-10.8,13.32v21.64c0,.13,0,.25,0,.38v8.15c-.14,11.1-8.15,20.36-20,23.11a13.66,13.66,0,0,0-10.8,13.3l-.07,31.3v.08c0,.26,0,.52,0,.78l0,21.16v.08c.06,7.64,6.37,13.88,14.35,14.21h.64a15.09,15.09,0,0,0,3.36-.38l12-2.78h.1a.87.87,0,0,1,.43.12l.09,57.41c0,12.21,5.16,23.88,14.5,32.87a53.09,53.09,0,0,0,34.29,14.66c.85,0,1.72.06,2.56.06a51.85,51.85,0,0,0,11.66-1.32l50-11.56a13.66,13.66,0,0,0,10.8-13.32l0-21.49c0-.18,0-.35,0-.53l0-27.26A60.44,60.44,0,0,0,1228,281a68,68,0,0,0,43.92,18.74c1.08.05,2.17.08,3.24.08,16.26,0,31.38-5.75,42.57-16.19l13.76-12.9A14.66,14.66,0,0,0,1345.8,285h.64a15.09,15.09,0,0,0,3.36-.38l32.91-7.61a13.66,13.66,0,0,0,10.8-13.32l0-21.52c0-.17,0-.33,0-.5l0-28.88,55-51.26h.09a.84.84,0,0,1,.43.12l.14,81.79a14.66,14.66,0,0,0,14.35,14.26h.64a15.09,15.09,0,0,0,3.38-.38l33.46-7.74a13.66,13.66,0,0,0,10.81-13.35l0-21c0-.33,0-.66,0-1Zm-311.8,148.39-50,11.56a44.52,44.52,0,0,1-10,1.13q-1.1,0-2.21-.05c-23.11-1.12-41.85-19.15-41.86-40.27l-.09-57.79a6.31,6.31,0,0,0-.32-1.91,7.9,7.9,0,0,0-9.13-4.91l-12,2.77a7.79,7.79,0,0,1-1.74.19h-.33c-4-.17-7.35-3.3-7.38-7l.07-31.34a6.38,6.38,0,0,1,5.16-6.19c15.28-3.53,25.7-15.92,25.69-30.53l0-29.88a6.38,6.38,0,0,1,5.16-6.19l32.89-7.61a7.79,7.79,0,0,1,1.74-.19h.34c4,.17,7.35,3.3,7.38,7v41.43a6.31,6.31,0,0,0,.32,1.91,7.9,7.9,0,0,0,9.13,4.91l10.31-2.38a7.8,7.8,0,0,1,1.74-.19h.34c4,.17,7.35,3.3,7.38,7l.06,31.42a6.38,6.38,0,0,1-5.16,6.19l-18.86,4.36,0,0a6.38,6.38,0,0,0-5.15,6.23l0,60a6.31,6.31,0,0,0,.32,1.91,7.9,7.9,0,0,0,9.13,4.91l42.78-9.89a7.79,7.79,0,0,1,1.74-.19h.34c4,.17,7.35,3.3,7.38,7l0,30.42A6.38,6.38,0,0,1,1199.81,289.86Zm12.7-203.3c-4.8-14.54,4-29.26,19.65-32.88a31.6,31.6,0,0,1,7.12-.81c13.27,0,25.83,8.25,29.9,20.59,4.8,14.54-4,29.27-19.65,32.88a31.6,31.6,0,0,1-7.12.81C1229.14,107.15,1216.58,98.9,1212.51,86.56Zm286.78,133.91-33.45,7.73a7.78,7.78,0,0,1-1.75.2h-.34c-4-.17-7.35-3.3-7.38-7l-.14-82.13a6.79,6.79,0,0,0-2.34-5,8.07,8.07,0,0,0-5.38-2,7.24,7.24,0,0,0-5,1.88l-55.41,51.68a6.08,6.08,0,0,0-2,4.45l0,51.45a6.38,6.38,0,0,1-5.16,6.19l-32.89,7.6a7.79,7.79,0,0,1-1.74.19h-.34c-4-.17-7.35-3.3-7.38-7l0-7a3.88,3.88,0,0,0-1.34-2.86,4.61,4.61,0,0,0-3.07-1.17,4.14,4.14,0,0,0-2.84,1.08l-18.74,17.56c-9.81,9.15-23.3,14.23-37.61,14.23q-1.44,0-2.89-.07c-30.62-1.46-55.47-25.33-55.51-53.32l-.12-64.26a6.38,6.38,0,0,1,5.17-6.2l33.45-7.73a7.78,7.78,0,0,1,1.74-.2h.34c4,.17,7.35,3.3,7.38,7l.12,73.72a6.79,6.79,0,0,0,2.34,5,8.07,8.07,0,0,0,5.38,2,7.24,7.24,0,0,0,5-1.88l59.26-55.25a6.07,6.07,0,0,0,2-4.45l0-40.37a6.38,6.38,0,0,1,5.16-6.19l14-3.24A7.9,7.9,0,0,1,1367,120l3.22,9.75a4.05,4.05,0,0,0,1.15,1.73,4.61,4.61,0,0,0,3.08,1.17,4.14,4.14,0,0,0,2.84-1.07l31.17-29.07c10-9.36,23.51-14.28,37.55-14.28a61.2,61.2,0,0,1,23.28,4.63c21.15,8.58,35.07,27.88,35.09,48.63l.12,72.79A6.38,6.38,0,0,1,1499.29,220.47ZM742.08,488.93l.07,19.62c0,6.35-4.5,11.74-11.15,13.26a19.58,19.58,0,0,1-4.42.53A16.24,16.24,0,0,1,713,514.79c-2-2.95-5.61-10.48,1.79-17.41l14.59-13.61a7.26,7.26,0,0,1,5-1.88h.38C738.79,482.08,742.07,485.23,742.08,488.93ZM1749.28,161l0-32V129a13.57,13.57,0,0,0-.68-4.11,15.17,15.17,0,0,0-17.67-9.74l-53.75,12.43a24.37,24.37,0,0,0,3.2-11.81,25.48,25.48,0,0,0-2.55-11.43,24.39,24.39,0,0,0,2.55-10.59,26.32,26.32,0,0,0-8.16-19.19,92.65,92.65,0,0,0-64.84-26.41C1587,48.17,1567.69,55,1553,67.3a71.42,71.42,0,0,0-26.06,52.2,73.75,73.75,0,0,0,.78,14.11,72.12,72.12,0,0,0-.78,7.91,75.07,75.07,0,0,0,11.54,43l-12.9,12a13.31,13.31,0,0,0-3.59,14,14.42,14.42,0,0,0,4.85,6.81l-1.26,1.18a13.31,13.31,0,0,0-3.59,14,15.17,15.17,0,0,0,17.69,9.71l198.84-46a13.66,13.66,0,0,0,10.8-13.32l0-21.49C1749.27,161.39,1749.29,161.22,1749.28,161Zm-12.44,6.23-198.84,46a7.9,7.9,0,0,1-9.14-4.89,6.09,6.09,0,0,1,1.64-6.44L1556,178.11a3.59,3.59,0,0,0-.06-5.26c-29.76-29.51-29-74.27,1.68-100,14-11.69,31.71-17.43,49.72-17.43a85.13,85.13,0,0,1,59.74,24.32c7.83,7.68,8,19.33.37,26.43l-25.7,23.94a6.32,6.32,0,0,0,.35,9.48,8.09,8.09,0,0,0,5.39,2.06,7.78,7.78,0,0,0,1.8-.21v0l83.22-19.24a7.9,7.9,0,0,1,9.13,4.91,6.31,6.31,0,0,1,.32,1.91l0,32A6.38,6.38,0,0,1,1736.85,167.27ZM1628,105.15a3.61,3.61,0,0,1,.23,5.42l-33.55,31.33a3.81,3.81,0,0,1-.59.45,4.24,4.24,0,0,1-2.25.63,4.57,4.57,0,0,1-3.6-1.73l0,0c-7-9.14-7.43-20.94-1.17-29.87,5.25-7.48,14.1-11.48,23.35-11.48a32.41,32.41,0,0,1,17,4.82A4.48,4.48,0,0,1,1628,105.15ZM1086.58,282.28v-.05a13.59,13.59,0,0,0-.68-4.11,15.17,15.17,0,0,0-17.67-9.74l-42.8,9.9h-.11a.9.9,0,0,1-.43-.12l-.08-117.85a43.29,43.29,0,0,0-2.2-13.54c-6.61-20.05-26.81-34.06-49.12-34.06h0A52,52,0,0,0,961.79,114l-26.41,6.11a13.66,13.66,0,0,0-10.8,13.32v21.81c0,.07,0,.14,0,.21v31.35a13.58,13.58,0,0,0,.68,4.11,15.17,15.17,0,0,0,17.67,9.74l19.23-4.45h.1a.89.89,0,0,1,.43.12l.09,112.54a13.65,13.65,0,0,0-.55-2.44,15.17,15.17,0,0,0-17.68-9.74l-26.67,6.17a24.37,24.37,0,0,0,3.17-11.76,25.48,25.48,0,0,0-2.55-11.43,24.39,24.39,0,0,0,2.55-10.59,26.32,26.32,0,0,0-8.16-19.19l0,0,0,0a92.86,92.86,0,0,0-64-25.63h0c-20.79,0-40.41,7-55.24,19.84a71.34,71.34,0,0,0-25.25,52.47,73.94,73.94,0,0,0,.82,13.14,72,72,0,0,0-.82,8.88,75.3,75.3,0,0,0,12.21,43.07l-3.45,3.21a68.33,68.33,0,0,0-45.51-17.18,67,67,0,0,0-9.08.62l10.66-9.95a10.8,10.8,0,0,0,3.44-7.86V291.26s0,0,0-.05v-22a13.59,13.59,0,0,0-.68-4.11,15.17,15.17,0,0,0-17.68-9.74L599.51,282.85a13.66,13.66,0,0,0-10.8,13.32V317.8c0,.13,0,.25,0,.38l0,31.42v.06a13.59,13.59,0,0,0,.68,4.11,15.17,15.17,0,0,0,17.67,9.74l26.05-6-10.63,9.92a10.8,10.8,0,0,0-3.44,7.86l0,21.36c0,.22,0,.43,0,.65l.07,39.5a13.65,13.65,0,0,0,.68,4.16,15.17,15.17,0,0,0,17.67,9.74l63.17-14.61-26.05,24.3a60,60,0,0,0-19.42,44.35,62.24,62.24,0,0,0,1,11,60.46,60.46,0,0,0-1,11c0,17.6,7.49,34.44,21,47.43a77.23,77.23,0,0,0,49.9,21.28c1.24.06,2.49.09,3.72.09,19.33,0,37.05-7.08,49.89-19.94a60.09,60.09,0,0,0,17.8-42.79l0-20.37c0-.55,0-1.1,0-1.65l-.11-58.47L852.46,401l99.69-23.05A13.66,13.66,0,0,0,963,364.59l0-21.32c0-.23,0-.47,0-.7l0-26A43.59,43.59,0,0,0,965,326.84c6.61,20.05,26.81,34.06,49.12,34.06a52,52,0,0,0,11.69-1.33l50-11.56a13.66,13.66,0,0,0,10.8-13.32l0-21.49c0-.18,0-.35,0-.53ZM950.52,348.8,850,372a4,4,0,0,0-1.83,1l-58.07,54.17.16,83.62c.05,31.22-26.7,55.44-60.41,55.44-1.12,0-2.24,0-3.38-.08-35.28-1.68-63.93-29.19-64-61.44a53,53,0,0,1,17.1-39l58.7-54.75a6.32,6.32,0,0,0-.38-9.48,8.09,8.09,0,0,0-5.38-2,7.79,7.79,0,0,0-1.75.2l-94.9,21.94a7.9,7.9,0,0,1-9.13-4.91,6.31,6.31,0,0,1-.32-1.91l-.07-39.47a3.47,3.47,0,0,1,1.13-2.55l43.27-40.37a6.32,6.32,0,0,0-.38-9.48,8.09,8.09,0,0,0-5.38-2,7.78,7.78,0,0,0-1.75.2L605.47,334.4a7.9,7.9,0,0,1-9.13-4.91,6.31,6.31,0,0,1-.32-1.91l0-31.45a6.38,6.38,0,0,1,5.16-6.19l118.72-27.45A7.9,7.9,0,0,1,729,267.4a6.32,6.32,0,0,1,.32,1.91v39.13a3.47,3.47,0,0,1-1.13,2.55l-42.9,40a6.32,6.32,0,0,0,.38,9.48,8.09,8.09,0,0,0,5.38,2,7.78,7.78,0,0,0,1.75-.2l24.62-5.69a59.12,59.12,0,0,1,14.17-1.71,61.18,61.18,0,0,1,45.34,20L798.32,355a3.61,3.61,0,0,0-.15-5.35c-30.18-29.15-30.11-74,.17-100.06,14-12.11,32.12-18.07,50.48-18.07a85.17,85.17,0,0,1,59,23.59c7.83,7.68,8,19.33.37,26.43l-25.7,23.94a6.32,6.32,0,0,0,.38,9.48,8.09,8.09,0,0,0,5.38,2,7.79,7.79,0,0,0,1.74-.2l56.22-13a7.9,7.9,0,0,1,9.13,4.91,6.31,6.31,0,0,1,.32,1.91l0,32A6.38,6.38,0,0,1,950.52,348.8Zm123.65-29.9-50,11.56a44.62,44.62,0,0,1-10.05,1.14c-18.74,0-36.46-11.64-42.21-29.06a36.05,36.05,0,0,1-1.84-11.26L970,173.93c0-3.7-3.33-6.83-7.38-7h-.33a7.79,7.79,0,0,0-1.74.19l-19.21,4.44a7.9,7.9,0,0,1-9.13-4.91,6.31,6.31,0,0,1-.32-1.91V133.42a6.38,6.38,0,0,1,5.16-6.19l26.41-6.11A44.64,44.64,0,0,1,973.48,120c18.74,0,36.46,11.64,42.21,29.06a36.05,36.05,0,0,1,1.84,11.26l.08,118.2c0,3.7,3.29,6.85,7.33,7h.38a7.79,7.79,0,0,0,1.75-.2l42.78-9.89a7.9,7.9,0,0,1,9.13,4.91,6.32,6.32,0,0,1,.32,1.91l0,30.42A6.38,6.38,0,0,1,1074.17,318.9ZM868.64,280.46a3.61,3.61,0,0,1,.23,5.42l-33.55,31.29a3.81,3.81,0,0,1-.59.45,4.24,4.24,0,0,1-2.25.63,4.57,4.57,0,0,1-3.6-1.73h0c-7-9.14-7.43-20.95-1.17-29.87,5.25-7.48,14.1-11.48,23.35-11.48A32.41,32.41,0,0,1,868,280,4.48,4.48,0,0,1,868.64,280.46Z"/></svg>