<svg xmlns="http://www.w3.org/2000/svg" viewBox="0 0 1676.33 398.2"><path d="M963.88,184.26h42.78a7,7,0,0,1,6.69,9l-9.3,30.43a7,7,0,0,1-6.69,5h-50A40,40,0,0,1,909.11,177L945,59.63a7,7,0,0,0-6.69-9H919.1a7,7,0,0,1-6.69-9L922,10.31a7,7,0,0,1,6.69-5h26.41a40,40,0,0,1,38.25,51.69L957.19,175.22A7,7,0,0,0,963.88,184.26Zm144-74h18.86a7,7,0,0,0,6.69-5L1143,73.83a7,7,0,0,0-6.69-9H1126a7,7,0,0,1-6.69-9L1132,14.4a7,7,0,0,0-6.69-9h-32.89a7,7,0,0,0-6.69,5l-9.14,29.88a34.75,34.75,0,0,1-33.23,24.59h0a7,7,0,0,0-6.69,5L1027,101.19a7,7,0,0,0,6.69,9h12a7,7,0,0,1,6.69,9L1034.75,177A40,40,0,0,0,1073,228.7h50a7,7,0,0,0,6.69-5l9.3-30.43a7,7,0,0,0-6.69-9h-42.78a7,7,0,0,1-6.69-9l18.35-60A7,7,0,0,1,1107.87,110.23ZM1253.8,28.34a28.34,28.34,0,1,0-28.34,28.34A28.34,28.34,0,0,0,1253.8,28.34ZM1433.72,94a52.71,52.71,0,0,0-59.48-4.41l-37.87,21.86a4,4,0,0,1-6-3.46V97.5a7,7,0,0,0-7-7h-14a7,7,0,0,0-6.69,5l-12.34,40.38a7,7,0,0,1-3.19,4l-72,41.55a7,7,0,0,1-10.2-8.1l22.49-73.75a7,7,0,0,0-6.7-9h-33.45a7,7,0,0,0-6.7,5L1161,159.87a53,53,0,0,0,77.2,61.36L1261,208a4,4,0,0,1,5.83,4.63l-2.13,7a7,7,0,0,0,6.69,9h32.89a7,7,0,0,0,6.69-5l15.73-51.46a7,7,0,0,1,3.19-4l67.33-38.87a7,7,0,0,1,10.2,8.1l-25.05,82.16a7,7,0,0,0,6.7,9h33.45a7,7,0,0,0,6.7-5l22.2-72.82A52.71,52.71,0,0,0,1433.72,94Zm152.39,90.29h83.22a7,7,0,0,1,6.69,9l-9.78,32a7,7,0,0,1-6.69,5H1460.71a7,7,0,0,1-3.5-13.06l31-17.91a4,4,0,0,0,1.56-5.27,74,74,0,0,1,131.79-67.38,20,20,0,0,1-7.76,26.52l-31.22,18A7,7,0,0,0,1586.11,184.26Zm-56.67-14.39a4,4,0,0,0,5.78,2.14L1576,148.47a4,4,0,0,0,1-6.09,28,28,0,0,0-47.58,27.48ZM826.86,184h56.22a7,7,0,0,1,6.69,9L880,225a7,7,0,0,1-6.69,5H772.78a4,4,0,0,0-2,.54l-70.56,40.74-25.49,83.66a61.08,61.08,0,1,1-89-70.69l71.32-41.18a7,7,0,0,0-3.5-13.06h-94.9a7,7,0,0,1-6.69-9L564,181.52a4,4,0,0,1,1.83-2.29l52.58-30.36a7,7,0,0,0-3.5-13.06H557.13a7,7,0,0,1-6.69-9l9.62-31.45a7,7,0,0,1,6.69-5H685.47a7,7,0,0,1,6.69,9l-12,39.13a4,4,0,0,1-1.83,2.29l-52.13,30.1a7,7,0,0,0,3.5,13.06h24.62A53.25,53.25,0,0,1,704,216l26-15a4,4,0,0,0,1.5-5.39,74,74,0,1,1,130.85-69.19,20,20,0,0,1-7.76,26.52l-31.22,18A7,7,0,0,0,826.86,184ZM636.69,321.93a7,7,0,0,0-10.2-8.1l-17.73,10.24c-9,5.22-7.92,13.6-7,17s4.12,11.18,14.56,11.18a15,15,0,0,0,14.42-10.68ZM770.2,169.59a4,4,0,0,0,5.78,2.14l40.76-23.53a4,4,0,0,0,1-6.09,28,28,0,0,0-47.58,27.48ZM517.34,184.26a7,7,0,0,1,6.69,9l-9.3,30.43a7,7,0,0,1-6.69,5H489.13A39.64,39.64,0,0,1,467,222a6.86,6.86,0,0,0-7.6,0,74,74,0,1,1,4.37-119.89,7,7,0,0,0,11-3.43l1-3.41a7,7,0,0,1,6.69-5h32.89a7,7,0,0,1,6.69,9L499,175.22a7,7,0,0,0,6.69,9Zm-71-23.74a28,28,0,1,0-28,28A28,28,0,0,0,446.36,160.52ZM292.24,50.81H259.35a7,7,0,0,0-6.69,5L214.88,179.31a7,7,0,0,1-6.69,5H134.36a7,7,0,0,1-6.69-9L176.84,14.4a7,7,0,0,0-6.69-9H16.62a7,7,0,0,0-6.69,5L.31,41.76a7,7,0,0,0,6.69,9H108.72a7,7,0,0,1,6.69,9L78.89,179.31a7,7,0,0,1-6.69,5h-37a7,7,0,0,0-6.69,5l-9.62,31.45a7,7,0,0,0,6.69,9H54a7,7,0,0,1,6.69,9l-46,150.4a7,7,0,0,0,6.69,9H54.32a7,7,0,0,0,6.69-5l48.48-158.58a7,7,0,0,1,6.69-5H190a7,7,0,0,1,6.69,9L169,329.28a7,7,0,0,0,6.69,9h32.89a7,7,0,0,0,6.69-5l13-42.66a86.21,86.21,0,0,1,82.44-61h0a7,7,0,0,0,6.69-5l9.62-31.45a7,7,0,0,0-6.69-9H270.36a7,7,0,0,1-6.69-9L298.93,59.85A7,7,0,0,0,292.24,50.81Z"/></svg>