<svg xmlns="http://www.w3.org/2000/svg" viewBox="0 0 100 100"><path d="M26.73,13l6,20L12.51,87v0a1,1,0,0,0,.93,1.34h0l36.57,0H86.57a1,1,0,0,0,.78-1.63L70.82,65.72l1.55-21.87,1-13.85,0-.43a1,1,0,0,0-.3-.78L70,25.69,66.2,22h0L56,12a1,1,0,0,0-.36-.22l-.05,0a1,1,0,0,0-.29,0h-14a1,1,0,0,0-.94.65L39.05,16,28,11.76A1.08,1.08,0,0,0,27,12,1,1,0,0,0,26.73,13ZM67.48,84.5l-.13,1.8h-16l9.48-30,7.93,10ZM71.31,30.6l-.81,11.34-4.18-3,2.9-9.17ZM64,39.75,60.08,52.11l-8.4-10.64L57,34.81ZM48.73,26.44l2.1-3.75L61,26.63l-4.39,5.45ZM39.55,42.82,44,34.94l5.14,6.51L40.52,52.11l-2.15-7.19ZM38.58,23l.38-1L46.11,27l-2.42,4.32L38.1,24.26ZM45,33l2.72-4.85,7.65,5.44-5,6.21Zm19.59,4.7-6.32-4.5L63,27.39l4.35,1.68ZM47.09,25.28,39.69,20l.53-1.41L49,22Zm-9.82-4.53-.63,1.68-3.84-4.86ZM34.81,33l1.54-4.13.92-2.45,5.35,6.78-5.06,9-1.32-4.4ZM39,54,20.17,77.37,37,47.35Zm2.22.44,9.17-11.38,9,11.35L50,83.91ZM69,63.39,61.58,54,65.7,41l4.65,3.31ZM68,27.14v0l-3.54-1.36-.09,0,1.26-1.56,2.52,2.49ZM62.36,25,51.82,20.93l3.72-6.63,8.61,8.48ZM42.06,13.68H53.61l-3.67,6.54-7.33-2.83-1.7-.65Zm-3.71,4.2-.35.93-3.27-2.33Zm-2.52,6.75-2,5.24L30.14,17.43ZM33.65,36.14l2.56,8.54L21.31,71.24l-2.38,4.24ZM15.53,86.33l24.17-30,9,30Zm53.84,0,1.25-17.61,13.9,17.6Z"/></svg>