<svg xmlns="http://www.w3.org/2000/svg" viewBox="0 0 100 100"><defs><style>.a{fill-rule:evenodd;}</style></defs><title>job-jive</title><path class="a" d="M67.3,30.23,64.72,37l-1.62,4.23-6.35,16.6H49l-6.4-17.08q2.5.14,5,.23l3.8.13.87,2.72c.15.42.27.85.39,1.27s.24.82.37,1.21h.07c.57-1.7,1.13-3.4,1.69-5.12.42-1.3.83-2.6,1.24-3.92.72-2.28,1.44-4.61,2.18-7Zm-41,27.58V39.43c2.79.31,5.65.57,8.55.8V57.82ZM20.2,30.27v5.8q-4.29-.33-8.58-.73V30.27Zm29.95,7H47.36c-2,0-4.08-.06-6.13-.11l-2.6-6.94h9.24l1.52,4.69ZM11.62,58.91V37.35c2.75.49,5.62.93,8.58,1.33V60.42a8.89,8.89,0,0,1-2.49,6.41,13.63,13.63,0,0,1-7.06,3.54l-3.1-7a5.24,5.24,0,0,0,2.91-1.48A4.16,4.16,0,0,0,11.62,58.91Zm80.82-16c0,.66,0,1.94-.09,2.54l-17,1.15,0,.18a4.92,4.92,0,0,0,.64,1.6,4.81,4.81,0,0,0,1.06,1.27,6,6,0,0,0,2.19,1.15,9.67,9.67,0,0,0,2.85.4A21.54,21.54,0,0,0,84.83,51a14.45,14.45,0,0,0,2.58-.52l4.3,5.6v.09a23.67,23.67,0,0,1-4.91,1.39,27.73,27.73,0,0,1-5.55.39A14.35,14.35,0,0,1,71,53.95,14.16,14.16,0,0,1,67.1,43.76a15.82,15.82,0,0,1,.26-2.65c6.25-.18,12.3-.55,18-1.13-.09-3.42-2.79-4.2-5.73-4.23-3.6.39-7.16.69-10.73.93a13.79,13.79,0,0,1,2.21-3.14,12.7,12.7,0,0,1,9.46-3.9,12.85,12.85,0,0,1,4.91.91,9.69,9.69,0,0,1,3.73,2.66,11.88,11.88,0,0,1,2.42,4.26A17,17,0,0,1,92.44,42.91ZM34.87,30.27V37q-4.27-.18-8.55-.46V30.27Z"/></svg>