<svg xmlns="http://www.w3.org/2000/svg" viewBox="0 0 100 100"><defs><style>.a{fill-rule:evenodd;}</style></defs><title>job-epipheo</title><path class="a" d="M90.49,57.22a4.18,4.18,0,0,0,4.24-4.13,4.29,4.29,0,0,0-4.35-4.19A3.92,3.92,0,0,0,86.2,53,4.28,4.28,0,0,0,90.49,57.22ZM75,50.15c.13.15.36.49.61.5,1.07.06,2.93-1.74,2.87-2.74A1.3,1.3,0,0,0,77,46.56c-1.17,0-2.06,1.4-2.06,3.46A.2.2,0,0,0,75,50.15ZM99.84,67.24c.13.18.19.32.16.44a1.91,1.91,0,0,1-1.36,1.08c-.34,0-1.09-.69-1.1-1.08a.69.69,0,0,1,.1-.35A1.31,1.31,0,0,1,99.84,67.24ZM41.63,44.74A1.74,1.74,0,0,1,40,43a2.87,2.87,0,0,1,2.39-2.73,1.42,1.42,0,0,1,1.5,1.61C43.87,43.36,42.79,44.73,41.63,44.74Zm57.1,18.36a2,2,0,0,1-2.11,2.07,2.59,2.59,0,0,1-2.7-2.36c0-1.12.91-1.84,2.29-1.85A2.26,2.26,0,0,1,98.74,63.11Zm-34-25.26a.21.21,0,0,0,.36.08c1.68-2,3-6.8,2.44-8.67a.21.21,0,0,0-.34-.09C65.75,30.48,64.29,35.76,64.74,37.84ZM36.63,55.75c-1.39,1.07-2.61,2-3.85,2.94-2,1.44-4,2.83-6.57,2.87-.58,0-1.64-.32-1.67-.56A2.81,2.81,0,0,1,25.13,59a8,8,0,0,1,2.06-1.38c1.48-.87,2.88-1.83,3.27-3.59a2.05,2.05,0,0,0-.36-1.75,2.08,2.08,0,0,0-1.81.08,8.17,8.17,0,0,0-4,5.18c-.8,2.94-1.33,6-1.93,8.95-.4,2-.62,4.06-1.1,6.05-.45,1.83-1.4,2.6-2.5,2.39a2.55,2.55,0,0,1-1.72-3,53.71,53.71,0,0,1,1.46-6.75c.79-2.86,1.92-5.63,2.56-8.51.39-1.76.24-3.39,2.46-4.27,1.2-.48,1.91-2.11,2.92-3.15a14.22,14.22,0,0,1,2.76-2.41,3.26,3.26,0,0,1,5.08,2.55,12.1,12.1,0,0,1-.61,3.4,7.38,7.38,0,0,0,.72.47A6.89,6.89,0,0,0,35.58,52c.85-1.22,1.5-2.57,2.27-3.84A7.88,7.88,0,0,1,39,46.59c.34-.34,1-.76,1.3-.64a1.78,1.78,0,0,1,1,1.26,6,6,0,0,1-.39,2.27c-.38,1.16-.95,2.25-1.3,3.42a1.38,1.38,0,0,0,.36,1.25,1.41,1.41,0,0,0,1.32-.1,16.66,16.66,0,0,0,2.81-2.76,54.28,54.28,0,0,0,3.29-5.2c.46-.81.94-1.19,1.89-.95a2.34,2.34,0,0,0,2.45-.91,9.76,9.76,0,0,1,2.16-1.91,2.54,2.54,0,0,1,3.78,1.16c.22.42.29.92.48,1.35a10.88,10.88,0,0,0,.57,1,.21.21,0,0,0,.27.08c.46-.23,1-.4,1.2-.76A14.51,14.51,0,0,0,61.47,41c.31-3.57.4-7.17,2-10.5a33.59,33.59,0,0,1,2.09-3.79,3,3,0,0,1,3.33-1.63c1.46.36,1.76,1.58,2,2.82a13.93,13.93,0,0,1-1.56,9.14c-1.08,2-2.41,3.91-3.67,5.85a.21.21,0,0,0,.28.29l.66-.36c1.32-.67,2.72-1.1,4-.07a3.11,3.11,0,0,1,.83,3.73c-.59,1.53-1.49,2.95-2.19,4.44a5.36,5.36,0,0,0-.31,1.43.21.21,0,0,0,.2.24,7.75,7.75,0,0,0,1.4,0c1.25-.21,1.66-1,1.87-2.23a14.76,14.76,0,0,1,1.66-5,4.26,4.26,0,0,1,6.11-1.44,4.19,4.19,0,0,1,1,6.13A14.43,14.43,0,0,1,78,52.64a8.23,8.23,0,0,1-1.6.82.2.2,0,0,0,0,.34,2.42,2.42,0,0,0,2.77.24,6.38,6.38,0,0,0,3.47-3.43c1.87-4.27,5.51-6,10.06-4.71a7.17,7.17,0,0,1,5.64,7.57,7.61,7.61,0,0,1-6.7,6.76c-4,.53-7.25-.66-9.06-4.37a.21.21,0,0,0-.26-.11c-1.17.42-2.26.89-3.39,1.18a5.37,5.37,0,0,1-5.59-1.54c-.6-.64-1-.5-1.71-.28a18.17,18.17,0,0,1-3.85.9c-1.8.16-2.74-.89-2.49-2.68a22.06,22.06,0,0,1,.84-3.16c.15-.5.42-1,.52-1.48.07-.34,0-.86-.16-1a1.38,1.38,0,0,0-1.09-.08,3.55,3.55,0,0,0-2.26,2.57c-.5,1.53-.87,3.11-1.37,4.65a6.17,6.17,0,0,1-1,2.1,1.94,1.94,0,0,1-1.58.57,1.61,1.61,0,0,1-.87-1.27,15.4,15.4,0,0,1,.46-3.08c.14-.68.33-1.34.52-2l-.83-.45c-.36.4-.72.8-1.08,1.21-1.26,1.46-2.42,3-3.8,4.35A5.37,5.37,0,0,1,51,57.41c-.56.12-1.69-.22-1.78-.56a2.35,2.35,0,0,1,.57-1.91,16.2,16.2,0,0,1,2.47-1.75c1.15-.81,2.19-1.76,2.17-3.26A2.53,2.53,0,0,0,53.67,48a2.38,2.38,0,0,0-2,.4c-2.58,1.81-3.3,4.53-3.49,7.45s-.23,5.77-.58,8.63a11.72,11.72,0,0,1-1.43,4,2.63,2.63,0,0,1-2,1.13c-1,0-1.44-1-1.33-1.94a39.52,39.52,0,0,1,.92-5.39c.56-2.15,1.35-4.24,2-6.37a2.37,2.37,0,0,0,.09-.49l-.68-.31a7.34,7.34,0,0,1-.59.53,23,23,0,0,1-3.45,2.59c-1.74.89-3.06.24-3.83-1.55-.11-.26-.24-.52-.42-.91A.21.21,0,0,0,36.63,55.75ZM0,59c1.85-7,7.08-10.61,13.36-13.17l1-.4c.14-.12.15-.23.09-.31-2.41-3.41-2.28-5.61.82-8.6a26.88,26.88,0,0,1,15.08-7.14,12.05,12.05,0,0,1,2,0,.21.21,0,0,1,.2.16l.06.26a.2.2,0,0,1-.1.23,18.92,18.92,0,0,1-2.08,1.08,37.23,37.23,0,0,0-10.57,6,13.16,13.16,0,0,0-2.48,2.7c-.95,1.41-.27,2.7,1.43,3a12,12,0,0,0,1.86,0,8.7,8.7,0,0,1,2.12,0,9.66,9.66,0,0,1,2,.92.2.2,0,0,1,.06.32,4.65,4.65,0,0,1-1.44,1.32c-2.51,1-5.08,1.79-7.62,2.68a15.4,15.4,0,0,0-9,7.57,9.15,9.15,0,0,0-1,5.59c.33,2.38,1.75,3.67,4.16,3.43,1.92-.2,3.8-.81,5.72-1.12a7,7,0,0,1,1.92.12.2.2,0,0,1,.16.29,5,5,0,0,1-1,1.65,12.91,12.91,0,0,1-9,3.18,7.57,7.57,0,0,1-7.46-6c-.07-.28-.18-.55-.28-.82T0,59Z"/></svg>