<svg xmlns="http://www.w3.org/2000/svg" viewBox="0 0 1554.62 398.2"><path d="M1543.84,172.9a13.54,13.54,0,0,0-9.63-4h-47a25.4,25.4,0,0,0,7-20.27,25.38,25.38,0,0,0,3.11-28.07,74.42,74.42,0,0,0-137,11,75.42,75.42,0,0,0-2.61,10.74,75.57,75.57,0,0,0-3.22,8.23,73.94,73.94,0,0,0-1.49,40.65l-14.82,8.56a13.6,13.6,0,0,0-5,18.51l-.8.46a13.63,13.63,0,0,0,6.82,25.44h180.37a13.55,13.55,0,0,0,13-9.74l5.48-17.94c.13-.34.25-.68.36-1l8.86-29a13.7,13.7,0,0,0,.58-3.91A13.54,13.54,0,0,0,1543.84,172.9Zm-3.58,11.43-8.87,29a6.35,6.35,0,0,1-6.07,4.54H1345a6.35,6.35,0,0,1-3.17-11.85l28.12-16.25a3.63,3.63,0,0,0,1.42-4.78,67.13,67.13,0,1,1,119.55-61.12,18.14,18.14,0,0,1-7,24.06l-28.32,16.33a6.35,6.35,0,0,0,3.16,11.86h0v0h75.49a6.35,6.35,0,0,1,6.07,8.16Zm-1051-15.48-9.32,0,20.53-67.67a13.63,13.63,0,0,0-13-17.56H457.56a13.56,13.56,0,0,0-13,9.74l-.5,1.72a74.41,74.41,0,0,0-86-2.35,73.92,73.92,0,0,0-31.63,47.36c-.14.72-.26,1.45-.38,2.17a74.63,74.63,0,0,0-6.87,29.63,13.67,13.67,0,0,0-8.61-3.08H266.39L298,65.42A13.64,13.64,0,0,0,285,47.8H255.17a13.56,13.56,0,0,0-13,9.74L236.6,75.59c-.11.3-.22.61-.32.92L208,168.9H143L187.29,24.19a13.63,13.63,0,0,0-13-17.58H35.05A13.63,13.63,0,0,0,22,16.29l-5.7,18.58c0,.13-.1.26-.14.4L7.39,63.71a13.63,13.63,0,0,0,13,17.58h91.05L84.66,168.9H53.42A15.66,15.66,0,0,0,38.36,180l-5.57,18.22c-.09.25-.19.5-.26.75l-8.28,27.08a13.63,13.63,0,0,0,13,17.58H61.82L20.43,378.85a13.64,13.64,0,0,0,13,17.58H63.35a13.56,13.56,0,0,0,13-9.74l5.49-18c.13-.33.24-.67.35-1l38-124.21h65l-24.78,81a13.64,13.64,0,0,0,13,17.57h29.81a13.61,13.61,0,0,0,13.09-9.7l5.44-17.85c.15-.37.28-.74.4-1.13l6.75-22.14a70.52,70.52,0,0,1,67-47.76,13.56,13.56,0,0,0,13-9.74l5.51-18c.12-.31.23-.63.33-1l6.77-22.14a74.42,74.42,0,0,0,112.67,43.1,43.09,43.09,0,0,0,23.44,6.9h17.24A13.56,13.56,0,0,0,488,233l5.47-17.9q.2-.52.37-1.07l8.42-27.56a13.63,13.63,0,0,0-13-17.58ZM316.56,184.22l-8.73,28.53a6.35,6.35,0,0,1-6.07,4.53A78.2,78.2,0,0,0,227,272.62l-11.79,38.7a6.4,6.4,0,0,1-6.12,4.54H179.28a6.35,6.35,0,0,1-6.07-8.17l25.12-82.28a6.35,6.35,0,0,0-6.07-8.16h-67a6.35,6.35,0,0,0-6.07,4.54l-44,143.85a6.35,6.35,0,0,1-6.07,4.54H39.3A6.35,6.35,0,0,1,33.23,362L75,225.58a6.35,6.35,0,0,0-6.07-8.16H43.11A6.35,6.35,0,0,1,37,209.25l8.28-27.08a8.46,8.46,0,0,1,8.09-6h32a6.35,6.35,0,0,0,6.07-4.53L124.6,63.2A6.35,6.35,0,0,0,118.53,55H26.26a6.35,6.35,0,0,1-6.07-8.16l8.73-28.45a6.42,6.42,0,0,1,6.14-4.54h139.2a6.35,6.35,0,0,1,6.07,8.16l-44.6,146a6.35,6.35,0,0,0,6.07,8.16h67a6.35,6.35,0,0,0,6.07-4.53l34.27-112a6.35,6.35,0,0,1,6.07-4.54H285a6.35,6.35,0,0,1,6.07,8.2l-32,104.61a6.35,6.35,0,0,0,6.07,8.16h45.33a6.35,6.35,0,0,1,6.07,8.16Zm178.71.08-8.44,27.6a6.35,6.35,0,0,1-6.07,4.54H463.53a36,36,0,0,1-20-6.07,6.23,6.23,0,0,0-6.89,0,67.13,67.13,0,1,1,4-108.75,6.35,6.35,0,0,0,10-3.11l.91-3.09a6.35,6.35,0,0,1,6.07-4.54h29.83A6.35,6.35,0,0,1,493.46,99l-20.9,68.9a6.35,6.35,0,0,0,4.27,7.9,6.45,6.45,0,0,0,1.8.27l10.57,0a6.35,6.35,0,0,1,6.07,8.16ZM597.46,301l-5.4,17.82a13.6,13.6,0,0,1-10.56,9.46h0q-.58.11-1.18.17h-.05c-.41,0-.82.06-1.24.06H579c-.53,0-1,0-1.51-.07l-.31,0c-.44,0-.86-.11-1.26-.19l-.41-.09c-.3-.07-.59-.14-.87-.22l-.69-.22-.5-.19a12.37,12.37,0,0,1-1.24-.57h0a13.67,13.67,0,0,1-6.41-8.56c-.83-3.08-1.81-10.69,6.35-15.42l16.08-9.29a6.35,6.35,0,0,1,9.25,7.35ZM399.39,129.21a25.4,25.4,0,0,0,0,50.8h0a25.4,25.4,0,0,0,25.4-25.38v0h0A25.4,25.4,0,0,0,399.39,129.21Zm0,43.52h0A18.14,18.14,0,0,1,382,159.64a18.09,18.09,0,0,1,28.94,8.91A18,18,0,0,1,399.41,172.72ZM762.1,138.47a3.63,3.63,0,0,1-1.31,5l-37,21.34a3.57,3.57,0,0,1-.62.29,3.62,3.62,0,0,1-4.62-2.23h0a25.4,25.4,0,0,1,43.16-24.93A3.69,3.69,0,0,1,762.1,138.47Zm688.74.25a3.63,3.63,0,0,1-1.31,5l-37,21.38a3.63,3.63,0,0,1-5.24-1.94l0,0a25.4,25.4,0,0,1,43.16-24.93A3.65,3.65,0,0,1,1450.85,138.71ZM1325,88.55A55.1,55.1,0,0,0,1262.85,84L1234,100.62V97.44a13.65,13.65,0,0,0-13.63-13.63h-12.7a13.56,13.56,0,0,0-13,9.74l-5.47,17.91q-.2.52-.37,1.07l-5.28,17.27-62.9,36.3,19.71-64.63a13.61,13.61,0,0,0-6.38-15.82,33.05,33.05,0,0,0,24.77-32c0-.09,0-.17,0-.26a33,33,0,1,0-60.14-18.72c0,.09,0,.17,0,.26a33,33,0,0,0,13.89,48.92h-15.54a13.72,13.72,0,0,0-13.06,9.74l-5.43,17.81c-.15.38-.29.76-.41,1.16l-17.76,58.28c-.52,1.7-.94,3.4-1.29,5.11a13.6,13.6,0,0,0-11.92-7.11h-37.59l10.3-33.6h16.39a13.56,13.56,0,0,0,13-9.74l5.41-17.76c.16-.4.31-.8.43-1.22l8.67-28.47a13.64,13.64,0,0,0-13-17.57h-8.14l11.17-36.33a13.63,13.63,0,0,0-13-17.58h-29.85a13.55,13.55,0,0,0-13,9.74l-5.52,18c-.11.3-.22.61-.32.93l-2.71,8.84a24.09,24.09,0,0,1-22.91,16.39,13.56,13.56,0,0,0-13,9.74l-8.75,28.34c0,.11,0,.21-.08.32l-5.76,18.66a13.63,13.63,0,0,0,13,17.6h9.66l-14.75,48.24c0-.31,0-.62,0-.93a13.63,13.63,0,0,0-13.6-13.66H895.53L928,62.83A43.57,43.57,0,0,0,886.3,6.53h-24a13.56,13.56,0,0,0-13,9.74l-5.56,18.17c-.1.26-.19.53-.27.8L834.77,63.6a13.72,13.72,0,0,0-.58,3.91,13.63,13.63,0,0,0,13.6,13.66H864l-29.84,97.57A13.6,13.6,0,0,0,821,168.62H798.54a25.4,25.4,0,0,0,7-20.23,25.38,25.38,0,0,0,3.11-28.07,74.38,74.38,0,0,0-139.18,22.55A74.56,74.56,0,0,0,665,192.8l-3.53,2A55.56,55.56,0,0,0,620.93,169L633,162a10.87,10.87,0,0,0,5-6.23l5.7-18.6c0-.12.09-.24.13-.37l10.89-35.51a13.63,13.63,0,0,0-13-17.58H534a13.56,13.56,0,0,0-13,9.74l-5.52,18.05c-.11.3-.22.61-.32.92l-8.71,28.48a13.76,13.76,0,0,0-.58,3.9,13.63,13.63,0,0,0,13.6,13.68h21.92l-11.82,6.82a10.87,10.87,0,0,0-5,6.24l-5.5,18c-.13.31-.24.63-.34.95L507.8,226.33a13.7,13.7,0,0,0-.58,3.91,13.63,13.63,0,0,0,13.6,13.66h55.6l-28.82,16.64a62.68,62.68,0,0,0-30.71,45.58,63,63,0,0,0-3.72,9.38A62.69,62.69,0,1,0,633.1,352.07l5-16.47q.43-1.24.82-2.5l16.52-54.21,60.61-35h90.21a13.56,13.56,0,0,0,13-9.74l5.46-17.87c.14-.36.27-.73.38-1.1l4.74-15.51a43.61,43.61,0,0,0,43.55,43H918.8a13.56,13.56,0,0,0,13-9.74L937.32,215q.2-.52.36-1.05l6.8-22.25a43.57,43.57,0,0,0,42.93,51h45.36a13.56,13.56,0,0,0,13-9.74l5.47-17.91q.2-.52.36-1.07l6.5-21.28A55.36,55.36,0,0,0,1140.91,235l12.94-7.51a13.63,13.63,0,0,0,13.5,15.2h29.86a13.56,13.56,0,0,0,13-9.74l5.48-17.94c.13-.34.25-.68.35-1l8.35-27.32,58.67-33.87-22,72.27a13.64,13.64,0,0,0,13,17.57h30.35a13.72,13.72,0,0,0,13.06-9.74L1323,215c.15-.37.29-.76.4-1.15l20.12-66A54.77,54.77,0,0,0,1325,88.55ZM827,184.07l-8.86,29a6.35,6.35,0,0,1-6.07,4.54H720.92a3.63,3.63,0,0,0-1.81.49l-64,37L632,331a55.41,55.41,0,1,1-80.74-64.12l64.7-37.36a6.35,6.35,0,0,0-3.18-11.85H526.67a6.35,6.35,0,0,1-6.07-8.16l10.92-35.82a3.63,3.63,0,0,1,1.66-2.08L580.88,144a6.35,6.35,0,0,0-3.18-11.85H525.29a6.35,6.35,0,0,1-6.07-8.16L528,95.5A6.35,6.35,0,0,1,534,91H641.71a6.35,6.35,0,0,1,6.07,8.16l-10.88,35.5a3.64,3.64,0,0,1-1.66,2.08L587.95,164a6.35,6.35,0,0,0,3.18,11.85h23.08a48.31,48.31,0,0,1,44.31,29.09l23.59-13.61a3.63,3.63,0,0,0,1.36-4.89,67.14,67.14,0,1,1,118.7-62.77,18.14,18.14,0,0,1-7,24.06l-28.32,16.33A6.35,6.35,0,0,0,770,175.91h51a6.35,6.35,0,0,1,6.07,8.16Zm112.1.23-8.44,27.6a6.35,6.35,0,0,1-6.07,4.54H879.28a36.28,36.28,0,0,1-34.7-46.89L877.14,63.09a6.35,6.35,0,0,0-6.07-8.16H853.64a6.35,6.35,0,0,1-6.07-8.16l8.7-28.41a6.35,6.35,0,0,1,6.07-4.53h24A36.29,36.29,0,0,1,921,60.7L888.2,167.94a6.35,6.35,0,0,0,6.07,8.2h38.81a6.35,6.35,0,0,1,6.07,8.16Zm114,0-8.44,27.6a6.35,6.35,0,0,1-6.07,4.54H993.25a36.29,36.29,0,0,1-34.7-46.9l16-52.44a6.35,6.35,0,0,0-6.07-8.16H957.59a6.35,6.35,0,0,1-6.07-8.16l8.77-28.41a6.35,6.35,0,0,1,6.07-4.54,31.52,31.52,0,0,0,30.14-22.31l8.29-27.1a6.35,6.35,0,0,1,6.07-4.54h29.84a6.35,6.35,0,0,1,6.07,8.16l-11.51,37.58a6.35,6.35,0,0,0,6.07,8.16h9.35a6.35,6.35,0,0,1,6.07,8.16l-8.68,28.51A6.35,6.35,0,0,1,1042,109h-17.11v0a6.35,6.35,0,0,0-6.07,4.57L1002.17,168a6.35,6.35,0,0,0,6.07,8.16H1047a6.35,6.35,0,0,1,6.07,8.16ZM1105.84,34.7a25.71,25.71,0,1,1,25.71,25.71A25.71,25.71,0,0,1,1105.84,34.7Zm230.68,111-20.14,66.06a6.35,6.35,0,0,1-6.08,4.53H1280a6.35,6.35,0,0,1-6.08-8.16l22.72-74.53a6.35,6.35,0,0,0-9.25-7.35l-61.08,35.26a6.35,6.35,0,0,0-2.89,3.63l-14.27,46.68a6.35,6.35,0,0,1-6.07,4.53h-29.84a6.35,6.35,0,0,1-6.07-8.16l1.93-6.35a3.63,3.63,0,0,0-5.29-4.2l-20.68,12a48.08,48.08,0,0,1-70-55.66l17.77-58.32a6.35,6.35,0,0,1,6.08-4.53h30.34a6.35,6.35,0,0,1,6.08,8.16l-20.4,66.9a6.35,6.35,0,0,0,9.25,7.35l65.31-37.69a6.34,6.34,0,0,0,2.89-3.63l11.19-36.63a6.35,6.35,0,0,1,6.07-4.53h12.7a6.35,6.35,0,0,1,6.35,6.35V107a3.63,3.63,0,0,0,5.44,3.14l34.35-19.83a48,48,0,0,1,70,55.47Z"/></svg>