<svg xmlns="http://www.w3.org/2000/svg" viewBox="0 0 1719.75 639.11"><title>logo-hazeltine-skew</title><path d="M1707.24,130.44a13.11,13.11,0,0,0-9.36-3.82,14.39,14.39,0,0,0-2.19.17l-56.23,8.85.37-.27a31.27,31.27,0,0,0,12.93-25.17c6.42-9,7.77-20.77,2.62-29.9-12-21.63-34.76-34.56-60.78-34.56-17,0-34,5.38-49.19,15.56a98.91,98.91,0,0,0-39.64,52.82q-1.22,4-2.06,7.93A94.47,94.47,0,0,0,1500,132c-5.12,16.65-5.22,33.38-.48,48.37l-19.16,14.09a15.63,15.63,0,0,0-6.46,12.47,13.7,13.7,0,0,0,1,5.19l-.29.22a15.63,15.63,0,0,0-6.46,12.47,13.25,13.25,0,0,0,3.82,9.45,13.1,13.1,0,0,0,9.36,3.82,14.38,14.38,0,0,0,2.22-.17l198.84-31.31A15.94,15.94,0,0,0,1695,195.34l4.13-14.16a15.46,15.46,0,0,0,1.62-3.71l9.77-33.5a14.83,14.83,0,0,0,.58-4A13.25,13.25,0,0,0,1707.24,130.44Zm-222.56,69.88,31-22.79a4.43,4.43,0,0,0,1.56-5.52c-18.61-33.46-4.19-80.32,32.21-104.66,14.47-9.67,30.23-14.33,45.14-14.33,22.6,0,43.23,10.7,54.44,30.86,4.92,8.72,1.5,20.94-7.76,27.74L1610,134.54c-3.35,2.45-4.51,6.91-2.58,10a5.77,5.77,0,0,0,5,2.64,7,7,0,0,0,1.13-.09v0L1696.8,134a7.06,7.06,0,0,1,1.08-.08,5.78,5.78,0,0,1,5.9,6,7.48,7.48,0,0,1-.29,2l-9.78,33.54a8.59,8.59,0,0,1-6.69,6.05l-198.84,31.31a7.06,7.06,0,0,1-1.09.09,5.78,5.78,0,0,1-5.9-6A8.41,8.41,0,0,1,1484.68,200.32Zm72.21-58.74c-3.68-10.18-.49-22.59,8.07-31.41A32.2,32.2,0,0,1,1587.75,100a23.45,23.45,0,0,1,16.72,6.6,3.18,3.18,0,0,1,.45.55,4.38,4.38,0,0,1-1.45,5.7l-40.78,30a4.83,4.83,0,0,1-.68.42,4.29,4.29,0,0,1-1.94.48,3.27,3.27,0,0,1-3.16-2.13ZM1047.8,248.28a14.85,14.85,0,0,0,.58-4,13.25,13.25,0,0,0-3.82-9.48,13.11,13.11,0,0,0-9.36-3.82,14.39,14.39,0,0,0-2.19.17l-40.92,6.44,35.71-122.37a50,50,0,0,0,2-14A41.62,41.62,0,0,0,1018,71.44a40.8,40.8,0,0,0-29.19-11.76h0a47.8,47.8,0,0,0-7.4.59L955,64.43a16,16,0,0,0-12.56,11.25L938.31,89.9a15.38,15.38,0,0,0-1.6,3.66l-9.58,32.78a14.84,14.84,0,0,0-.58,4,13.25,13.25,0,0,0,3.82,9.48,13.11,13.11,0,0,0,9.36,3.82,14.39,14.39,0,0,0,2.19-.17l17.34-2.73L924.43,260.2a13,13,0,0,0-12.8-10.07,14.39,14.39,0,0,0-2.19.17l-29.12,4.59.3-.22a31.27,31.27,0,0,0,12.93-25.17c6.42-9,7.77-20.77,2.62-29.9l0,0,0,0a66.22,66.22,0,0,0-25.72-25.14,72.49,72.49,0,0,0-34.55-8.53v0c-17.36,0-34.71,5.61-50.17,16.22a98.78,98.78,0,0,0-39,53.26c-.66,2.24-1.21,4.48-1.69,6.72a94.62,94.62,0,0,0-4.07,11.16c-4.91,16.71-4.78,33.42.2,48.33L733.7,307a49.52,49.52,0,0,0-14.79-14,53.51,53.51,0,0,0-28-7.68,60.42,60.42,0,0,0-7.84.52l21.29-15.64a12.26,12.26,0,0,0,4.5-6.39l4.32-14.77a12.08,12.08,0,0,0,1.43-3.11l12-41v0a14.76,14.76,0,0,0,.57-4,13.25,13.25,0,0,0-3.82-9.48A13.1,13.1,0,0,0,714,187.6a14.39,14.39,0,0,0-2.19.17l-118.74,18.7a15.94,15.94,0,0,0-12.56,11.25l-4.14,14.2a15.38,15.38,0,0,0-1.61,3.68l-9.61,32.92a14.83,14.83,0,0,0-.58,4A13.25,13.25,0,0,0,568.4,282a13.11,13.11,0,0,0,9.36,3.82,14.39,14.39,0,0,0,2.19-.17l30.74-4.84-21.71,16a12.27,12.27,0,0,0-4.5,6.39L580.2,317.9a12.09,12.09,0,0,0-1.48,3.17l-12,41.41a14.83,14.83,0,0,0-.58,4,13.25,13.25,0,0,0,3.82,9.48,13.11,13.11,0,0,0,9.36,3.82,14.39,14.39,0,0,0,2.19-.17L649.33,369l-40.45,29.72A83,83,0,0,0,578.36,442q-1,3.49-1.67,7a79.11,79.11,0,0,0-4.08,10.89c-5.53,19-3.15,38.58,6.53,53.66,8.92,13.9,23.13,22.93,40,25.42a65,65,0,0,0,9.45.69c16,0,32.4-5.88,46.12-16.56a83.08,83.08,0,0,0,28.72-41.91l2.72-9.37a78.39,78.39,0,0,0,3-8.51l19.75-67.95,67.37-49.51,99.84-15.72a15.94,15.94,0,0,0,12.56-11.25l4.12-14.15a15.47,15.47,0,0,0,1.63-3.73l7.34-25.18c0,.15,0,.3,0,.44A41.62,41.62,0,0,0,933.62,306a40.8,40.8,0,0,0,29.19,11.76,47.75,47.75,0,0,0,7.4-.59l50-7.87A16,16,0,0,0,1032.76,298l4.13-14.16a15.47,15.47,0,0,0,1.62-3.71ZM613.2,404.56l71.32-52.41c3.35-2.46,4.49-6.92,2.56-10a5.77,5.77,0,0,0-5-2.63,7,7,0,0,0-1.09.09l-94.9,14.94a7.06,7.06,0,0,1-1.08.08,5.78,5.78,0,0,1-5.9-6,7.49,7.49,0,0,1,.29-2l12-41.39a5,5,0,0,1,1.83-2.58L645.88,264c3.35-2.46,4.49-6.92,2.56-10a5.77,5.77,0,0,0-5-2.63,7,7,0,0,0-1.09.09l-57.78,9.1a7.06,7.06,0,0,1-1.08.08,5.78,5.78,0,0,1-5.9-6,7.49,7.49,0,0,1,.29-2l9.62-33a8.59,8.59,0,0,1,6.69-6.05L712.94,195a7.05,7.05,0,0,1,1.08-.08,5.78,5.78,0,0,1,5.9,6,7.49,7.49,0,0,1-.29,2l-12,41a5,5,0,0,1-1.83,2.58l-52.13,38.31c-3.35,2.46-4.49,6.92-2.56,10a5.77,5.77,0,0,0,5,2.63,7,7,0,0,0,1.09-.09l24.62-3.88a53.5,53.5,0,0,1,9.12-.79c17.8,0,33.23,9.28,40.56,25l26-19.09A4.41,4.41,0,0,0,759,293c-19.11-33.12-5.3-80.08,30.83-104.87,14.69-10.08,30.81-14.95,46.05-14.95,22.25,0,42.63,10.37,54,30,4.92,8.72,1.5,20.94-7.76,27.74l-31.22,22.92c-3.35,2.46-4.49,6.92-2.56,10a5.77,5.77,0,0,0,5,2.63,7,7,0,0,0,1.08-.08l56.22-8.85a7.05,7.05,0,0,1,1.08-.08,5.78,5.78,0,0,1,5.9,6,7.48,7.48,0,0,1-.29,2L907.47,299a8.59,8.59,0,0,1-6.69,6.05L800.25,320.86a4.61,4.61,0,0,0-2,.85l-70.56,51.85L702.2,461.24c-9,30.89-38.26,53.23-67.85,53.23a57.46,57.46,0,0,1-8.39-.61c-32.27-4.76-50.45-36-40.61-69.84A75.9,75.9,0,0,1,613.2,404.56ZM404.63,252.1c15.85-13.09,34.68-19.86,52.65-19.86a63.91,63.91,0,0,1,34,9.38,6,6,0,0,0,3.22.9,8.26,8.26,0,0,0,6.61-3.64,8.45,8.45,0,0,0,1.17-2.42l1-3.57a8.59,8.59,0,0,1,6.69-6.05l32.89-5.18a7.05,7.05,0,0,1,1.08-.08,5.78,5.78,0,0,1,5.9,6,7.48,7.48,0,0,1-.29,2l-23,79.58c-1.1,3.88,1,7.45,4.71,8a6.55,6.55,0,0,0,.91.06,7,7,0,0,0,1.07-.08l11.65-1.79a7.06,7.06,0,0,1,1.08-.08,5.78,5.78,0,0,1,5.9,6,7.49,7.49,0,0,1-.29,2l-9.3,31.89a8.59,8.59,0,0,1-6.69,6.05l-18.91,3a39.67,39.67,0,0,1-6.26.5A34.75,34.75,0,0,1,494.47,361a6,6,0,0,0-2.73-.64,7.75,7.75,0,0,0-4.87,1.83c-16.1,13.29-34.88,19.86-52.61,19.86-19.69,0-38.08-8.11-50-24.1C361.51,327.56,370.65,280.16,404.63,252.1ZM545.89,308a14.4,14.4,0,0,0-2.19.17l-9.78,1.51,22.59-78a14.8,14.8,0,0,0,.58-4,13.25,13.25,0,0,0-3.82-9.48,13.1,13.1,0,0,0-9.36-3.82,14.39,14.39,0,0,0-2.19.17l-32.91,5.18a15.94,15.94,0,0,0-12.56,11.25l-1,3.52a1.22,1.22,0,0,1-.16.3,1.46,1.46,0,0,1-.47.44A71.51,71.51,0,0,0,457.27,225c-20.13,0-40.47,7.65-57.28,21.53a97.6,97.6,0,0,0-33.6,54.58,92.43,92.43,0,0,0-6.12,19.59A83.57,83.57,0,0,0,359,343.56a13.05,13.05,0,0,0-8.2-4.52,13.86,13.86,0,0,0-1.93-.13,14.33,14.33,0,0,0-2.18.17l-48.1,7.57,34.8-119.29a13.94,13.94,0,0,0-1.51-11.44,13,13,0,0,0-9.07-5.81,13.89,13.89,0,0,0-2-.15,14.34,14.34,0,0,0-2.21.17l-32.9,5.18a15.94,15.94,0,0,0-12.56,11.25L269,240.77a15.38,15.38,0,0,0-1.61,3.68l-32.81,112.4-.06,0L162.59,368.2l48.71-167.07a13.94,13.94,0,0,0-1.57-11.46,13,13,0,0,0-9.12-5.75,13.87,13.87,0,0,0-1.93-.13,14.36,14.36,0,0,0-2.18.17L43,208.13a15.94,15.94,0,0,0-12.55,11.2l-4.18,14.29a15.38,15.38,0,0,0-1.57,3.58L15,270.08v.05a13.91,13.91,0,0,0,1.58,11.42,13,13,0,0,0,9.12,5.75,13.87,13.87,0,0,0,1.93.13,14.34,14.34,0,0,0,2.18-.17l99.85-15.72L98.57,378.27l-.05,0-37,5.82A15.94,15.94,0,0,0,49,395.36l-4.14,14.2a15.38,15.38,0,0,0-1.61,3.68l-9.61,32.92a13.94,13.94,0,0,0,1.57,11.46,13,13,0,0,0,9.12,5.75,13.86,13.86,0,0,0,1.93.13,14.33,14.33,0,0,0,2.18-.17L75,459.16,29.41,615.22A13.94,13.94,0,0,0,31,626.68a13,13,0,0,0,9.12,5.75,13.84,13.84,0,0,0,1.93.13,14.31,14.31,0,0,0,2.19-.17l33-5.19A15.94,15.94,0,0,0,89.72,616l4.13-14.17a15.46,15.46,0,0,0,1.62-3.71L139,448.91l.06,0L211,437.57,183.72,531a13.94,13.94,0,0,0,1.57,11.46,13,13,0,0,0,9.12,5.75,13.88,13.88,0,0,0,1.93.13,14.33,14.33,0,0,0,2.18-.17L231.42,543A15.94,15.94,0,0,0,244,531.79l4.11-14.12a15.47,15.47,0,0,0,1.65-3.75l10.51-36.13A99.55,99.55,0,0,1,286,441.51c13.9-12.47,30.34-20.5,47.55-23.21a15.94,15.94,0,0,0,12.56-11.25l4.14-14.17a15.46,15.46,0,0,0,1.62-3.7l9.44-32.35a69.22,69.22,0,0,0,11.33,23.37c12.83,17.18,33.19,27,55.86,27,20.1,0,40.44-7.65,57.25-21.53l.12-.09a42.37,42.37,0,0,0,18.71,4.27,47.1,47.1,0,0,0,7.41-.59l18.89-3a15.94,15.94,0,0,0,12.56-11.25l4.13-14.16a15.46,15.46,0,0,0,1.63-3.72l9.29-31.85a14.85,14.85,0,0,0,.58-4,13.25,13.25,0,0,0-3.82-9.48A13.1,13.1,0,0,0,545.89,308ZM441.42,335.53a28.21,28.21,0,0,0,4.39-.35c15.46-2.42,28-16.93,28-32.39v0h0c0-14-10.23-23.94-23.61-23.94a28.18,28.18,0,0,0-4.39.35c-15.46,2.43-28,16.94-28,32.41C417.81,325.56,428,335.53,441.42,335.53Zm3.26-7.54a21,21,0,0,1-3.26.26c-8.85,0-15.23-5.81-16.19-14.39a26.27,26.27,0,0,1,16-9.61,21,21,0,0,1,3.26-.26c8.85,0,15.24,5.82,16.19,14.4A26.26,26.26,0,0,1,444.68,328ZM56,397.36a8.59,8.59,0,0,1,6.69-6.05l37-5.83a8.59,8.59,0,0,0,6.69-6.05l36.52-125.3a7.49,7.49,0,0,0,.29-2,5.78,5.78,0,0,0-5.9-6,7.06,7.06,0,0,0-1.08.08l-101.72,16a7,7,0,0,1-1.07.08,6.54,6.54,0,0,1-.91-.06c-3.7-.52-5.81-4.09-4.71-8l9.62-32.87a8.59,8.59,0,0,1,6.69-6.05l153.53-24.17a7,7,0,0,1,1.07-.08,6.55,6.55,0,0,1,.91.06c3.7.52,5.81,4.09,4.71,8L155.14,367.74a7.49,7.49,0,0,0-.29,2,5.78,5.78,0,0,0,5.9,6,7.05,7.05,0,0,0,1.08-.08l73.83-11.62a8.59,8.59,0,0,0,6.69-6.05l37.78-129.45a8.59,8.59,0,0,1,6.69-6.05l32.89-5.18a7,7,0,0,1,1.08-.09,6.54,6.54,0,0,1,1,.07c3.7.54,5.78,4.13,4.66,8L291.14,346.19a7.49,7.49,0,0,0-.29,2,5.78,5.78,0,0,0,5.9,6,7.05,7.05,0,0,0,1.08-.08l50-7.87a7,7,0,0,1,1.07-.08,6.54,6.54,0,0,1,.91.06c3.7.52,5.81,4.09,4.71,8l-9.62,33a8.59,8.59,0,0,1-6.69,6.05c-37.9,6-71.36,36-82.44,74l-13,44.71A8.59,8.59,0,0,1,236,518l-32.89,5.18a7,7,0,0,1-1.07.08,6.55,6.55,0,0,1-.91-.06c-3.7-.52-5.81-4.09-4.71-8l27.69-95.06a7.49,7.49,0,0,0,.29-2,5.78,5.78,0,0,0-5.9-6,7.05,7.05,0,0,0-1.08.08l-73.82,11.62a8.59,8.59,0,0,0-6.69,6.05L88.48,596.09a8.59,8.59,0,0,1-6.69,6.05l-32.94,5.19a7,7,0,0,1-1.07.08,6.54,6.54,0,0,1-.91-.06c-3.7-.52-5.81-4.09-4.71-8l46-157.64a7.49,7.49,0,0,0,.29-2,5.78,5.78,0,0,0-5.9-6,7.05,7.05,0,0,0-1.08.08L53,438.27a7,7,0,0,1-1.07.08,6.55,6.55,0,0,1-.91-.06c-3.7-.52-5.81-4.09-4.71-8Zm1429.9-260.58a59.64,59.64,0,0,0-.16-35.39,49.47,49.47,0,0,0-20.61-26.73,52.81,52.81,0,0,0-28.66-8.17c-13.5,0-27.37,4.76-39.06,13.41l-32.26,23.7v-3a13.08,13.08,0,0,0-13.18-13.27,14.37,14.37,0,0,0-2.23.18l-14,2.2a15.94,15.94,0,0,0-12.56,11.25L1319,115.12a15.38,15.38,0,0,0-1.62,3.69L1310,144.1l-69.79,51.26,21.67-74.47a13.94,13.94,0,0,0-1.57-11.46,13,13,0,0,0-9.12-5.75,13.86,13.86,0,0,0-1.93-.13,14.32,14.32,0,0,0-2.2.17L1213.62,109a15.94,15.94,0,0,0-12.57,11.25l-4.11,14.15a15.4,15.4,0,0,0-1.64,3.73l-19.58,67.34a64.32,64.32,0,0,0-2.47,14.43,12.84,12.84,0,0,0-10.49-8.59,13.85,13.85,0,0,0-1.93-.13,14.34,14.34,0,0,0-2.18.17l-40.91,6.44,12.94-44.34h0l18.86-3a15.94,15.94,0,0,0,12.56-11.25l4.1-14.11a15.47,15.47,0,0,0,1.65-3.76l9.56-32.9A13.94,13.94,0,0,0,1175.89,97a13,13,0,0,0-9.12-5.75,13.85,13.85,0,0,0-1.93-.13,14.34,14.34,0,0,0-2.18.17l-8.44,1.33,12.23-41.84a13.94,13.94,0,0,0-1.57-11.46,13,13,0,0,0-9.12-5.75,13.88,13.88,0,0,0-1.93-.13,14.33,14.33,0,0,0-2.18.17l-32.91,5.18A15.94,15.94,0,0,0,1106.19,50L1102,64.19a15.38,15.38,0,0,0-1.61,3.68L1095,86.59c-4.91,10-14.65,17.66-25.28,19.34a15.94,15.94,0,0,0-12.54,11.2l-4.24,14.39a15.37,15.37,0,0,0-1.52,3.49l-9.67,32.83v.06a13.91,13.91,0,0,0,1.58,11.42,13,13,0,0,0,9.12,5.75,13.87,13.87,0,0,0,1.93.13,14.33,14.33,0,0,0,2.18-.17l10.13-1.59-17.17,59c-3.84,13.15-2.18,26.71,4.54,37.21a39.47,39.47,0,0,0,27.93,17.8,44.73,44.73,0,0,0,6.55.48,47.42,47.42,0,0,0,7.35-.58l50-7.87a15.94,15.94,0,0,0,12.56-11.25l4.13-14.16a15.46,15.46,0,0,0,1.62-3.71l9.25-31.71a53.56,53.56,0,0,0,8.09,24.15,50,50,0,0,0,35.38,22.49,56.92,56.92,0,0,0,8.29.6c13.48,0,27.35-4.74,39.06-13.35l14.67-10.83a13.62,13.62,0,0,0,2.09,8.61,13,13,0,0,0,9.12,5.75,13.85,13.85,0,0,0,1.93.13,14.34,14.34,0,0,0,2.18-.17l32.91-5.18a15.94,15.94,0,0,0,12.56-11.25l4.13-14.17a15.46,15.46,0,0,0,1.62-3.71l10.76-36.9L1421.32,147l-24.23,83.29a13.94,13.94,0,0,0,1.57,11.46,13,13,0,0,0,9.12,5.75,13.89,13.89,0,0,0,1.93.13,14.32,14.32,0,0,0,2.2-.17l33.46-5.27a15.94,15.94,0,0,0,12.57-11.25L1462,216.8a15.47,15.47,0,0,0,1.64-3.75Zm-421.74-17.6a8.59,8.59,0,0,1,6.69-6.05c15.28-2.41,28.76-14.51,33.23-29.82L1113.2,52a8.59,8.59,0,0,1,6.69-6.05l32.89-5.18a7,7,0,0,1,1.07-.08,6.55,6.55,0,0,1,.91.06c3.7.52,5.81,4.09,4.71,8l-12.69,43.43a7.47,7.47,0,0,0-.29,2,5.78,5.78,0,0,0,5.9,6,7.06,7.06,0,0,0,1.08-.08l10.31-1.62a7,7,0,0,1,1.07-.08,6.55,6.55,0,0,1,.91.06c3.7.52,5.81,4.09,4.71,8l-9.57,32.94a8.59,8.59,0,0,1-6.69,6.05l-18.86,3v0a8.59,8.59,0,0,0-6.69,6.09l-18.35,62.89a7.48,7.48,0,0,0-.29,2,5.78,5.78,0,0,0,5.9,6,7.05,7.05,0,0,0,1.08-.08l42.78-6.74a7,7,0,0,1,1.07-.08,6.56,6.56,0,0,1,.91.06c3.7.52,5.81,4.09,4.71,8l-9.3,31.89a8.59,8.59,0,0,1-6.69,6.05l-50,7.87a40,40,0,0,1-6.22.49,37.31,37.31,0,0,1-5.48-.4c-21.13-3.14-33-23.63-26.55-45.77L1079.85,166a7.48,7.48,0,0,0,.29-2,5.78,5.78,0,0,0-5.9-6,7.06,7.06,0,0,0-1.08.08l-12,1.89a7,7,0,0,1-1.07.08,6.54,6.54,0,0,1-.91-.06c-3.7-.52-5.81-4.09-4.71-8Zm143.92,3a8.59,8.59,0,0,1,6.7-6.05l33.45-5.27a7,7,0,0,1,1.08-.08,6.55,6.55,0,0,1,.91.06c3.7.52,5.81,4.09,4.71,8l-22.49,77.29a6.65,6.65,0,0,0,.64,5.44,5.76,5.76,0,0,0,5,2.63,7.79,7.79,0,0,0,4.59-1.58l72-52.89a8.7,8.7,0,0,0,3.19-4.5l12.34-42.32a8.59,8.59,0,0,1,6.69-6.05l14-2.2a7,7,0,0,1,1.1-.09,5.78,5.78,0,0,1,5.9,6v10.49a3.56,3.56,0,0,0,.54,1.91,3.29,3.29,0,0,0,2.84,1.5,4.45,4.45,0,0,0,2.62-.9l37.87-27.82c10.72-7.93,23-12,34.73-12a45.44,45.44,0,0,1,24.75,7c17,10.79,24,32.2,17.7,54l-22.2,76.32a8.59,8.59,0,0,1-6.7,6.06l-33.45,5.27a7,7,0,0,1-1.08.08,6.55,6.55,0,0,1-.91-.06c-3.7-.52-5.81-4.09-4.71-8l25.05-86.1a6.65,6.65,0,0,0-.64-5.44,5.76,5.76,0,0,0-5-2.63,7.79,7.79,0,0,0-4.59,1.58l-67.33,49.47a8.7,8.7,0,0,0-3.19,4.5l-15.73,53.94a8.59,8.59,0,0,1-6.69,6.05L1298.86,241a7,7,0,0,1-1.07.08,6.55,6.55,0,0,1-.91-.06c-3.7-.52-5.81-4.09-4.71-8l2.13-7.34a3.8,3.8,0,0,0-.36-3.12,3.29,3.29,0,0,0-2.84-1.5,4.45,4.45,0,0,0-2.62.9l-22.8,16.82c-10.57,7.77-22.84,11.93-34.75,11.93a49.46,49.46,0,0,1-7.22-.52c-28-4.13-43.77-31.27-35.23-60.61ZM797.63,260.86c-3.68-10.18-.49-22.59,8.07-31.41a32.2,32.2,0,0,1,22.79-10.16,23.45,23.45,0,0,1,16.72,6.6,3.18,3.18,0,0,1,.45.55,4.38,4.38,0,0,1-1.45,5.7l-40.76,29.95a4.86,4.86,0,0,1-.68.42,4.29,4.29,0,0,1-1.94.48,3.27,3.27,0,0,1-3.16-2.13ZM949.47,77.67a8.59,8.59,0,0,1,6.69-6.05l26.41-4.16a40.32,40.32,0,0,1,6.27-.5c19.11,0,33.73,14.24,33.73,34.2a42.79,42.79,0,0,1-1.75,12L984.66,237c-1.13,3.88,1,7.46,4.66,8a6.53,6.53,0,0,0,1,.07,7,7,0,0,0,1.08-.09l42.78-6.74a7.05,7.05,0,0,1,1.08-.08,5.78,5.78,0,0,1,5.9,6,7.49,7.49,0,0,1-.29,2l-9.3,31.89a8.59,8.59,0,0,1-6.69,6.05l-50,7.87a40.32,40.32,0,0,1-6.27.5c-19.11,0-33.73-14.24-33.73-34.2a42.81,42.81,0,0,1,1.75-12l35.89-123c1.1-3.88-1-7.45-4.71-8a6.55,6.55,0,0,0-.91-.06,7,7,0,0,0-1.07.08l-19.21,3a7.06,7.06,0,0,1-1.08.08,5.78,5.78,0,0,1-5.9-6,7.49,7.49,0,0,1,.29-2ZM640.89,468a18.64,18.64,0,0,0,2.9-.24,18.4,18.4,0,0,0,14.42-13l6-20.58c1.13-3.88-1-7.46-4.66-8a6.54,6.54,0,0,0-1-.07,7.83,7.83,0,0,0-4.59,1.58l-17.73,13c-9,6.64-7.92,14.85-7,18.1C630.05,461.79,632.73,468,640.89,468Zm601.84-366.21a36,36,0,0,0,5.58-.44,40.92,40.92,0,0,0,24.42-13.89,40.51,40.51,0,0,0,10-23.68,39.17,39.17,0,0,0,5.84-20.3c0-18-13.4-31.51-31.18-31.51a36,36,0,0,0-5.58.44,40.92,40.92,0,0,0-24.42,13.89,40.5,40.5,0,0,0-10,23.68,39.17,39.17,0,0,0-5.84,20.3C1211.55,88.23,1225,101.78,1242.73,101.78Zm10.2-82.19a28.55,28.55,0,0,1,4.44-.35c13.54,0,23.9,10.09,23.9,24.23,0,15.65-12.69,30.34-28.34,32.8a28.55,28.55,0,0,1-4.44.35c-13.54,0-23.9-10.09-23.9-24.23C1224.59,36.73,1237.27,22,1252.93,19.58Z"/></svg>