<svg xmlns="http://www.w3.org/2000/svg" viewBox="0 0 16 16"><title>icon-dribbble</title><path d="M8,0a8,8,0,1,0,8,8A8,8,0,0,0,8,0Zm5.29,3.69h0a6.79,6.79,0,0,1,1.54,4.26,16,16,0,0,0-4.76-.22l-.15-.35c-.14-.33-.29-.67-.45-1a9.13,9.13,0,0,0,3.82-2.69ZM6.4,1.37A6.82,6.82,0,0,1,12.53,2.9,7.71,7.71,0,0,1,8.95,5.37a36.46,36.46,0,0,0-2.55-4Zm-1.31.46a43.72,43.72,0,0,1,2.53,4,25.41,25.41,0,0,1-6.32.83h0A6.86,6.86,0,0,1,5.09,1.83ZM1.17,8V7.8a25.17,25.17,0,0,0,7-1c.2.38.38.77.55,1.16l-.27.08a10.84,10.84,0,0,0-5.56,4.51h0A6.81,6.81,0,0,1,1.17,8Zm9.5,6.29a6.82,6.82,0,0,1-6.86-.9A9.38,9.38,0,0,1,9.17,9.13h0a28.43,28.43,0,0,1,1.46,5.18Zm1.15-.63A29.48,29.48,0,0,0,10.49,8.8a10,10,0,0,1,4.26.29h0A6.86,6.86,0,0,1,11.82,13.67Z"/></svg>